<svg id="svg" xmlns="http://www.w3.org/2000/svg" xmlns:xlink="http://www.w3.org/1999/xlink" width="400" height="400" viewBox="0, 0, 400,400" version="1.1"><g id="svgg"><path id="path0" d="M252.282 20.577 C 253.316 20.704,253.352 20.747,252.782 21.180 C 251.923 21.830,249.667 21.821,249.667 21.167 C 249.667 20.803,249.326 20.679,248.417 20.712 C 247.642 20.740,247.452 20.812,247.917 20.902 C 248.568 21.027,248.604 21.110,248.191 21.523 C 247.561 22.153,246.333 22.138,246.333 21.500 C 246.333 21.167,246.026 21.013,245.417 21.039 C 244.820 21.064,244.710 21.132,245.101 21.233 C 245.578 21.357,245.621 21.486,245.310 21.861 C 244.804 22.472,244.188 22.461,243.667 21.833 C 243.082 21.129,242.697 21.212,242.903 22.000 C 243.114 22.806,242.289 22.917,241.667 22.167 C 241.438 21.892,241.083 21.679,240.876 21.693 C 240.621 21.711,240.628 21.771,240.898 21.881 C 241.400 22.086,241.075 23.000,240.500 23.000 C 240.264 23.000,239.985 22.775,239.879 22.500 C 239.586 21.736,238.921 21.892,239.167 22.667 C 239.317 23.140,239.227 23.333,238.856 23.333 C 238.568 23.333,238.333 23.108,238.333 22.833 C 238.333 22.558,238.071 22.336,237.750 22.338 C 237.355 22.342,237.296 22.425,237.566 22.597 C 237.806 22.750,237.854 23.031,237.686 23.302 C 237.531 23.553,237.228 23.641,237.000 23.500 C 236.776 23.361,236.489 23.415,236.362 23.620 C 236.202 23.879,235.795 23.895,235.019 23.672 C 234.406 23.496,233.739 23.456,233.536 23.583 C 233.333 23.710,232.925 23.852,232.629 23.898 C 232.333 23.944,231.658 24.160,231.129 24.378 C 230.600 24.596,230.054 24.750,229.917 24.720 C 229.779 24.691,229.667 24.826,229.667 25.020 C 229.667 25.214,229.517 25.280,229.333 25.167 C 229.150 25.053,228.813 25.078,228.583 25.221 C 228.354 25.364,227.944 25.515,227.673 25.556 C 227.401 25.597,227.129 25.780,227.068 25.963 C 227.007 26.146,226.742 26.213,226.478 26.112 C 226.215 26.011,226.000 26.104,226.000 26.317 C 226.000 26.531,225.850 26.613,225.667 26.500 C 225.483 26.387,225.333 26.462,225.333 26.667 C 225.333 26.872,225.183 26.947,225.000 26.833 C 224.817 26.720,224.667 26.754,224.667 26.909 C 224.667 27.065,224.351 27.215,223.966 27.244 C 222.645 27.344,208.782 35.645,208.437 36.543 C 208.342 36.792,208.141 36.921,207.992 36.828 C 207.843 36.736,207.183 37.167,206.527 37.786 C 205.870 38.405,205.333 38.834,205.333 38.738 C 205.333 38.643,205.033 38.911,204.667 39.333 C 204.300 39.756,204.000 39.994,204.000 39.862 C 204.000 39.729,203.588 39.918,203.083 40.281 C 201.467 41.445,200.000 42.881,200.000 43.299 C 200.000 43.523,199.867 43.624,199.705 43.523 C 199.454 43.369,198.900 44.449,198.941 45.014 C 198.948 45.114,198.661 45.217,198.303 45.244 C 197.901 45.274,197.728 45.141,197.851 44.896 C 197.960 44.678,197.807 44.800,197.510 45.167 C 197.214 45.533,196.885 45.777,196.780 45.708 C 196.207 45.332,180.632 61.281,176.275 66.706 C 169.640 74.967,153.582 101.188,146.523 115.288 C 139.234 129.847,137.682 134.648,136.487 146.333 C 134.526 165.519,137.427 171.574,153.010 180.825 C 165.830 188.434,171.217 189.436,189.833 187.671 C 205.969 186.142,206.866 185.985,211.914 183.798 C 213.791 182.985,218.415 181.188,222.188 179.805 C 240.914 172.943,253.458 166.404,281.958 148.649 C 296.726 139.449,311.294 119.697,321.771 94.667 C 324.465 88.230,324.477 88.191,323.845 87.559 C 323.157 86.872,323.201 86.420,323.978 86.174 C 324.656 85.958,324.671 85.254,324.023 84.044 C 323.616 83.282,323.541 81.647,323.917 81.706 C 324.803 81.846,324.982 81.573,324.920 80.167 C 324.861 78.807,324.667 78.509,323.917 78.627 C 323.517 78.690,323.628 77.505,324.063 77.070 C 324.885 76.248,324.624 75.463,323.583 75.627 C 323.131 75.699,323.323 74.630,323.858 74.094 C 324.255 73.698,324.284 73.509,323.977 73.319 C 323.754 73.181,323.654 72.753,323.754 72.367 C 323.921 71.732,323.668 71.509,322.917 71.627 C 322.451 71.701,322.663 69.289,323.167 68.786 C 323.695 68.258,323.838 67.640,323.417 67.706 C 322.592 67.836,322.305 67.615,322.500 67.000 C 322.627 66.601,322.560 66.333,322.333 66.333 C 322.107 66.333,322.040 66.066,322.167 65.667 C 322.296 65.258,322.227 65.000,321.987 65.000 C 321.771 65.000,321.682 64.775,321.787 64.500 C 321.893 64.225,321.823 64.000,321.632 64.000 C 321.442 64.000,321.508 63.778,321.780 63.506 C 322.241 63.045,322.190 61.657,321.714 61.718 C 321.596 61.733,321.313 61.728,321.083 61.706 C 320.489 61.650,320.566 61.000,321.167 61.000 C 321.442 61.000,321.655 60.737,321.640 60.417 C 321.626 60.096,321.541 60.012,321.452 60.231 C 321.181 60.897,320.291 60.325,320.513 59.627 C 320.628 59.265,320.552 59.000,320.333 59.000 C 320.107 59.000,320.040 58.733,320.167 58.333 C 320.305 57.898,320.226 57.665,319.939 57.662 C 319.612 57.658,319.625 57.578,319.991 57.346 C 320.414 57.079,320.405 57.007,319.928 56.824 C 319.624 56.707,319.457 56.399,319.557 56.139 C 319.656 55.879,319.543 55.667,319.305 55.667 C 319.045 55.667,319.130 55.466,319.520 55.162 C 319.875 54.884,320.017 54.677,319.833 54.701 C 319.069 54.803,318.640 54.645,318.833 54.333 C 318.947 54.150,318.872 54.000,318.667 54.000 C 318.462 54.000,318.387 53.850,318.500 53.667 C 318.613 53.483,318.551 53.333,318.361 53.333 C 318.134 53.333,318.121 53.058,318.323 52.528 C 318.555 51.918,318.508 51.677,318.132 51.533 C 317.859 51.428,317.660 51.153,317.691 50.921 C 317.840 49.780,317.663 49.543,317.142 50.186 C 316.853 50.542,316.712 50.646,316.828 50.417 C 316.944 50.188,316.895 50.000,316.720 50.000 C 316.544 50.000,316.430 49.560,316.467 49.022 C 316.505 48.484,316.377 48.071,316.184 48.105 C 315.991 48.139,315.854 47.906,315.879 47.587 C 315.904 47.268,315.792 47.089,315.629 47.190 C 315.466 47.290,315.333 47.198,315.333 46.984 C 315.333 46.770,315.110 46.681,314.837 46.786 C 314.565 46.890,314.357 46.869,314.377 46.738 C 314.475 46.080,314.298 45.649,314.004 45.831 C 313.815 45.948,313.759 45.814,313.872 45.519 C 313.981 45.236,314.227 45.101,314.420 45.220 C 314.626 45.347,314.671 45.276,314.528 45.046 C 314.396 44.831,314.163 44.732,314.012 44.826 C 313.860 44.920,313.651 44.772,313.545 44.498 C 313.440 44.224,313.191 44.000,312.991 44.000 C 312.791 44.000,312.734 44.173,312.865 44.385 C 313.022 44.639,312.955 44.678,312.668 44.501 C 312.328 44.291,312.367 44.133,312.847 43.782 C 313.396 43.381,313.289 43.182,312.583 43.294 C 312.446 43.316,312.333 43.108,312.333 42.833 C 312.333 42.558,312.099 42.333,311.814 42.333 C 311.495 42.333,311.385 42.172,311.529 41.917 C 311.715 41.588,311.670 41.588,311.313 41.919 C 310.799 42.396,307.599 39.572,307.861 38.873 C 307.938 38.668,307.663 38.118,307.250 37.651 C 306.838 37.184,306.610 36.971,306.744 37.178 C 306.902 37.421,306.734 37.536,306.272 37.502 C 305.871 37.472,305.518 37.192,305.470 36.865 C 305.281 35.577,305.033 35.292,304.397 35.632 C 303.892 35.903,303.789 35.839,303.809 35.264 C 303.822 34.881,303.608 34.503,303.333 34.425 C 302.892 34.299,302.892 34.323,303.329 34.627 C 303.733 34.907,303.692 34.960,303.102 34.916 C 302.705 34.886,302.387 34.780,302.396 34.681 C 302.507 33.455,302.332 33.208,301.809 33.853 C 301.520 34.209,301.379 34.313,301.495 34.083 C 301.684 33.710,301.285 33.514,300.574 33.630 C 300.431 33.654,300.228 33.447,300.122 33.172 C 300.017 32.896,299.804 32.749,299.649 32.844 C 299.495 32.940,299.427 32.714,299.498 32.342 C 299.644 31.586,299.331 31.469,298.741 32.059 C 298.440 32.360,298.380 32.291,298.481 31.764 C 298.588 31.208,298.481 31.111,297.921 31.257 C 297.489 31.370,297.310 31.308,297.444 31.090 C 297.563 30.899,297.398 30.538,297.080 30.288 C 296.562 29.882,296.546 29.892,296.933 30.387 C 297.224 30.760,297.251 31.011,297.016 31.157 C 296.824 31.275,296.667 31.205,296.667 31.000 C 296.667 30.795,296.525 30.715,296.351 30.823 C 296.177 30.930,296.094 30.710,296.167 30.333 C 296.239 29.957,296.156 29.737,295.983 29.844 C 295.809 29.951,295.667 29.885,295.667 29.697 C 295.667 29.508,295.443 29.440,295.169 29.545 C 294.884 29.655,294.583 29.504,294.463 29.191 C 294.274 28.697,294.211 28.702,293.789 29.240 C 293.533 29.566,293.350 29.683,293.381 29.500 C 293.480 28.930,292.946 27.994,292.632 28.188 C 292.468 28.290,292.333 28.185,292.333 27.956 C 292.333 27.727,292.113 27.830,291.844 28.186 C 291.542 28.585,291.350 28.666,291.344 28.397 C 291.338 28.157,291.183 28.053,291.000 28.167 C 290.817 28.280,290.667 28.205,290.667 28.000 C 290.667 27.795,290.517 27.720,290.333 27.833 C 290.021 28.026,289.864 27.598,289.965 26.833 C 289.990 26.650,289.782 26.791,289.505 27.147 C 289.224 27.507,289.000 27.609,289.000 27.377 C 289.000 27.148,288.850 27.053,288.667 27.167 C 288.483 27.280,288.333 27.198,288.333 26.984 C 288.333 26.770,288.108 26.682,287.833 26.787 C 287.558 26.893,287.333 26.825,287.333 26.637 C 287.333 26.448,287.183 26.387,287.000 26.500 C 286.815 26.614,286.662 26.363,286.656 25.936 C 286.646 25.219,286.615 25.207,286.195 25.760 C 285.768 26.323,285.734 26.323,285.521 25.769 C 285.330 25.270,285.252 25.257,284.987 25.676 C 284.744 26.060,284.676 26.069,284.672 25.714 C 284.669 25.450,284.459 25.342,284.167 25.454 C 283.892 25.559,283.667 25.484,283.667 25.287 C 283.667 25.090,283.442 25.015,283.167 25.121 C 282.892 25.226,282.667 25.157,282.667 24.967 C 282.667 24.767,282.369 24.716,281.958 24.847 C 281.450 25.008,281.320 24.957,281.500 24.667 C 281.680 24.376,281.550 24.325,281.042 24.487 C 280.460 24.671,280.332 24.574,280.323 23.939 C 280.314 23.254,280.275 23.233,279.973 23.750 C 279.500 24.563,278.883 24.482,279.105 23.636 C 279.281 22.960,279.267 22.957,278.623 23.539 C 278.088 24.024,277.906 24.054,277.684 23.694 C 277.530 23.445,277.227 23.359,277.000 23.500 C 276.772 23.641,276.469 23.553,276.314 23.302 C 276.146 23.031,276.194 22.750,276.434 22.597 C 276.704 22.425,276.645 22.342,276.250 22.338 C 275.929 22.336,275.667 22.558,275.667 22.833 C 275.667 23.108,275.432 23.333,275.144 23.333 C 274.773 23.333,274.683 23.140,274.833 22.667 C 275.079 21.892,274.414 21.736,274.121 22.500 C 274.015 22.775,273.736 23.000,273.500 23.000 C 272.925 23.000,272.600 22.086,273.102 21.881 C 273.372 21.771,273.379 21.711,273.124 21.693 C 272.917 21.679,272.562 21.892,272.333 22.167 C 271.711 22.917,270.886 22.806,271.097 22.000 C 271.303 21.212,270.918 21.129,270.333 21.833 C 269.812 22.461,269.196 22.472,268.690 21.861 C 268.379 21.486,268.422 21.357,268.899 21.233 C 269.290 21.132,269.180 21.064,268.583 21.039 C 267.974 21.013,267.667 21.167,267.667 21.500 C 267.667 22.138,266.439 22.153,265.809 21.523 C 265.396 21.110,265.432 21.027,266.083 20.902 C 266.548 20.812,266.358 20.740,265.583 20.712 C 264.674 20.679,264.333 20.803,264.333 21.167 C 264.333 21.821,262.077 21.830,261.218 21.180 C 260.648 20.747,260.684 20.704,261.718 20.577 C 262.332 20.502,260.208 20.440,257.000 20.440 C 253.792 20.440,251.668 20.502,252.282 20.577 M309.319 40.417 C 310.137 41.287,310.849 42.000,310.903 42.000 C 311.153 42.000,310.888 41.701,309.417 40.319 L 307.833 38.833 309.319 40.417 M152.667 85.319 C 151.175 85.783,140.247 90.548,136.771 92.250 C 130.174 95.481,123.051 101.606,120.985 105.824 C 118.352 111.197,118.844 114.022,124.841 128.000 C 127.807 134.911,128.428 135.106,130.160 129.667 C 130.867 127.446,133.806 120.387,134.641 118.903 C 142.839 104.331,145.609 99.657,149.592 93.667 C 154.793 85.848,155.287 84.505,152.667 85.319 M0.000 255.833 L 0.000 400.000 43.836 400.000 L 87.672 400.000 87.586 305.083 L 87.500 210.167 86.733 208.500 C 84.583 203.829,81.714 202.667,72.333 202.667 C 62.952 202.667,60.084 203.829,57.934 208.500 L 57.167 210.167 57.076 244.583 L 56.985 279.000 55.701 279.000 C 54.995 279.000,53.950 279.093,53.380 279.207 L 52.343 279.415 52.255 221.957 L 52.167 164.500 51.400 162.833 C 49.143 157.930,46.555 157.000,35.167 157.000 C 23.778 157.000,21.191 157.930,18.934 162.833 L 18.167 164.500 18.076 199.750 L 17.985 235.000 15.997 235.000 L 14.009 235.000 13.921 177.083 L 13.833 119.167 13.066 117.500 C 11.224 113.496,7.800 111.667,2.150 111.667 L 0.000 111.667 0.000 255.833 M394.000 112.711 C 390.103 113.350,387.622 115.206,386.189 118.555 C 385.503 120.160,385.500 120.385,385.412 177.083 L 385.324 234.000 383.329 234.000 L 381.333 234.000 381.333 199.846 C 381.333 160.914,381.512 163.388,378.489 160.455 C 375.996 158.036,374.900 157.833,364.333 157.833 C 352.497 157.833,350.346 158.536,348.297 163.069 L 347.500 164.833 347.413 224.750 L 347.326 284.667 345.003 284.667 L 342.681 284.667 342.590 247.750 L 342.500 210.833 341.730 208.927 C 339.801 204.151,337.329 203.248,326.588 203.394 C 317.838 203.514,316.625 203.825,314.402 206.522 C 311.964 209.479,312.167 200.503,312.167 305.667 L 312.167 399.833 356.083 399.918 L 400.000 400.002 400.000 256.168 L 400.000 112.333 397.917 112.372 C 396.771 112.394,395.008 112.546,394.000 112.711 M138.170 177.656 C 137.634 179.346,140.259 192.496,141.798 195.825 C 144.830 202.388,152.112 204.575,160.574 201.466 C 162.367 200.807,164.782 199.964,165.940 199.593 C 167.450 199.110,168.127 198.708,168.329 198.178 C 168.484 197.771,169.079 197.243,169.651 197.006 C 172.651 195.764,171.811 194.834,165.925 192.882 C 156.412 189.728,147.857 184.754,141.667 178.778 C 139.727 176.905,138.530 176.522,138.170 177.656 M182.179 268.124 C 181.414 268.889,181.387 269.093,181.351 274.454 C 181.309 280.541,181.799 282.834,182.845 281.447 C 183.279 280.872,183.299 280.882,183.167 281.616 C 183.047 282.282,183.136 282.372,183.763 282.218 C 185.149 281.878,190.367 281.900,190.714 282.248 C 191.264 282.797,190.393 283.126,189.735 282.618 C 189.312 282.291,189.331 282.371,189.809 282.930 C 190.293 283.497,190.517 283.578,190.720 283.258 C 190.913 282.954,190.991 283.009,190.995 283.452 C 190.998 283.848,191.170 284.006,191.472 283.890 C 191.732 283.790,192.034 283.942,192.144 284.228 C 192.295 284.620,192.179 284.704,191.669 284.571 C 191.136 284.431,190.219 285.232,187.315 288.368 L 183.636 292.341 183.760 314.754 C 183.881 336.614,183.902 337.237,184.623 340.000 C 187.331 350.387,192.917 354.798,203.333 354.775 C 213.323 354.754,218.749 350.643,221.564 340.966 L 222.476 337.833 222.584 315.573 L 222.693 293.312 221.097 291.657 C 220.219 290.747,219.177 289.957,218.783 289.902 C 217.902 289.780,216.945 289.026,217.182 288.642 C 217.278 288.487,216.848 287.792,216.226 287.097 C 214.910 285.624,214.945 285.404,216.784 283.616 C 217.545 282.877,217.979 282.370,217.750 282.489 C 217.521 282.608,217.333 282.533,217.333 282.321 C 217.333 282.048,218.278 281.971,220.583 282.056 C 223.180 282.152,223.922 282.075,224.275 281.672 C 224.661 281.230,224.688 281.230,224.496 281.667 C 224.375 281.942,224.579 281.792,224.951 281.335 C 225.518 280.637,225.549 280.460,225.144 280.234 C 224.754 280.016,224.738 279.825,225.061 279.232 L 225.459 278.500 225.708 279.333 C 225.845 279.792,225.929 277.584,225.895 274.428 C 225.810 266.571,228.791 267.517,203.807 267.416 L 182.971 267.333 182.179 268.124 M225.569 276.079 C 225.489 276.494,225.421 276.233,225.417 275.500 C 225.414 274.767,225.479 274.427,225.562 274.746 C 225.646 275.065,225.649 275.665,225.569 276.079 M216.336 286.801 C 218.248 288.939,218.667 289.347,218.667 289.071 C 218.667 288.926,217.880 288.064,216.919 287.154 C 215.632 285.936,215.478 285.843,216.336 286.801 " stroke="none" fill="#ffffff" fill-rule="evenodd"></path><path id="path1" d="M250.083 20.546 C 249.854 20.643,249.667 20.935,249.667 21.194 C 249.667 21.834,251.955 21.806,252.814 21.156 C 253.440 20.683,253.434 20.667,252.647 20.662 C 252.200 20.660,251.533 20.593,251.167 20.514 C 250.800 20.435,250.313 20.450,250.083 20.546 M261.718 20.577 C 260.684 20.704,260.648 20.747,261.218 21.180 C 262.044 21.805,264.333 21.822,264.333 21.202 C 264.333 20.767,263.552 20.268,263.056 20.387 C 262.934 20.416,262.332 20.502,261.718 20.577 M246.737 20.921 C 246.061 21.146,246.287 22.000,247.024 22.000 C 248.121 22.000,248.841 21.111,247.891 20.930 C 247.479 20.851,246.960 20.847,246.737 20.921 M266.083 20.925 C 265.432 21.030,265.396 21.110,265.809 21.523 C 266.420 22.134,267.667 22.142,267.667 21.536 C 267.667 20.978,267.101 20.760,266.083 20.925 M243.899 21.261 C 243.421 21.363,243.378 21.486,243.690 21.861 C 244.186 22.459,244.810 22.464,245.300 21.874 C 245.730 21.356,244.983 21.029,243.899 21.261 M268.899 21.261 C 268.421 21.363,268.378 21.486,268.690 21.861 C 269.186 22.459,269.810 22.464,270.300 21.874 C 270.730 21.356,269.983 21.029,268.899 21.261 M242.259 21.519 C 242.166 21.611,241.610 21.748,241.022 21.822 C 240.434 21.897,239.739 22.135,239.476 22.353 C 239.111 22.656,239.000 22.657,239.000 22.354 C 239.000 22.138,238.850 22.053,238.667 22.167 C 238.210 22.449,238.245 23.333,238.713 23.333 C 238.922 23.333,239.292 23.071,239.536 22.750 C 239.806 22.394,239.983 22.329,239.989 22.583 C 240.005 23.197,240.894 23.090,241.142 22.444 C 241.304 22.021,241.448 21.981,241.744 22.278 C 242.284 22.817,243.000 22.765,243.000 22.186 C 243.000 21.668,242.532 21.246,242.259 21.519 M271.114 21.851 C 270.826 22.602,271.269 22.867,272.023 22.396 C 272.566 22.057,272.716 22.074,272.877 22.492 C 273.110 23.102,273.996 23.173,274.011 22.583 C 274.017 22.329,274.194 22.394,274.464 22.750 C 274.708 23.071,275.078 23.333,275.287 23.333 C 275.755 23.333,275.790 22.449,275.333 22.167 C 275.150 22.053,275.000 22.123,275.000 22.321 C 275.000 22.538,274.689 22.478,274.223 22.173 C 273.796 21.893,273.367 21.744,273.270 21.841 C 273.172 21.939,272.691 21.866,272.201 21.680 C 271.491 21.410,271.270 21.444,271.114 21.851 M235.500 23.129 L 234.167 23.540 235.166 23.739 C 235.715 23.849,236.252 23.798,236.359 23.625 C 236.466 23.452,236.784 23.399,237.067 23.508 C 237.366 23.623,237.664 23.488,237.780 23.186 C 238.020 22.560,237.397 22.544,235.500 23.129 M276.220 23.186 C 276.336 23.488,276.634 23.623,276.933 23.508 C 277.216 23.399,277.560 23.494,277.698 23.717 C 277.894 24.034,278.065 24.027,278.475 23.688 C 278.918 23.320,279.000 23.340,279.000 23.820 C 279.000 24.423,279.708 24.377,279.913 23.761 C 279.981 23.556,279.288 23.236,278.334 23.031 C 276.126 22.558,275.983 22.568,276.220 23.186 M280.333 23.982 C 280.333 24.574,280.467 24.669,281.042 24.487 C 281.550 24.325,281.680 24.376,281.500 24.667 C 281.320 24.957,281.450 25.008,281.958 24.847 C 282.369 24.716,282.667 24.767,282.667 24.967 C 282.667 25.157,282.892 25.226,283.167 25.121 C 283.442 25.015,283.667 25.104,283.667 25.317 C 283.667 25.531,283.833 25.603,284.037 25.477 C 284.241 25.351,284.539 25.455,284.699 25.707 C 284.940 26.088,284.992 26.081,285.005 25.667 C 285.018 25.265,285.110 25.283,285.471 25.760 C 285.866 26.281,285.945 26.290,286.121 25.832 C 286.321 25.312,285.478 24.819,283.871 24.516 C 283.484 24.443,283.167 24.359,283.167 24.331 C 283.167 24.302,282.720 24.206,282.175 24.118 C 281.630 24.029,280.992 23.798,280.758 23.604 C 280.436 23.337,280.333 23.428,280.333 23.982 M286.667 26.233 C 286.667 26.493,286.817 26.613,287.000 26.500 C 287.183 26.387,287.333 26.448,287.333 26.637 C 287.333 26.825,287.558 26.893,287.833 26.787 C 288.108 26.682,288.333 26.770,288.333 26.984 C 288.333 27.198,288.483 27.280,288.667 27.167 C 288.850 27.053,289.002 27.157,289.005 27.397 C 289.009 27.719,289.092 27.705,289.321 27.343 C 289.586 26.922,289.662 26.934,289.850 27.424 C 289.971 27.739,290.204 27.913,290.368 27.812 C 290.532 27.710,290.667 27.795,290.667 28.000 C 290.667 28.205,290.817 28.280,291.000 28.167 C 291.183 28.053,291.333 28.150,291.333 28.380 C 291.333 28.717,291.416 28.717,291.750 28.379 C 292.176 27.949,291.471 27.294,290.399 27.123 C 290.161 27.085,289.636 26.840,289.233 26.578 C 288.120 25.856,286.667 25.660,286.667 26.233 M293.290 28.781 C 293.494 29.027,293.588 29.328,293.500 29.450 C 293.411 29.572,293.505 29.534,293.707 29.365 C 294.116 29.024,293.825 28.333,293.273 28.333 C 293.031 28.333,293.036 28.475,293.290 28.781 M295.914 30.036 C 296.141 30.325,296.216 30.684,296.080 30.834 C 295.945 30.984,296.021 30.999,296.250 30.867 C 296.479 30.735,296.667 30.795,296.667 31.000 C 296.667 31.205,296.779 31.306,296.917 31.225 C 297.416 30.931,298.715 31.652,298.457 32.081 C 298.302 32.339,298.437 32.312,298.806 32.012 C 299.267 31.637,299.302 31.492,298.953 31.385 C 298.704 31.309,298.237 31.018,297.917 30.738 C 297.596 30.459,297.333 30.332,297.333 30.456 C 297.333 30.580,296.921 30.419,296.417 30.097 C 295.674 29.623,295.579 29.611,295.914 30.036 M299.444 32.485 C 299.444 32.752,299.554 32.903,299.687 32.821 C 299.821 32.738,300.017 32.896,300.122 33.172 C 300.228 33.447,300.431 33.654,300.574 33.630 C 301.277 33.515,301.682 33.706,301.468 34.052 C 301.321 34.290,301.377 34.346,301.615 34.198 C 302.248 33.807,302.061 33.426,300.877 32.694 C 299.543 31.869,299.444 31.855,299.444 32.485 M302.421 34.286 C 302.447 34.625,302.752 34.881,303.149 34.900 C 303.526 34.918,303.645 34.860,303.415 34.771 C 303.184 34.682,303.071 34.488,303.163 34.340 C 303.254 34.191,303.115 33.988,302.854 33.887 C 302.546 33.769,302.393 33.910,302.421 34.286 M303.907 35.429 C 303.811 35.678,303.989 35.857,304.333 35.857 C 304.678 35.857,304.856 35.678,304.760 35.429 C 304.669 35.193,304.477 35.000,304.333 35.000 C 304.189 35.000,303.997 35.193,303.907 35.429 M305.450 36.736 C 305.517 37.177,305.821 37.468,306.246 37.500 C 306.828 37.543,306.876 37.459,306.557 36.948 C 305.980 36.025,305.322 35.899,305.450 36.736 M307.612 38.069 C 307.857 38.382,307.976 38.769,307.876 38.930 C 307.600 39.377,310.548 42.112,311.409 42.207 C 311.826 42.253,311.979 42.213,311.750 42.118 C 311.521 42.022,311.333 41.763,311.333 41.542 C 311.333 41.149,309.166 38.944,307.833 37.982 C 307.222 37.540,307.204 37.547,307.612 38.069 M311.000 41.903 C 311.000 42.153,310.701 41.888,309.319 40.417 L 307.833 38.833 309.417 40.319 C 310.287 41.137,311.000 41.849,311.000 41.903 M198.426 44.083 C 197.688 45.038,197.661 45.292,198.303 45.244 C 198.661 45.217,198.887 45.086,198.805 44.954 C 198.723 44.821,198.808 44.619,198.995 44.503 C 199.410 44.247,199.442 43.667,199.041 43.667 C 198.880 43.667,198.603 43.854,198.426 44.083 M312.514 43.977 C 312.409 44.148,312.498 44.396,312.713 44.528 C 312.956 44.679,313.014 44.625,312.865 44.385 C 312.734 44.173,312.781 44.000,312.969 44.000 C 313.460 44.000,314.073 45.278,313.797 45.725 C 313.654 45.957,313.713 46.011,313.948 45.865 C 314.289 45.654,314.480 46.044,314.377 46.738 C 314.357 46.869,314.529 46.904,314.759 46.816 C 315.195 46.649,316.444 48.643,316.444 49.506 C 316.444 49.778,316.578 50.000,316.742 50.000 C 316.905 50.000,316.933 50.188,316.804 50.417 C 316.618 50.746,316.661 50.748,317.009 50.425 C 317.460 50.007,316.519 47.346,315.917 47.337 C 315.779 47.335,315.667 47.108,315.667 46.833 C 315.667 46.558,315.547 46.333,315.400 46.333 C 315.254 46.333,314.766 45.737,314.317 45.009 C 313.517 43.712,312.897 43.357,312.514 43.977 M318.241 52.650 C 318.143 53.026,318.207 53.333,318.384 53.333 C 318.561 53.333,318.613 53.483,318.500 53.667 C 318.387 53.850,318.462 54.000,318.667 54.000 C 318.872 54.000,318.956 54.134,318.855 54.298 C 318.753 54.463,318.928 54.696,319.243 54.816 C 319.733 55.004,319.745 55.080,319.324 55.346 C 318.940 55.589,318.931 55.658,319.286 55.662 C 319.538 55.664,319.658 55.875,319.557 56.139 C 319.457 56.399,319.624 56.707,319.928 56.824 C 320.405 57.007,320.414 57.079,319.991 57.346 C 319.625 57.578,319.612 57.658,319.939 57.662 C 320.226 57.665,320.305 57.898,320.167 58.333 C 320.040 58.733,320.107 59.000,320.333 59.000 C 320.552 59.000,320.628 59.265,320.513 59.627 C 320.385 60.029,320.504 60.327,320.844 60.458 C 321.541 60.726,321.070 57.392,320.147 55.532 C 319.883 55.000,319.667 54.441,319.667 54.290 C 319.667 53.420,318.416 51.981,318.241 52.650 M320.667 61.298 C 320.667 61.666,321.532 62.024,321.792 61.764 C 321.896 61.659,321.902 61.445,321.805 61.287 C 321.571 60.908,320.667 60.917,320.667 61.298 M321.737 63.536 C 321.500 63.791,321.458 64.000,321.643 64.000 C 321.828 64.000,321.893 64.225,321.787 64.500 C 321.682 64.775,321.771 65.000,321.987 65.000 C 322.227 65.000,322.296 65.258,322.167 65.667 C 322.040 66.066,322.107 66.333,322.333 66.333 C 322.560 66.333,322.627 66.601,322.500 67.000 C 322.307 67.607,322.463 67.738,323.250 67.633 C 323.387 67.615,323.448 67.427,323.385 67.217 C 323.322 67.006,323.209 66.571,323.135 66.250 C 322.788 64.753,322.705 64.454,322.445 63.786 C 322.210 63.182,322.100 63.143,321.737 63.536 M323.083 68.853 C 322.376 69.621,322.550 71.516,323.333 71.575 C 324.040 71.628,324.134 71.057,323.711 69.284 C 323.537 68.555,323.427 68.480,323.083 68.853 M323.750 74.186 C 323.128 74.862,323.246 75.518,324.001 75.575 C 324.569 75.618,324.700 74.461,324.203 73.784 C 324.183 73.756,323.979 73.937,323.750 74.186 M324.067 77.067 C 323.468 77.665,323.584 78.519,324.272 78.570 C 324.758 78.607,324.849 78.424,324.734 77.641 C 324.570 76.521,324.593 76.541,324.067 77.067 M323.678 82.654 C 323.685 83.119,323.905 83.875,324.167 84.333 L 324.643 85.167 324.655 83.944 C 324.661 83.271,324.755 82.492,324.862 82.212 C 325.001 81.849,324.859 81.719,324.362 81.756 C 323.850 81.795,323.670 82.032,323.678 82.654 M323.750 86.221 C 323.204 86.441,323.222 86.936,323.797 87.512 C 324.194 87.908,324.282 87.832,324.406 86.988 C 324.553 85.987,324.496 85.920,323.750 86.221 M225.417 275.500 C 225.421 276.233,225.489 276.494,225.569 276.079 C 225.649 275.665,225.646 275.065,225.562 274.746 C 225.479 274.427,225.414 274.767,225.417 275.500 M225.075 279.230 C 224.789 279.738,224.773 280.026,225.021 280.180 C 225.532 280.495,225.738 280.175,225.603 279.279 L 225.485 278.500 225.075 279.230 M187.000 282.020 L 183.833 282.206 186.667 282.280 C 189.535 282.355,190.169 282.591,190.869 283.841 C 191.317 284.641,192.427 284.966,192.138 284.212 C 192.032 283.935,191.732 283.790,191.472 283.890 C 191.192 283.998,190.983 283.853,190.958 283.536 C 190.879 282.513,190.832 282.365,190.500 282.100 C 190.317 281.953,188.742 281.917,187.000 282.020 M217.333 282.250 C 217.332 282.387,218.270 282.458,219.416 282.407 C 222.958 282.248,223.300 282.102,220.250 282.050 C 218.646 282.022,217.333 282.112,217.333 282.250 M216.130 286.930 C 216.804 287.717,217.278 288.487,217.182 288.642 C 216.958 289.005,217.881 289.774,218.687 289.897 C 219.128 289.964,219.252 289.843,219.114 289.482 C 219.006 289.201,218.849 289.040,218.765 289.124 C 218.681 289.208,217.778 288.427,216.758 287.388 C 215.616 286.225,215.374 286.049,216.130 286.930 " stroke="none" fill="#ffffff" fill-rule="evenodd"></path></g></svg>