# Blender v3.6.1 OBJ File: 'beveledCube.blend'
# www.blender.org
mtllib beveledCube.mtl
o Cube
v 0.500000 0.500000 -0.400000
v 0.400000 0.500000 -0.500000
v 0.400000 -0.500000 -0.500000
v 0.500000 -0.500000 -0.400000
v 0.400000 0.500000 0.500000
v 0.500000 0.500000 0.400000
v 0.500000 -0.500000 0.400000
v 0.400000 -0.500000 0.500000
v -0.400000 0.500000 -0.500000
v -0.500000 0.500000 -0.400000
v -0.500000 -0.500000 -0.400000
v -0.400000 -0.500000 -0.500000
v -0.500000 0.500000 0.400000
v -0.400000 0.500000 0.500000
v -0.400000 -0.500000 0.500000
v -0.500000 -0.500000 0.400000
vt 0.125000 0.525000
vt 0.150000 0.500000
vt 0.350000 0.500000
vt 0.375000 0.525000
vt 0.375000 0.725000
vt 0.350000 0.750000
vt 0.150000 0.750000
vt 0.125000 0.725000
vt 0.375000 0.025000
vt 0.625000 0.025000
vt 0.625000 0.225000
vt 0.375000 0.225000
vt 0.375000 0.775000
vt 0.625000 0.775000
vt 0.625000 0.975000
vt 0.375000 0.975000
vt 0.625000 0.525000
vt 0.650000 0.500000
vt 0.850000 0.500000
vt 0.875000 0.525000
vt 0.875000 0.725000
vt 0.850000 0.750000
vt 0.650000 0.750000
vt 0.625000 0.725000
vt 0.375000 0.475000
vt 0.625000 0.475000
vt 0.375000 0.000000
vt 0.625000 0.000000
vt 0.625000 0.275000
vt 0.375000 0.275000
vn 0.0000 -1.0000 0.0000
vn -1.0000 0.0000 0.0000
vn 0.0000 0.0000 1.0000
vn 0.0000 1.0000 0.0000
vn 1.0000 0.0000 0.0000
vn 0.7071 0.0000 -0.7071
vn -0.7071 0.0000 0.7071
vn 0.7071 0.0000 0.7071
vn -0.7071 0.0000 -0.7071
vn 0.0000 0.0000 -1.0000
g Cube_Cube_Material
usemtl Material
s off
f 11/1/1 12/2/1 3/3/1 4/4/1 7/5/1 8/6/1 15/7/1 16/8/1
f 16/9/2 13/10/2 10/11/2 11/12/2
f 8/13/3 5/14/3 14/15/3 15/16/3
f 1/17/4 2/18/4 9/19/4 10/20/4 13/21/4 14/22/4 5/23/4 6/24/4
f 4/4/5 1/17/5 6/24/5 7/5/5
f 1/17/6 4/4/6 3/25/6 2/26/6
f 15/27/7 14/28/7 13/10/7 16/9/7
f 5/14/8 8/13/8 7/5/8 6/24/8
f 9/29/9 12/30/9 11/12/9 10/11/9
f 12/30/10 9/29/10 2/26/10 3/25/10
