# Blender v3.6.1 OBJ File: 'factoryComponent3.blend'
# www.blender.org
mtllib factoryComponent3.mtl
o Cube.006_Cube.008
v 2.250000 2.000000 0.750000
v -2.250000 2.000000 0.750000
v 2.250000 2.000000 -0.750000
v -2.250000 2.000000 -0.750000
v 2.250000 2.250000 0.750000
v -2.250000 2.250000 0.750000
v -2.250000 2.250000 -0.750000
v 2.250000 2.250000 -0.750000
v 0.750000 2.250000 0.750000
v -0.750000 2.250000 0.750000
v -0.750000 2.250000 -0.750000
v 0.750000 2.250000 -0.750000
v 1.250000 2.250000 -0.060461
v 1.439539 2.250000 -0.250000
v 1.115976 2.250000 -0.384024
v 1.275393 2.250000 -0.155231
v 1.344769 2.250000 -0.224607
v 1.439539 2.250000 0.250000
v 1.250000 2.250000 0.060461
v 1.115976 2.250000 0.384024
v 1.344769 2.250000 0.224607
v 1.275393 2.250000 0.155231
v 1.750000 2.250000 0.060461
v 1.560461 2.250000 0.250000
v 1.884024 2.250000 0.384024
v 1.724607 2.250000 0.155231
v 1.655231 2.250000 0.224607
v 1.560461 2.250000 -0.250000
v 1.750000 2.250000 -0.060461
v 1.884024 2.250000 -0.384024
v 1.655231 2.250000 -0.224607
v 1.724607 2.250000 -0.155231
v -1.750000 2.250000 -0.060461
v -1.560461 2.250000 -0.250000
v -1.884024 2.250000 -0.384024
v -1.724607 2.250000 -0.155231
v -1.655231 2.250000 -0.224607
v -1.560461 2.250000 0.250000
v -1.750000 2.250000 0.060461
v -1.884024 2.250000 0.384024
v -1.655231 2.250000 0.224607
v -1.724607 2.250000 0.155231
v -1.250000 2.250000 0.060461
v -1.439539 2.250000 0.250000
v -1.115976 2.250000 0.384024
v -1.275393 2.250000 0.155231
v -1.344769 2.250000 0.224607
v -1.439539 2.250000 -0.250000
v -1.250000 2.250000 -0.060461
v -1.115976 2.250000 -0.384024
v -1.344769 2.250000 -0.224607
v -1.275393 2.250000 -0.155231
v -0.250000 2.250000 -0.060461
v -0.060461 2.250000 -0.250000
v -0.384024 2.250000 -0.384024
v -0.224607 2.250000 -0.155231
v -0.155231 2.250000 -0.224607
v -0.060461 2.250000 0.250000
v -0.250000 2.250000 0.060461
v -0.384024 2.250000 0.384024
v -0.155231 2.250000 0.224607
v -0.224607 2.250000 0.155231
v 0.250000 2.250000 0.060461
v 0.060461 2.250000 0.250000
v 0.384024 2.250000 0.384024
v 0.224607 2.250000 0.155231
v 0.155231 2.250000 0.224607
v 0.060461 2.250000 -0.250000
v 0.250000 2.250000 -0.060461
v 0.384024 2.250000 -0.384024
v 0.155231 2.250000 -0.224607
v 0.224607 2.250000 -0.155231
v 1.250000 6.426137 0.060461
v 1.439539 6.426137 0.250000
v 1.275393 6.426137 0.155231
v 1.344769 6.426137 0.224607
v 1.439539 6.426137 -0.250000
v 1.250000 6.426137 -0.060461
v 1.344769 6.426137 -0.224607
v 1.275393 6.426137 -0.155231
v 1.750000 6.426137 -0.060461
v 1.560461 6.426137 -0.250000
v 1.724607 6.426137 -0.155231
v 1.655231 6.426137 -0.224607
v 1.560461 6.426137 0.250000
v 1.750000 6.426137 0.060461
v 1.655231 6.426137 0.224607
v 1.724607 6.426137 0.155231
v -1.750000 4.426137 0.060461
v -1.560461 4.426137 0.250000
v -1.724607 4.426137 0.155231
v -1.655231 4.426137 0.224607
v -1.560461 4.426137 -0.250000
v -1.750000 4.426137 -0.060461
v -1.655231 4.426137 -0.224607
v -1.724607 4.426137 -0.155231
v -1.250000 4.426137 -0.060461
v -1.439539 4.426137 -0.250000
v -1.275393 4.426137 -0.155231
v -1.344769 4.426137 -0.224607
v -1.439539 4.426137 0.250000
v -1.250000 4.426137 0.060461
v -1.344769 4.426137 0.224607
v -1.275393 4.426137 0.155231
v -0.250000 5.426137 0.060461
v -0.060461 5.426137 0.250000
v -0.224607 5.426137 0.155231
v -0.155231 5.426137 0.224607
v -0.060461 5.426137 -0.250000
v -0.250000 5.426137 -0.060461
v -0.155231 5.426137 -0.224607
v -0.224607 5.426137 -0.155231
v 0.250000 5.426137 -0.060461
v 0.060461 5.426137 -0.250000
v 0.224607 5.426137 -0.155231
v 0.155231 5.426137 -0.224607
v 0.060461 5.426137 0.250000
v 0.250000 5.426137 0.060461
v 0.155231 5.426137 0.224607
v 0.224607 5.426137 0.155231
v 2.500000 0.000000 0.700000
v 2.200000 0.000000 1.000000
v 2.477164 0.000000 0.814805
v 2.412132 0.000000 0.912132
v 2.314805 0.000000 0.977164
v -2.200000 0.000000 1.000000
v -2.500000 0.000000 0.700000
v -2.314805 0.000000 0.977164
v -2.412132 0.000000 0.912132
v -2.477164 0.000000 0.814805
v 2.200000 0.000000 -1.000000
v 2.500000 0.000000 -0.700000
v 2.314805 0.000000 -0.977164
v 2.412132 0.000000 -0.912132
v 2.477164 0.000000 -0.814805
v -2.500000 0.000000 -0.700000
v -2.200000 0.000000 -1.000000
v -2.477164 0.000000 -0.814805
v -2.412132 0.000000 -0.912132
v -2.314805 0.000000 -0.977164
v 2.200000 2.000000 1.000000
v 2.500000 2.000000 0.700000
v 2.287868 2.000000 0.787868
v 2.314805 2.000000 0.977164
v 2.412132 2.000000 0.912132
v 2.477164 2.000000 0.814805
v -2.500000 2.000000 0.700000
v -2.200000 2.000000 1.000000
v -2.287868 2.000000 0.787868
v -2.477164 2.000000 0.814805
v -2.412132 2.000000 0.912132
v -2.314805 2.000000 0.977164
v -2.200000 2.000000 -1.000000
v -2.500000 2.000000 -0.700000
v -2.287868 2.000000 -0.787868
v -2.314805 2.000000 -0.977164
v -2.412132 2.000000 -0.912132
v -2.477164 2.000000 -0.814805
v 2.500000 2.000000 -0.700000
v 2.200000 2.000000 -1.000000
v 2.287868 2.000000 -0.787868
v 2.477164 2.000000 -0.814805
v 2.412132 2.000000 -0.912132
v 2.314805 2.000000 -0.977164
v 2.500000 0.826095 0.700000
v 2.500000 1.173905 0.700000
v 2.477164 1.173905 0.814805
v 2.477164 0.826095 0.814805
v 2.412132 1.173905 0.912132
v 2.412132 0.826095 0.912132
v 2.314805 1.173905 0.977164
v 2.314805 0.826095 0.977164
v 2.200000 1.173905 1.000000
v 2.200000 0.826095 1.000000
v -2.500000 1.173905 0.700000
v -2.500000 0.826095 0.700000
v -2.477164 0.826095 0.814805
v -2.477164 1.173905 0.814805
v -2.412132 0.826095 0.912132
v -2.412132 1.173905 0.912132
v -2.314805 0.826095 0.977164
v -2.314805 1.173905 0.977164
v -2.200000 0.826095 1.000000
v -2.200000 1.173905 1.000000
v -2.200000 1.173905 -1.000000
v -2.200000 0.826095 -1.000000
v -2.314805 0.826095 -0.977164
v -2.314805 1.173905 -0.977164
v -2.412132 0.826095 -0.912132
v -2.412132 1.173905 -0.912132
v -2.477164 0.826095 -0.814805
v -2.477164 1.173905 -0.814805
v -2.500000 0.826095 -0.700000
v -2.500000 1.173905 -0.700000
v 2.500000 1.173905 -0.700000
v 2.500000 0.826095 -0.700000
v 2.477164 0.826095 -0.814805
v 2.477164 1.173905 -0.814805
v 2.412132 0.826095 -0.912132
v 2.412132 1.173905 -0.912132
v 2.314805 0.826095 -0.977164
v 2.314805 1.173905 -0.977164
v 2.200000 0.826095 -1.000000
v 2.200000 1.173905 -1.000000
v 2.381272 0.826095 0.688306
v 2.381272 1.173905 0.688306
v 2.366943 1.173905 0.769150
v 2.366943 0.826095 0.769150
v 2.327772 1.173905 0.827773
v 2.327772 0.826095 0.827773
v 2.269150 1.173905 0.866943
v 2.269150 0.826095 0.866943
v 2.188306 1.173905 0.881272
v 2.188306 0.826095 0.881272
v -2.381272 1.173905 0.688306
v -2.381272 0.826095 0.688306
v -2.366943 0.826095 0.769150
v -2.366943 1.173905 0.769150
v -2.327772 0.826095 0.827773
v -2.327772 1.173905 0.827773
v -2.269150 0.826095 0.866943
v -2.269150 1.173905 0.866943
v -2.188306 0.826095 0.881272
v -2.188306 1.173905 0.881272
v -2.188306 1.173905 -0.881272
v -2.188306 0.826095 -0.881272
v -2.269150 0.826095 -0.866943
v -2.269150 1.173905 -0.866943
v -2.327772 0.826095 -0.827773
v -2.327772 1.173905 -0.827773
v -2.366943 0.826095 -0.769150
v -2.366943 1.173905 -0.769150
v -2.381272 0.826095 -0.688306
v -2.381272 1.173905 -0.688306
v 2.381272 1.173905 -0.688306
v 2.381272 0.826095 -0.688306
v 2.366943 0.826095 -0.769150
v 2.366943 1.173905 -0.769150
v 2.327772 0.826095 -0.827773
v 2.327772 1.173905 -0.827773
v 2.269150 0.826095 -0.866943
v 2.269150 1.173905 -0.866943
v 2.188306 0.826095 -0.881272
v 2.188306 1.173905 -0.881272
vt 0.541667 0.787500
vt 0.625000 0.787500
vt 0.625000 0.962500
vt 0.541667 0.962500
vt 0.541667 0.515000
vt 0.625000 0.515000
vt 0.625000 0.735000
vt 0.541667 0.735000
vt 0.843750 0.737500
vt 0.843750 0.512500
vt 0.848483 0.510607
vt 0.875000 0.515000
vt 0.875000 0.735000
vt 0.848483 0.739393
vt 0.541667 0.287500
vt 0.625000 0.287500
vt 0.625000 0.462500
vt 0.541667 0.462500
vt 0.541667 0.015000
vt 0.625000 0.015000
vt 0.625000 0.235000
vt 0.541667 0.235000
vt 0.656250 0.737500
vt 0.656250 0.512500
vt 0.656250 0.512500
vt 0.656250 0.587500
vt 0.656250 0.662500
vt 0.656250 0.737500
vt 0.837500 0.750000
vt 0.662500 0.750000
vt 0.651516 0.739393
vt 0.651516 0.510607
vt 0.662500 0.500000
vt 0.837500 0.500000
vt 0.701997 0.530799
vt 0.718750 0.546977
vt 0.718750 0.553023
vt 0.701997 0.569201
vt 0.843750 0.737500
vt 0.843750 0.662500
vt 0.843750 0.587500
vt 0.843750 0.512500
vt 0.781250 0.696977
vt 0.781250 0.703023
vt 0.781250 0.703023
vt 0.781250 0.696977
vt 0.757558 0.637500
vt 0.742442 0.637500
vt 0.742442 0.637500
vt 0.757558 0.637500
vt 0.718750 0.703023
vt 0.718750 0.696977
vt 0.718750 0.696977
vt 0.718750 0.703023
vt 0.757558 0.712500
vt 0.742442 0.712500
vt 0.742442 0.712500
vt 0.757558 0.712500
vt 0.798003 0.530799
vt 0.757558 0.537500
vt 0.742442 0.537500
vt 0.798003 0.680799
vt 0.757558 0.687500
vt 0.742442 0.687500
vt 0.701997 0.680799
vt 0.718750 0.546977
vt 0.718750 0.553023
vt 0.757558 0.562500
vt 0.742442 0.562500
vt 0.742442 0.562500
vt 0.757558 0.562500
vt 0.742442 0.612500
vt 0.757558 0.612500
vt 0.757558 0.612500
vt 0.742442 0.612500
vt 0.781250 0.546977
vt 0.781250 0.553023
vt 0.781250 0.553023
vt 0.781250 0.546977
vt 0.718750 0.628023
vt 0.718750 0.621977
vt 0.718750 0.621977
vt 0.718750 0.628023
vt 0.781250 0.621977
vt 0.781250 0.628023
vt 0.781250 0.628023
vt 0.781250 0.621977
vt 0.719808 0.692239
vt 0.730596 0.687923
vt 0.742442 0.687500
vt 0.757558 0.687500
vt 0.769404 0.687923
vt 0.780192 0.692238
vt 0.780192 0.707761
vt 0.769404 0.712077
vt 0.730596 0.712077
vt 0.719808 0.707762
vt 0.798003 0.605799
vt 0.701997 0.605799
vt 0.719808 0.542238
vt 0.730596 0.537923
vt 0.742442 0.537500
vt 0.757558 0.537500
vt 0.769404 0.537923
vt 0.780192 0.542238
vt 0.780192 0.557762
vt 0.769404 0.562077
vt 0.730596 0.562077
vt 0.719808 0.557762
vt 0.719808 0.617238
vt 0.730596 0.612923
vt 0.769404 0.612923
vt 0.780192 0.617238
vt 0.780192 0.632761
vt 0.769404 0.637077
vt 0.730596 0.637077
vt 0.719808 0.632761
vt 0.701997 0.644201
vt 0.798003 0.644201
vt 0.798003 0.719201
vt 0.701997 0.719201
vt 0.798003 0.569201
vt 0.730596 0.687500
vt 0.721924 0.687500
vt 0.718750 0.687500
vt 0.781250 0.692238
vt 0.781250 0.688770
vt 0.781250 0.687500
vt 0.769404 0.712500
vt 0.778076 0.712500
vt 0.781250 0.712500
vt 0.718750 0.707762
vt 0.718750 0.711230
vt 0.718750 0.712500
vt 0.730596 0.537500
vt 0.721924 0.537500
vt 0.718750 0.537500
vt 0.781250 0.542238
vt 0.781250 0.538770
vt 0.781250 0.537500
vt 0.769404 0.562500
vt 0.778076 0.562500
vt 0.781250 0.562500
vt 0.718750 0.557761
vt 0.718750 0.561230
vt 0.718750 0.562500
vt 0.730596 0.612500
vt 0.721924 0.612500
vt 0.718750 0.612500
vt 0.781250 0.617238
vt 0.781250 0.613770
vt 0.781250 0.612500
vt 0.769404 0.637500
vt 0.778076 0.637500
vt 0.781250 0.637500
vt 0.718750 0.632761
vt 0.718750 0.636230
vt 0.718750 0.637500
vt 0.781250 0.632761
vt 0.769404 0.612500
vt 0.718750 0.692238
vt 0.730596 0.712500
vt 0.769404 0.537500
vt 0.718750 0.542238
vt 0.730596 0.637500
vt 0.781250 0.707761
vt 0.769404 0.687500
vt 0.730596 0.562500
vt 0.718750 0.617238
vt 0.781250 0.557761
vt 0.872145 0.740740
vt 0.864016 0.745607
vt 0.861998 0.744799
vt 0.856250 0.742500
vt 0.856250 0.507500
vt 0.851851 0.501142
vt 0.864016 0.504393
vt 0.875000 0.509260
vt 0.643750 0.507500
vt 0.627854 0.509260
vt 0.635983 0.504393
vt 0.648149 0.500000
vt 0.648149 0.748858
vt 0.635983 0.745607
vt 0.638002 0.744799
vt 0.643750 0.742500
vt 0.625000 0.976851
vt 0.541667 0.976851
vt 0.625000 1.000000
vt 0.541667 1.000000
vt 0.541667 0.000000
vt 0.625000 0.000000
vt 0.625000 0.009260
vt 0.541667 0.009260
vt 0.458333 0.287500
vt 0.375000 0.287500
vt 0.375000 0.273149
vt 0.458333 0.273149
vt 0.375000 0.250000
vt 0.458333 0.250000
vt 0.375000 0.240740
vt 0.458333 0.240740
vt 0.375000 0.235000
vt 0.458333 0.235000
vt 0.458333 0.515000
vt 0.375000 0.515000
vt 0.375000 0.509260
vt 0.458333 0.509260
vt 0.375000 0.500000
vt 0.458333 0.500000
vt 0.375000 0.476851
vt 0.458333 0.476851
vt 0.375000 0.462500
vt 0.458333 0.462500
vt 0.458333 0.787500
vt 0.375000 0.787500
vt 0.375000 0.773149
vt 0.458333 0.773149
vt 0.375000 0.750000
vt 0.458333 0.750000
vt 0.375000 0.740740
vt 0.458333 0.740740
vt 0.375000 0.735000
vt 0.458333 0.735000
vt 0.125000 0.515000
vt 0.127855 0.509260
vt 0.135983 0.504393
vt 0.148149 0.501142
vt 0.162500 0.500000
vt 0.337500 0.500000
vt 0.351851 0.501142
vt 0.364017 0.504393
vt 0.372145 0.509260
vt 0.372146 0.740740
vt 0.364017 0.745607
vt 0.351851 0.748858
vt 0.337500 0.750000
vt 0.162500 0.750000
vt 0.148149 0.748858
vt 0.135983 0.745607
vt 0.127855 0.740740
vt 0.125000 0.735000
vt 0.625000 0.740740
vt 0.541667 0.740740
vt 0.458333 0.962500
vt 0.458333 0.787500
vt 0.458333 0.962500
vt 0.625000 0.750000
vt 0.541667 0.750000
vt 0.458333 0.476851
vt 0.458333 0.500000
vt 0.625000 0.773149
vt 0.541667 0.773149
vt 0.458333 0.015000
vt 0.458333 0.009260
vt 0.458333 0.009260
vt 0.458333 0.015000
vt 0.541667 0.735000
vt 0.541667 0.515000
vt 0.625000 0.476851
vt 0.541667 0.476851
vt 0.541667 0.500000
vt 0.541667 0.500000
vt 0.541667 0.476851
vt 0.625000 0.500000
vt 0.458333 0.273149
vt 0.458333 0.287500
vt 0.625000 0.509260
vt 0.541667 0.509260
vt 0.458333 0.515000
vt 0.458333 0.735000
vt 0.458333 0.462500
vt 0.625000 0.240740
vt 0.541667 0.240740
vt 0.541667 0.273149
vt 0.541667 0.287500
vt 0.541667 0.273149
vt 0.625000 0.250000
vt 0.541667 0.250000
vt 0.541667 0.462500
vt 0.625000 0.273149
vt 0.458333 0.250000
vt 0.375000 0.009260
vt 0.375000 0.015000
vt 0.375000 0.000000
vt 0.458333 0.000000
vt 0.458333 0.773149
vt 0.375000 0.976851
vt 0.458333 0.976851
vt 0.458333 1.000000
vt 0.375000 1.000000
vt 0.541667 0.250000
vt 0.375000 0.962500
vt 0.541667 0.235000
vt 0.541667 0.015000
vt 0.541667 0.787500
vt 0.541667 0.773149
vt 0.458333 0.240740
vt 0.458333 0.235000
vt 0.458333 0.750000
vt 0.541667 0.009260
vt 0.541667 0.509260
vt 0.541667 0.962500
vt 0.458333 0.000000
vt 0.458333 0.509260
vt 0.541667 0.740740
vt 0.541667 0.000000
vt 0.458333 0.740740
vt 0.458333 0.976851
vt 0.458333 1.000000
vt 0.541667 0.750000
vt 0.541667 1.000000
vt 0.541667 0.976851
vt 0.541667 0.240740
vn 1.0000 0.0000 0.0000
vn -0.0000 0.0000 -1.0000
vn 0.0000 1.0000 0.0000
vn -1.0000 0.0000 0.0000
vn 0.0000 0.0000 1.0000
vn 0.9659 0.0000 0.2588
vn 0.2588 0.0000 0.9659
vn -0.9659 0.0000 0.2588
vn -0.2588 0.0000 0.9659
vn -0.9659 -0.0000 -0.2588
vn -0.2588 0.0000 -0.9659
vn 0.9659 0.0000 -0.2588
vn 0.2588 0.0000 -0.9659
vn 0.9808 0.0000 0.1951
vn 0.8315 0.0000 0.5556
vn 0.5556 0.0000 0.8315
vn 0.1951 0.0000 0.9808
vn -0.9808 0.0000 0.1951
vn -0.8315 0.0000 0.5556
vn -0.5556 0.0000 0.8315
vn -0.1951 0.0000 0.9808
vn -0.1951 0.0000 -0.9808
vn -0.5556 0.0000 -0.8315
vn -0.8315 0.0000 -0.5556
vn -0.9808 0.0000 -0.1951
vn 0.9808 0.0000 -0.1951
vn 0.8315 0.0000 -0.5556
vn 0.5556 0.0000 -0.8315
vn 0.1951 0.0000 -0.9808
vn 0.0000 -1.0000 0.0000
vn 0.7071 0.0000 0.7071
vn -0.7071 0.0000 0.7071
vn -0.7071 0.0000 -0.7071
vn 0.7071 -0.0000 -0.7071
vn 0.1745 0.0000 -0.9847
vn 0.9847 0.0000 -0.1745
vn -0.9847 0.0000 -0.1745
vn -0.1745 0.0000 -0.9847
vn -0.1745 0.0000 0.9847
vn -0.9847 0.0000 0.1745
vn 0.1745 0.0000 0.9847
vn 0.9847 0.0000 0.1745
usemtl Iron
s off
f 195/1/1 159/2/1 142/3/1 166/4/1
f 185/5/2 153/6/2 160/7/2 204/8/2
f 1/9/3 2/10/3 149/11/3 148/12/3 141/13/3 143/14/3
f 175/15/4 147/16/4 154/17/4 194/18/4
f 173/19/5 141/20/5 148/21/5 184/22/5
f 3/23/2 4/24/2 7/25/2 11/26/2 12/27/2 8/28/2
f 3/23/3 1/9/3 143/14/3 142/29/3 159/30/3 161/31/3
f 4/24/3 3/23/3 161/31/3 160/7/3 153/6/3 155/32/3
f 2/10/3 4/24/3 155/32/3 154/33/3 147/34/3 149/11/3
f 11/26/3 7/25/3 35/35/3 34/36/3 48/37/3 50/38/3
f 2/10/5 1/9/5 5/39/5 9/40/5 10/41/5 6/42/5
f 1/9/1 3/23/1 8/28/1 5/39/1
f 4/24/4 2/10/4 6/42/4 7/25/4
f 18/43/5 24/44/5 85/45/5 74/46/5
f 63/47/1 69/48/1 113/49/1 118/50/1
f 28/51/2 14/52/2 77/53/2 82/54/2
f 23/55/1 29/56/1 81/57/1 86/58/1
f 7/25/3 6/42/3 40/59/3 39/60/3 33/61/3 35/35/3
f 12/27/3 9/40/3 20/62/3 19/63/3 13/64/3 15/65/3
f 48/37/2 34/36/2 93/66/2 98/67/2
f 43/68/1 49/69/1 97/70/1 102/71/1
f 53/72/4 59/73/4 105/74/4 110/75/4
f 38/76/5 44/77/5 101/78/5 90/79/5
f 68/80/2 54/81/2 109/82/2 114/83/2
f 58/84/5 64/85/5 117/86/5 106/87/5
f 77/53/3 79/88/3 80/89/3 78/90/3 73/91/3 75/92/3 76/93/3 74/46/3 85/45/3 87/94/3 88/95/3 86/58/3 81/57/3 83/96/3 84/97/3 82/54/3
f 11/26/3 10/41/3 60/98/3 59/73/3 53/72/3 55/99/3
f 93/66/3 95/100/3 96/101/3 94/102/3 89/103/3 91/104/3 92/105/3 90/79/3 101/78/3 103/106/3 104/107/3 102/71/3 97/70/3 99/108/3 100/109/3 98/67/3
f 109/82/3 111/110/3 112/111/3 110/75/3 105/74/3 107/112/3 108/113/3 106/87/3 117/86/3 119/114/3 120/115/3 118/50/3 113/49/3 115/116/3 116/117/3 114/83/3
f 9/40/3 12/27/3 70/118/3 69/48/3 63/47/3 65/119/3
f 9/40/3 5/39/3 25/120/3 24/44/3 18/43/3 20/62/3
f 33/61/4 39/60/4 89/103/4 94/102/4
f 12/27/3 11/26/3 55/99/3 54/81/3 68/80/3 70/118/3
f 5/39/3 8/28/3 30/121/3 29/56/3 23/55/3 25/120/3
f 6/42/3 10/41/3 45/122/3 44/77/3 38/76/3 40/59/3
f 10/41/3 9/40/3 65/119/3 64/85/3 58/84/3 60/98/3
f 8/28/3 12/27/3 15/65/3 14/52/3 28/51/3 30/121/3
f 10/41/3 11/26/3 50/38/3 49/69/3 43/68/3 45/122/3
f 13/64/3 16/123/3 15/65/3
f 16/123/3 17/124/3 15/65/3
f 17/124/3 14/125/3 15/65/3
f 18/43/3 21/126/3 20/62/3
f 21/126/3 22/127/3 20/62/3
f 22/127/3 19/128/3 20/62/3
f 23/55/3 26/129/3 25/120/3
f 26/129/3 27/130/3 25/120/3
f 27/130/3 24/131/3 25/120/3
f 28/51/3 31/132/3 30/121/3
f 31/132/3 32/133/3 30/121/3
f 32/133/3 29/134/3 30/121/3
f 33/61/3 36/135/3 35/35/3
f 36/135/3 37/136/3 35/35/3
f 37/136/3 34/137/3 35/35/3
f 38/76/3 41/138/3 40/59/3
f 41/138/3 42/139/3 40/59/3
f 42/139/3 39/140/3 40/59/3
f 43/68/3 46/141/3 45/122/3
f 46/141/3 47/142/3 45/122/3
f 47/142/3 44/143/3 45/122/3
f 48/37/3 51/144/3 50/38/3
f 51/144/3 52/145/3 50/38/3
f 52/145/3 49/146/3 50/38/3
f 53/72/3 56/147/3 55/99/3
f 56/147/3 57/148/3 55/99/3
f 57/148/3 54/149/3 55/99/3
f 58/84/3 61/150/3 60/98/3
f 61/150/3 62/151/3 60/98/3
f 62/151/3 59/152/3 60/98/3
f 63/47/3 66/153/3 65/119/3
f 66/153/3 67/154/3 65/119/3
f 67/154/3 64/155/3 65/119/3
f 68/80/3 71/156/3 70/118/3
f 71/156/3 72/157/3 70/118/3
f 72/157/3 69/158/3 70/118/3
f 63/47/6 118/50/6 120/115/6 66/153/6
f 67/159/7 119/114/7 117/86/7 64/85/7
f 105/74/8 59/73/8 62/160/8 107/112/8
f 108/113/9 61/150/9 58/84/9 106/87/9
f 13/64/10 78/90/10 80/89/10 16/123/10
f 17/161/11 79/88/11 77/53/11 14/52/11
f 81/57/12 29/56/12 32/162/12 83/96/12
f 84/97/13 31/132/13 28/51/13 82/54/13
f 38/76/9 90/79/9 92/105/9 41/138/9
f 42/163/8 91/104/8 89/103/8 39/60/8
f 93/66/11 34/36/11 37/164/11 95/100/11
f 96/101/10 36/135/10 33/61/10 94/102/10
f 68/80/13 114/83/13 116/117/13 71/156/13
f 72/165/12 115/116/12 113/49/12 69/48/12
f 23/55/6 86/58/6 88/95/6 26/129/6
f 27/166/7 87/94/7 85/45/7 24/44/7
f 73/91/8 19/63/8 22/167/8 75/92/8
f 76/93/9 21/126/9 18/43/9 74/46/9
f 97/70/12 49/69/12 52/168/12 99/108/12
f 100/109/13 51/144/13 48/37/13 98/67/13
f 109/82/11 54/81/11 57/169/11 111/110/11
f 112/111/10 56/147/10 53/72/10 110/75/10
f 43/68/6 102/71/6 104/107/6 46/141/6
f 47/170/7 103/106/7 101/78/7 44/77/7
f 13/64/4 19/63/4 73/91/4 78/90/4
f 141/13/3 144/171/3 143/14/3
f 144/171/3 145/172/3 143/14/3
f 145/172/3 146/173/3 143/14/3
f 146/173/3 142/174/3 143/14/3
f 147/175/3 150/176/3 149/11/3
f 150/176/3 151/177/3 149/11/3
f 151/177/3 152/178/3 149/11/3
f 152/178/3 148/12/3 149/11/3
f 153/179/3 156/180/3 155/32/3
f 156/180/3 157/181/3 155/32/3
f 157/181/3 158/182/3 155/32/3
f 158/182/3 154/33/3 155/32/3
f 159/30/3 162/183/3 161/31/3
f 162/183/3 163/184/3 161/31/3
f 163/184/3 164/185/3 161/31/3
f 164/185/3 160/186/3 161/31/3
f 166/4/14 142/3/14 146/187/14 167/188/14
f 167/188/15 146/187/15 145/189/15 169/190/15
f 169/191/16 145/192/16 144/193/16 171/194/16
f 171/194/17 144/193/17 141/20/17 173/19/17
f 176/195/18 127/196/18 130/197/18 177/198/18
f 177/198/19 130/197/19 129/199/19 179/200/19
f 179/200/20 129/199/20 128/201/20 181/202/20
f 181/202/21 128/201/21 126/203/21 183/204/21
f 186/205/22 137/206/22 140/207/22 187/208/22
f 187/208/23 140/207/23 139/209/23 189/210/23
f 189/210/24 139/209/24 138/211/24 191/212/24
f 191/212/25 138/211/25 136/213/25 193/214/25
f 196/215/26 132/216/26 135/217/26 197/218/26
f 197/218/27 135/217/27 134/219/27 199/220/27
f 199/220/28 134/219/28 133/221/28 201/222/28
f 201/222/29 133/221/29 131/223/29 203/224/29
f 126/225/30 128/226/30 129/227/30 130/228/30 127/229/30 136/230/30 138/231/30 139/232/30 140/233/30 137/206/30 131/223/30 133/234/30 134/235/30 135/236/30 132/237/30 121/238/30 123/239/30 124/240/30 125/241/30 122/242/30
f 164/243/29 202/244/29 204/8/29 160/7/29
f 165/245/3 196/215/3 236/246/3 205/247/3
f 163/248/28 200/249/28 202/244/28 164/243/28
f 189/210/3 191/212/3 231/250/3 229/251/3
f 162/252/27 198/253/27 200/249/27 163/248/27
f 174/254/3 172/255/3 212/256/3 214/257/3
f 159/2/26 195/1/26 198/253/26 162/252/26
f 185/5/30 204/8/30 244/258/30 225/259/30
f 158/260/25 192/261/25 194/18/25 154/17/25
f 192/261/30 190/262/30 230/263/30 232/264/30
f 157/265/24 190/262/24 192/261/24 158/260/24
f 176/195/3 177/198/3 217/266/3 216/267/3
f 156/268/23 188/269/23 190/262/23 157/265/23
f 203/224/3 186/205/3 226/270/3 243/271/3
f 153/6/22 185/5/22 188/269/22 156/268/22
f 191/212/3 193/214/3 233/272/3 231/250/3
f 152/273/21 182/274/21 184/22/21 148/21/21
f 178/275/30 175/15/30 215/276/30 218/277/30
f 151/278/20 180/279/20 182/274/20 152/273/20
f 175/15/30 194/18/30 234/280/30 215/276/30
f 150/281/19 178/275/19 180/279/19 151/278/19
f 194/18/30 192/261/30 232/264/30 234/280/30
f 147/16/18 175/15/18 178/275/18 150/281/18
f 177/198/3 179/200/3 219/282/3 217/266/3
f 125/283/17 172/255/17 174/254/17 122/284/17
f 193/214/3 176/195/3 216/267/3 233/272/3
f 124/285/16 170/286/16 172/255/16 125/283/16
f 196/215/3 197/218/3 237/287/3 236/246/3
f 123/288/15 168/289/15 170/290/15 124/291/15
f 180/279/30 178/275/30 218/277/30 220/292/30
f 121/293/14 165/245/14 168/289/14 123/288/14
f 173/19/30 184/22/30 224/294/30 213/295/30
f 122/284/5 174/254/5 183/204/5 126/203/5
f 198/253/30 195/1/30 235/296/30 238/297/30
f 127/196/4 176/195/4 193/214/4 136/213/4
f 179/200/3 181/202/3 221/298/3 219/282/3
f 137/206/2 186/205/2 203/224/2 131/223/2
f 183/204/3 174/254/3 214/257/3 223/299/3
f 132/216/1 196/215/1 165/245/1 121/293/1
f 197/218/3 199/220/3 239/300/3 237/287/3
f 171/194/30 173/19/30 213/295/30 211/301/30
f 190/262/30 188/269/30 228/302/30 230/263/30
f 195/1/30 166/4/30 206/303/30 235/296/30
f 172/255/3 170/286/3 210/304/3 212/256/3
f 187/208/3 189/210/3 229/251/3 227/305/3
f 204/8/30 202/244/30 242/306/30 244/258/30
f 169/191/30 171/194/30 211/301/30 209/307/30
f 188/269/30 185/5/30 225/259/30 228/302/30
f 201/222/3 203/224/3 243/271/3 241/308/3
f 170/290/3 168/289/3 208/309/3 210/310/3
f 186/205/3 187/208/3 227/305/3 226/270/3
f 202/244/30 200/249/30 240/311/30 242/306/30
f 167/188/30 169/190/30 209/312/30 207/313/30
f 184/22/30 182/274/30 222/314/30 224/294/30
f 199/220/3 201/222/3 241/308/3 239/300/3
f 168/289/3 165/245/3 205/247/3 208/309/3
f 181/202/3 183/204/3 223/299/3 221/298/3
f 200/249/30 198/253/30 238/297/30 240/311/30
f 166/4/30 167/188/30 207/313/30 206/303/30
f 182/274/30 180/279/30 220/292/30 222/314/30
usemtl Light
f 66/153/31 120/115/31 119/114/31 67/159/31
f 107/112/32 62/160/32 61/150/32 108/113/32
f 16/123/33 80/89/33 79/88/33 17/161/33
f 83/96/34 32/162/34 31/132/34 84/97/34
f 41/138/32 92/105/32 91/104/32 42/163/32
f 95/100/33 37/164/33 36/135/33 96/101/33
f 71/156/34 116/117/34 115/116/34 72/165/34
f 26/129/31 88/95/31 87/94/31 27/166/31
f 75/92/32 22/167/32 21/126/32 76/93/32
f 99/108/34 52/168/34 51/144/34 100/109/34
f 111/110/33 57/169/33 56/147/33 112/111/33
f 46/141/31 104/107/31 103/106/31 47/170/31
f 242/306/35 241/308/35 243/271/35 244/258/35
f 240/311/28 239/300/28 241/308/28 242/306/28
f 238/297/27 237/287/27 239/300/27 240/311/27
f 235/296/36 236/246/36 237/287/36 238/297/36
f 232/264/37 231/250/37 233/272/37 234/280/37
f 230/263/24 229/251/24 231/250/24 232/264/24
f 228/302/23 227/305/23 229/251/23 230/263/23
f 225/259/38 226/270/38 227/305/38 228/302/38
f 222/314/39 221/298/39 223/299/39 224/294/39
f 220/292/20 219/282/20 221/298/20 222/314/20
f 218/277/19 217/266/19 219/282/19 220/292/19
f 215/276/40 216/267/40 217/266/40 218/277/40
f 212/256/41 211/301/41 213/295/41 214/257/41
f 210/304/16 209/307/16 211/301/16 212/256/16
f 208/309/15 207/313/15 209/312/15 210/310/15
f 205/247/42 206/303/42 207/313/42 208/309/42
f 214/257/5 213/295/5 224/294/5 223/299/5
f 216/267/4 215/276/4 234/280/4 233/272/4
f 226/270/2 225/259/2 244/258/2 243/271/2
f 236/246/1 235/296/1 206/303/1 205/247/1
