# Blender v3.6.1 OBJ File: 'factoryComponent2.blend'
# www.blender.org
mtllib factoryComponent2.mtl
o Cube.005_Cube.007
v -1.000000 0.000000 4.000000
v -1.000000 2.500000 3.500000
v -1.000000 0.000000 -4.000000
v -1.000000 2.500000 -3.500000
v 1.000000 0.000000 4.000000
v 1.000000 2.500000 3.500000
v 1.000000 0.000000 -3.500000
v 1.000000 2.500000 -3.500000
v -1.000000 0.000000 3.500000
v -1.000000 3.000000 4.000000
v -1.000000 3.000000 -4.000000
v -1.000000 0.000000 -3.500000
v 1.000000 0.000000 -4.000000
v 1.000000 3.000000 -4.000000
v 1.000000 3.000000 4.000000
v 1.000000 0.000000 3.500000
v -0.757309 0.000000 -3.500000
v -0.757309 0.000000 3.500000
v 0.757309 0.000000 3.500000
v 0.757309 0.000000 -3.500000
v -0.757309 2.500000 3.500000
v -0.757309 2.500000 -3.500000
v 0.757309 2.500000 -3.500000
v 0.757309 2.500000 3.500000
vt 0.125000 0.515625
vt 0.375000 0.515625
vt 0.375000 0.515625
vt 0.125000 0.515625
vt 0.375000 0.250000
vt 0.625000 0.250000
vt 0.625000 0.500000
vt 0.375000 0.500000
vt 0.583333 0.515625
vt 0.583333 0.734375
vt 0.583333 0.734375
vt 0.583333 0.515625
vt 0.375000 0.750000
vt 0.625000 0.750000
vt 0.625000 1.000000
vt 0.375000 1.000000
vt 0.375000 0.734375
vt 0.125000 0.734375
vt 0.125000 0.734375
vt 0.375000 0.734375
vt 0.875000 0.500000
vt 0.875000 0.750000
vt 0.583333 0.015625
vt 0.375000 0.015625
vt 0.375000 0.000000
vt 0.625000 0.000000
vt 0.583333 0.234375
vt 0.375000 0.234375
vt 0.125000 0.500000
vt 0.125000 0.750000
vt 0.583333 0.234375
vt 0.583333 0.015625
vt 0.375000 0.234375
vt 0.375000 0.015625
vn 0.0000 0.0000 1.0000
vn 0.0000 0.0000 -1.0000
vn 0.0000 -1.0000 0.0000
vn 0.0000 1.0000 0.0000
vn -1.0000 0.0000 0.0000
vn 1.0000 0.0000 0.0000
usemtl Iron
s off
f 12/1/1 7/2/1 20/3/1 17/4/1
f 3/5/2 11/6/2 14/7/2 13/8/2
f 8/9/3 6/10/3 24/11/3 23/12/3
f 5/13/1 15/14/1 10/15/1 1/16/1
f 16/17/1 9/18/1 18/19/1 19/20/1
f 14/7/4 11/21/4 10/22/4 15/14/4
f 2/23/5 9/24/5 1/25/5 10/26/5
f 4/27/5 2/23/5 10/26/5 11/6/5
f 12/28/5 4/27/5 11/6/5 3/5/5
f 7/2/3 12/1/3 3/29/3 13/8/3
f 8/9/6 7/2/6 13/8/6 14/7/6
f 6/10/6 8/9/6 14/7/6 15/14/6
f 16/17/6 6/10/6 15/14/6 5/13/6
f 9/18/3 16/17/3 5/13/3 1/30/3
f 17/4/3 20/3/3 19/20/3 18/19/3
f 2/23/3 4/27/3 22/31/3 21/32/3
f 6/10/2 16/17/2 19/20/2 24/11/2
f 7/2/1 8/9/1 23/12/1 20/3/1
f 4/27/1 12/28/1 17/33/1 22/31/1
f 9/24/2 2/23/2 21/32/2 18/34/2
usemtl Glass
f 18/34/5 21/32/5 22/31/5 17/33/5
f 20/3/6 23/12/6 24/11/6 19/20/6
