# Blender v3.6.1 OBJ File: 'factoryComponent1.blend'
# www.blender.org
mtllib factoryComponent1.mtl
o Cube.001_Cube.003
v -0.700000 0.000000 1.000000
v -1.000000 0.000000 0.700000
v -0.814805 0.000000 0.977164
v -0.912132 0.000000 0.912132
v -0.977164 0.000000 0.814805
v -0.800000 10.000000 0.680302
v -0.680302 10.000000 0.800000
v -0.788768 10.000000 0.736769
v -0.767940 10.000000 0.767940
v -0.736769 10.000000 0.788768
v -1.000000 0.000000 -0.700000
v -0.700000 0.000000 -1.000000
v -0.977164 0.000000 -0.814805
v -0.912132 0.000000 -0.912132
v -0.814805 0.000000 -0.977164
v -0.680302 10.000000 -0.800000
v -0.800000 10.000000 -0.680302
v -0.736769 10.000000 -0.788768
v -0.767940 10.000000 -0.767940
v -0.788768 10.000000 -0.736769
v 1.000000 0.000000 0.700000
v 0.700000 0.000000 1.000000
v 0.977164 0.000000 0.814805
v 0.912132 0.000000 0.912132
v 0.814805 0.000000 0.977164
v 0.680302 10.000000 0.800000
v 0.800000 10.000000 0.680302
v 0.736769 10.000000 0.788768
v 0.767940 10.000000 0.767940
v 0.788768 10.000000 0.736769
v 0.700000 0.000000 -1.000000
v 1.000000 0.000000 -0.700000
v 0.814805 0.000000 -0.977164
v 0.912132 0.000000 -0.912132
v 0.977164 0.000000 -0.814805
v 0.800000 10.000000 -0.680302
v 0.680302 10.000000 -0.800000
v 0.788768 10.000000 -0.736769
v 0.767940 10.000000 -0.767940
v 0.736769 10.000000 -0.788768
v -0.700000 10.000000 1.000000
v -0.814805 10.000000 0.977164
v -0.912132 10.000000 0.912132
v -0.977164 10.000000 0.814805
v -1.000000 10.000000 0.700000
v -0.814805 10.000000 -0.977164
v -0.700000 10.000000 -1.000000
v -0.912132 10.000000 -0.912132
v -0.977164 10.000000 -0.814805
v -1.000000 10.000000 -0.700000
v 0.977164 10.000000 -0.814805
v 1.000000 10.000000 -0.700000
v 0.912132 10.000000 -0.912132
v 0.814805 10.000000 -0.977164
v 0.700000 10.000000 -1.000000
v 0.814805 10.000000 0.977164
v 0.700000 10.000000 1.000000
v 0.912132 10.000000 0.912132
v 0.977164 10.000000 0.814805
v 1.000000 10.000000 0.700000
v -0.680302 9.500000 0.800000
v -0.736769 9.500000 0.788768
v -0.767940 9.500000 0.767940
v -0.788768 9.500000 0.736769
v -0.800000 9.500000 0.680302
v -0.736769 9.500000 -0.788768
v -0.680302 9.500000 -0.800000
v -0.767940 9.500000 -0.767940
v -0.788768 9.500000 -0.736769
v -0.800000 9.500000 -0.680302
v 0.788768 9.500000 -0.736769
v 0.800000 9.500000 -0.680302
v 0.767940 9.500000 -0.767940
v 0.736769 9.500000 -0.788768
v 0.680302 9.500000 -0.800000
v 0.736769 9.500000 0.788768
v 0.680302 9.500000 0.800000
v 0.767940 9.500000 0.767940
v 0.788768 9.500000 0.736769
v 0.800000 9.500000 0.680302
vt 0.375000 0.787500
vt 0.625000 0.787500
vt 0.625000 0.962500
vt 0.375000 0.962500
vt 0.375000 0.537500
vt 0.625000 0.537500
vt 0.625000 0.712500
vt 0.375000 0.712500
vt 0.845993 0.720993
vt 0.842096 0.723596
vt 0.842096 0.723596
vt 0.845993 0.720993
vt 0.375000 0.037500
vt 0.625000 0.037500
vt 0.625000 0.212500
vt 0.375000 0.212500
vt 0.375000 0.287500
vt 0.625000 0.287500
vt 0.625000 0.462500
vt 0.375000 0.462500
vt 0.625000 0.976851
vt 0.375000 0.976851
vt 0.625000 1.000000
vt 0.375000 1.000000
vt 0.375000 0.000000
vt 0.625000 0.000000
vt 0.625000 0.023149
vt 0.375000 0.023149
vt 0.375000 0.273149
vt 0.625000 0.273149
vt 0.375000 0.250000
vt 0.625000 0.250000
vt 0.375000 0.226851
vt 0.625000 0.226851
vt 0.375000 0.523149
vt 0.625000 0.523149
vt 0.375000 0.500000
vt 0.625000 0.500000
vt 0.375000 0.476851
vt 0.625000 0.476851
vt 0.375000 0.773149
vt 0.625000 0.773149
vt 0.375000 0.750000
vt 0.625000 0.750000
vt 0.375000 0.726851
vt 0.625000 0.726851
vt 0.125000 0.537500
vt 0.127855 0.523149
vt 0.135983 0.510983
vt 0.148149 0.502855
vt 0.162500 0.500000
vt 0.337500 0.500000
vt 0.351851 0.502854
vt 0.364017 0.510983
vt 0.372145 0.523149
vt 0.372145 0.726851
vt 0.364017 0.739017
vt 0.351851 0.747145
vt 0.337500 0.750000
vt 0.162500 0.750000
vt 0.148149 0.747146
vt 0.135983 0.739016
vt 0.127855 0.726851
vt 0.125000 0.712500
vt 0.835038 0.725000
vt 0.851851 0.747145
vt 0.837500 0.750000
vt 0.864017 0.739017
vt 0.848596 0.717096
vt 0.872145 0.726851
vt 0.850000 0.710038
vt 0.875000 0.712500
vt 0.842096 0.526404
vt 0.835038 0.525000
vt 0.837500 0.500000
vt 0.851851 0.502854
vt 0.845993 0.529007
vt 0.864017 0.510983
vt 0.848596 0.532904
vt 0.872145 0.523149
vt 0.850000 0.539962
vt 0.875000 0.537500
vt 0.651404 0.532904
vt 0.650000 0.539962
vt 0.627855 0.523149
vt 0.654007 0.529007
vt 0.635983 0.510983
vt 0.657904 0.526404
vt 0.648149 0.502855
vt 0.664962 0.525000
vt 0.662500 0.500000
vt 0.657904 0.723596
vt 0.664962 0.725000
vt 0.662500 0.750000
vt 0.648149 0.747146
vt 0.654007 0.720993
vt 0.635983 0.739016
vt 0.651404 0.717096
vt 0.627855 0.726851
vt 0.650000 0.710038
vt 0.850000 0.710038
vt 0.850000 0.539962
vt 0.654007 0.529007
vt 0.651404 0.532904
vt 0.848596 0.717096
vt 0.664962 0.725000
vt 0.835038 0.725000
vt 0.657904 0.526404
vt 0.650000 0.539962
vt 0.650000 0.710038
vt 0.664962 0.525000
vt 0.842096 0.526404
vt 0.835038 0.525000
vt 0.657904 0.723596
vt 0.845993 0.529007
vt 0.654007 0.720993
vt 0.848596 0.532904
vt 0.651404 0.717096
vn 0.0000 0.0000 1.0000
vn 1.0000 0.0000 0.0000
vn 0.5556 0.0000 -0.8315
vn -1.0000 0.0000 0.0000
vn 0.0000 0.0000 -1.0000
vn -0.1951 0.0000 0.9808
vn -0.5556 0.0000 0.8315
vn -0.8315 0.0000 0.5556
vn -0.9808 0.0000 0.1951
vn -0.1951 0.0000 -0.9808
vn -0.5556 0.0000 -0.8315
vn -0.8315 0.0000 -0.5556
vn -0.9808 0.0000 -0.1951
vn 0.9808 0.0000 -0.1951
vn 0.8315 0.0000 -0.5556
vn 0.1951 0.0000 -0.9808
vn 0.1951 0.0000 0.9808
vn 0.5556 0.0000 0.8315
vn 0.8315 0.0000 0.5556
vn 0.9808 0.0000 0.1951
vn 0.0000 -1.0000 0.0000
vn 0.0000 1.0000 0.0000
usemtl Iron
s off
f 22/1/1 57/2/1 41/3/1 1/4/1
f 32/5/2 52/6/2 60/7/2 21/8/2
f 9/9/3 10/10/3 62/11/3 63/12/3
f 2/13/4 45/14/4 50/15/4 11/16/4
f 12/17/5 47/18/5 55/19/5 31/20/5
f 1/4/6 41/3/6 42/21/6 3/22/6
f 3/22/7 42/21/7 43/23/7 4/24/7
f 4/25/8 43/26/8 44/27/8 5/28/8
f 5/28/9 44/27/9 45/14/9 2/13/9
f 47/18/10 12/17/10 15/29/10 46/30/10
f 46/30/11 15/29/11 14/31/11 48/32/11
f 48/32/12 14/31/12 13/33/12 49/34/12
f 49/34/13 13/33/13 11/16/13 50/15/13
f 52/6/14 32/5/14 35/35/14 51/36/14
f 51/36/15 35/35/15 34/37/15 53/38/15
f 53/38/3 34/37/3 33/39/3 54/40/3
f 54/40/16 33/39/16 31/20/16 55/19/16
f 57/2/17 22/1/17 25/41/17 56/42/17
f 56/42/18 25/41/18 24/43/18 58/44/18
f 58/44/19 24/43/19 23/45/19 59/46/19
f 59/46/20 23/45/20 21/8/20 60/7/20
f 11/47/21 13/48/21 14/49/21 15/50/21 12/51/21 31/52/21 33/53/21 34/54/21 35/55/21 32/5/21 21/8/21 23/56/21 24/57/21 25/58/21 22/59/21 1/60/21 3/61/21 4/62/21 5/63/21 2/64/21
f 7/65/22 10/10/22 42/66/22 41/67/22
f 10/10/22 9/9/22 43/68/22 42/66/22
f 9/9/22 8/69/22 44/70/22 43/68/22
f 8/69/22 6/71/22 45/72/22 44/70/22
f 18/73/22 16/74/22 47/75/22 46/76/22
f 19/77/22 18/73/22 46/76/22 48/78/22
f 20/79/22 19/77/22 48/78/22 49/80/22
f 17/81/22 20/79/22 49/80/22 50/82/22
f 38/83/22 36/84/22 52/6/22 51/85/22
f 39/86/22 38/83/22 51/85/22 53/87/22
f 40/88/22 39/86/22 53/87/22 54/89/22
f 37/90/22 40/88/22 54/89/22 55/91/22
f 28/92/22 26/93/22 57/94/22 56/95/22
f 29/96/22 28/92/22 56/95/22 58/97/22
f 30/98/22 29/96/22 58/97/22 59/99/22
f 27/100/22 30/98/22 59/99/22 60/7/22
f 6/71/22 17/81/22 50/82/22 45/72/22
f 26/93/22 7/65/22 41/67/22 57/94/22
f 36/84/22 27/100/22 60/7/22 52/6/22
f 16/74/22 37/90/22 55/91/22 47/75/22
f 17/81/2 6/71/2 65/101/2 70/102/2
f 38/83/8 39/86/8 73/103/8 71/104/8
f 8/69/15 9/9/15 63/12/15 64/105/15
f 7/65/5 26/93/5 77/106/5 61/107/5
f 39/86/7 40/88/7 74/108/7 73/103/7
f 6/71/14 8/69/14 64/105/14 65/101/14
f 27/100/4 36/84/4 72/109/4 80/110/4
f 40/88/6 37/90/6 75/111/6 74/108/6
f 16/74/17 18/73/17 66/112/17 67/113/17
f 37/90/1 16/74/1 67/113/1 75/111/1
f 26/93/10 28/92/10 76/114/10 77/106/10
f 18/73/18 19/77/18 68/115/18 66/112/18
f 28/92/11 29/96/11 78/116/11 76/114/11
f 19/77/19 20/79/19 69/117/19 68/115/19
f 29/96/12 30/98/12 79/118/12 78/116/12
f 20/79/20 17/81/20 70/102/20 69/117/20
f 10/10/16 7/65/16 61/107/16 62/11/16
f 30/98/13 27/100/13 80/110/13 79/118/13
f 36/84/9 38/83/9 71/104/9 72/109/9
usemtl Light
f 72/109/22 71/104/22 73/103/22 74/108/22 75/111/22 67/113/22 66/112/22 68/115/22 69/117/22 70/102/22 65/101/22 64/105/22 63/12/22 62/11/22 61/107/22 77/106/22 76/114/22 78/116/22 79/118/22 80/110/22
