# Blender v3.6.1 OBJ File: 'generatorAlternate.blend'
# www.blender.org
mtllib generatorAlternate.mtl
o Cylinder
v 1.000000 -0.500000 -5.732051
v 0.831826 0.500000 -5.440765
v 2.000000 -0.500000 -4.000000
v 1.663653 0.500000 -4.000000
v 1.000000 -0.500000 -2.267949
v 0.831826 0.500000 -2.559235
v -1.000000 -0.500000 -2.267949
v -0.831826 0.500000 -2.559235
v -2.000000 -0.500000 -4.000000
v -1.663653 0.500000 -4.000000
v -1.000000 -0.500000 -5.732051
v -0.831826 0.500000 -5.440765
v 2.000000 0.500000 -4.000000
v 1.000000 0.500000 -5.732051
v 1.000000 0.500000 -2.267949
v -1.000000 0.500000 -2.267949
v -2.000000 0.500000 -4.000000
v -1.000000 0.500000 -5.732051
v 1.663653 0.093141 -4.000000
v 0.831826 0.093141 -5.440765
v 0.831826 0.093141 -2.559235
v -0.831826 0.093141 -2.559235
v -1.663653 0.093141 -4.000000
v -0.831826 0.093141 -5.440765
vt 0.422892 0.349819
vt 0.250000 0.449638
vt 0.077108 0.349819
vt 0.077108 0.150181
vt 0.250000 0.050362
vt 0.422892 0.150181
vt 1.000000 0.500000
vt 1.000000 1.000000
vt 0.833333 1.000000
vt 0.833333 0.500000
vt 0.666667 1.000000
vt 0.666667 0.500000
vt 0.500000 1.000000
vt 0.500000 0.500000
vt 0.333333 1.000000
vt 0.333333 0.500000
vt 0.077108 0.349819
vt 0.077108 0.150181
vt 0.166667 1.000000
vt 0.166667 0.500000
vt -0.000000 1.000000
vt -0.000000 0.500000
vt 0.750000 0.490000
vt 0.957846 0.370000
vt 0.957846 0.130000
vt 0.750000 0.010000
vt 0.542154 0.130000
vt 0.542154 0.370000
vt 0.250000 0.449638
vt 0.422892 0.349819
vt 0.457846 0.370000
vt 0.250000 0.490000
vt 0.422892 0.150181
vt 0.457846 0.130000
vt 0.250000 0.050362
vt 0.250000 0.010000
vt 0.042154 0.130000
vt 0.042154 0.370000
vn 0.0000 1.0000 0.0000
vn 0.8660 0.0000 -0.5000
vn 0.8660 0.0000 0.5000
vn 0.0000 0.0000 1.0000
vn -0.8660 0.0000 0.5000
vn -0.8660 0.0000 -0.5000
vn 0.0000 0.0000 -1.0000
vn 0.0000 -1.0000 0.0000
g Cylinder_Cylinder_Light
usemtl Light
s off
f 19/1/1 20/2/1 24/3/1 23/4/1 22/5/1 21/6/1
g Cylinder_Cylinder_Black
usemtl Black
f 1/7/2 14/8/2 13/9/2 3/10/2
f 3/10/3 13/9/3 15/11/3 5/12/3
f 5/12/4 15/11/4 16/13/4 7/14/4
f 7/14/5 16/13/5 17/15/5 9/16/5
f 12/17/3 10/18/3 23/4/3 24/3/3
f 9/16/6 17/15/6 18/19/6 11/20/6
f 11/20/7 18/19/7 14/21/7 1/22/7
f 1/23/8 3/24/8 5/25/8 7/26/8 9/27/8 11/28/8
f 2/29/1 4/30/1 13/31/1 14/32/1
f 4/30/1 6/33/1 15/34/1 13/31/1
f 6/33/1 8/35/1 16/36/1 15/34/1
f 8/35/1 10/18/1 17/37/1 16/36/1
f 10/18/1 12/17/1 18/38/1 17/37/1
f 12/17/1 2/29/1 14/32/1 18/38/1
f 8/35/7 6/33/7 21/6/7 22/5/7
f 4/30/5 2/29/5 20/2/5 19/1/5
f 2/29/4 12/17/4 24/3/4 20/2/4
f 10/18/2 8/35/2 22/5/2 23/4/2
f 6/33/6 4/30/6 19/1/6 21/6/6
o Cylinder.001
v 1.000000 -0.500000 2.267949
v 0.831826 0.500000 2.559235
v 2.000000 -0.500000 4.000000
v 1.663653 0.500000 4.000000
v 1.000000 -0.500000 5.732051
v 0.831826 0.500000 5.440765
v -1.000000 -0.500000 5.732051
v -0.831826 0.500000 5.440765
v -2.000000 -0.500000 4.000000
v -1.663653 0.500000 4.000000
v -1.000000 -0.500000 2.267949
v -0.831826 0.500000 2.559235
v 2.000000 0.500000 4.000000
v 1.000000 0.500000 2.267949
v 1.000000 0.500000 5.732051
v -1.000000 0.500000 5.732051
v -2.000000 0.500000 4.000000
v -1.000000 0.500000 2.267949
v 1.663653 0.093141 4.000000
v 0.831826 0.093141 2.559235
v 0.831826 0.093141 5.440765
v -0.831826 0.093141 5.440765
v -1.663653 0.093141 4.000000
v -0.831826 0.093141 2.559235
vt 0.422892 0.349819
vt 0.250000 0.449638
vt 0.077108 0.349819
vt 0.077108 0.150181
vt 0.250000 0.050362
vt 0.422892 0.150181
vt 1.000000 0.500000
vt 1.000000 1.000000
vt 0.833333 1.000000
vt 0.833333 0.500000
vt 0.666667 1.000000
vt 0.666667 0.500000
vt 0.500000 1.000000
vt 0.500000 0.500000
vt 0.333333 1.000000
vt 0.333333 0.500000
vt 0.077108 0.349819
vt 0.077108 0.150181
vt 0.166667 1.000000
vt 0.166667 0.500000
vt -0.000000 1.000000
vt -0.000000 0.500000
vt 0.750000 0.490000
vt 0.957846 0.370000
vt 0.957846 0.130000
vt 0.750000 0.010000
vt 0.542154 0.130000
vt 0.542154 0.370000
vt 0.250000 0.449638
vt 0.422892 0.349819
vt 0.457846 0.370000
vt 0.250000 0.490000
vt 0.422892 0.150181
vt 0.457846 0.130000
vt 0.250000 0.050362
vt 0.250000 0.010000
vt 0.042154 0.130000
vt 0.042154 0.370000
vn 0.0000 1.0000 0.0000
vn 0.8660 0.0000 -0.5000
vn 0.8660 0.0000 0.5000
vn 0.0000 0.0000 1.0000
vn -0.8660 0.0000 0.5000
vn -0.8660 0.0000 -0.5000
vn 0.0000 0.0000 -1.0000
vn 0.0000 -1.0000 0.0000
g Cylinder.001_Cylinder.001_Light
usemtl Light
s off
f 43/39/9 44/40/9 48/41/9 47/42/9 46/43/9 45/44/9
g Cylinder.001_Cylinder.001_Black
usemtl Black
f 25/45/10 38/46/10 37/47/10 27/48/10
f 27/48/11 37/47/11 39/49/11 29/50/11
f 29/50/12 39/49/12 40/51/12 31/52/12
f 31/52/13 40/51/13 41/53/13 33/54/13
f 36/55/11 34/56/11 47/42/11 48/41/11
f 33/54/14 41/53/14 42/57/14 35/58/14
f 35/58/15 42/57/15 38/59/15 25/60/15
f 25/61/16 27/62/16 29/63/16 31/64/16 33/65/16 35/66/16
f 26/67/9 28/68/9 37/69/9 38/70/9
f 28/68/9 30/71/9 39/72/9 37/69/9
f 30/71/9 32/73/9 40/74/9 39/72/9
f 32/73/9 34/56/9 41/75/9 40/74/9
f 34/56/9 36/55/9 42/76/9 41/75/9
f 36/55/9 26/67/9 38/70/9 42/76/9
f 32/73/15 30/71/15 45/44/15 46/43/15
f 28/68/13 26/67/13 44/40/13 43/39/13
f 26/67/12 36/55/12 48/41/12 44/40/12
f 34/56/10 32/73/10 46/43/10 47/42/10
f 30/71/14 28/68/14 43/39/14 45/44/14
o Cylinder.002
v 5.464102 -0.500000 -2.000000
v 5.127754 0.500000 -2.000000
v 4.464102 -0.500000 -0.267949
v 4.295928 0.500000 -0.559234
v 2.464102 -0.500000 -0.267949
v 2.632275 0.500000 -0.559234
v 1.464102 -0.500000 -2.000000
v 1.800449 0.500000 -2.000000
v 2.464102 -0.500000 -3.732051
v 2.632276 0.500000 -3.440765
v 4.464102 -0.500000 -3.732051
v 4.295928 0.500000 -3.440765
v 4.464102 0.500000 -0.267949
v 5.464102 0.500000 -2.000000
v 2.464102 0.500000 -0.267949
v 1.464102 0.500000 -2.000000
v 2.464102 0.500000 -3.732051
v 4.464102 0.500000 -3.732051
v 4.295928 0.093141 -0.559234
v 5.127754 0.093141 -2.000000
v 2.632275 0.093141 -0.559234
v 1.800449 0.093141 -2.000000
v 2.632276 0.093141 -3.440765
v 4.295928 0.093141 -3.440765
vt 0.422892 0.349819
vt 0.250000 0.449638
vt 0.077108 0.349819
vt 0.077108 0.150181
vt 0.250000 0.050362
vt 0.422892 0.150181
vt 1.000000 0.500000
vt 1.000000 1.000000
vt 0.833333 1.000000
vt 0.833333 0.500000
vt 0.666667 1.000000
vt 0.666667 0.500000
vt 0.500000 1.000000
vt 0.500000 0.500000
vt 0.333333 1.000000
vt 0.333333 0.500000
vt 0.077108 0.349819
vt 0.077108 0.150181
vt 0.166667 1.000000
vt 0.166667 0.500000
vt -0.000000 1.000000
vt -0.000000 0.500000
vt 0.750000 0.490000
vt 0.957846 0.370000
vt 0.957846 0.130000
vt 0.750000 0.010000
vt 0.542154 0.130000
vt 0.542154 0.370000
vt 0.250000 0.449638
vt 0.422892 0.349819
vt 0.457846 0.370000
vt 0.250000 0.490000
vt 0.422892 0.150181
vt 0.457846 0.130000
vt 0.250000 0.050362
vt 0.250000 0.010000
vt 0.042154 0.130000
vt 0.042154 0.370000
vn 0.0000 1.0000 0.0000
vn 0.8660 0.0000 0.5000
vn 0.0000 0.0000 1.0000
vn -0.8660 0.0000 0.5000
vn -0.8660 0.0000 -0.5000
vn 0.0000 0.0000 -1.0000
vn 0.8660 0.0000 -0.5000
vn 0.0000 -1.0000 0.0000
g Cylinder.002_Cylinder.002_Light
usemtl Light
s off
f 67/77/17 68/78/17 72/79/17 71/80/17 70/81/17 69/82/17
g Cylinder.002_Cylinder.002_Black
usemtl Black
f 49/83/18 62/84/18 61/85/18 51/86/18
f 51/86/19 61/85/19 63/87/19 53/88/19
f 53/88/20 63/87/20 64/89/20 55/90/20
f 55/90/21 64/89/21 65/91/21 57/92/21
f 60/93/19 58/94/19 71/80/19 72/79/19
f 57/92/22 65/91/22 66/95/22 59/96/22
f 59/96/23 66/95/23 62/97/23 49/98/23
f 49/99/24 51/100/24 53/101/24 55/102/24 57/103/24 59/104/24
f 50/105/17 52/106/17 61/107/17 62/108/17
f 52/106/17 54/109/17 63/110/17 61/107/17
f 54/109/17 56/111/17 64/112/17 63/110/17
f 56/111/17 58/94/17 65/113/17 64/112/17
f 58/94/17 60/93/17 66/114/17 65/113/17
f 60/93/17 50/105/17 62/108/17 66/114/17
f 56/111/23 54/109/23 69/82/23 70/81/23
f 52/106/21 50/105/21 68/78/21 67/77/21
f 50/105/20 60/93/20 72/79/20 68/78/20
f 58/94/18 56/111/18 70/81/18 71/80/18
f 54/109/22 52/106/22 67/77/22 69/82/22
o Cylinder.003
v -1.464102 -0.500000 2.000000
v -1.800449 0.500000 2.000000
v -2.464102 -0.500000 3.732051
v -2.632276 0.500000 3.440765
v -4.464102 -0.500000 3.732051
v -4.295928 0.500000 3.440765
v -5.464102 -0.500000 2.000000
v -5.127754 0.500000 2.000000
v -4.464102 -0.500000 0.267949
v -4.295928 0.500000 0.559234
v -2.464102 -0.500000 0.267949
v -2.632275 0.500000 0.559234
v -2.464102 0.500000 3.732051
v -1.464102 0.500000 2.000000
v -4.464102 0.500000 3.732051
v -5.464102 0.500000 2.000000
v -4.464102 0.500000 0.267949
v -2.464102 0.500000 0.267949
v -2.632276 0.093141 3.440765
v -1.800449 0.093141 2.000000
v -4.295928 0.093141 3.440765
v -5.127754 0.093141 2.000000
v -4.295928 0.093141 0.559234
v -2.632275 0.093141 0.559234
vt 0.422892 0.349819
vt 0.250000 0.449638
vt 0.077108 0.349819
vt 0.077108 0.150181
vt 0.250000 0.050362
vt 0.422892 0.150181
vt 1.000000 0.500000
vt 1.000000 1.000000
vt 0.833333 1.000000
vt 0.833333 0.500000
vt 0.666667 1.000000
vt 0.666667 0.500000
vt 0.500000 1.000000
vt 0.500000 0.500000
vt 0.333333 1.000000
vt 0.333333 0.500000
vt 0.077108 0.349819
vt 0.077108 0.150181
vt 0.166667 1.000000
vt 0.166667 0.500000
vt -0.000000 1.000000
vt -0.000000 0.500000
vt 0.750000 0.490000
vt 0.957846 0.370000
vt 0.957846 0.130000
vt 0.750000 0.010000
vt 0.542154 0.130000
vt 0.542154 0.370000
vt 0.250000 0.449638
vt 0.422892 0.349819
vt 0.457846 0.370000
vt 0.250000 0.490000
vt 0.422892 0.150181
vt 0.457846 0.130000
vt 0.250000 0.050362
vt 0.250000 0.010000
vt 0.042154 0.130000
vt 0.042154 0.370000
vn 0.0000 1.0000 0.0000
vn 0.8660 0.0000 0.5000
vn 0.0000 0.0000 1.0000
vn -0.8660 0.0000 0.5000
vn -0.8660 0.0000 -0.5000
vn 0.0000 0.0000 -1.0000
vn 0.8660 0.0000 -0.5000
vn 0.0000 -1.0000 0.0000
g Cylinder.003_Cylinder.003_Light
usemtl Light
s off
f 91/115/25 92/116/25 96/117/25 95/118/25 94/119/25 93/120/25
g Cylinder.003_Cylinder.003_Black
usemtl Black
f 73/121/26 86/122/26 85/123/26 75/124/26
f 75/124/27 85/123/27 87/125/27 77/126/27
f 77/126/28 87/125/28 88/127/28 79/128/28
f 79/128/29 88/127/29 89/129/29 81/130/29
f 84/131/27 82/132/27 95/118/27 96/117/27
f 81/130/30 89/129/30 90/133/30 83/134/30
f 83/134/31 90/133/31 86/135/31 73/136/31
f 73/137/32 75/138/32 77/139/32 79/140/32 81/141/32 83/142/32
f 74/143/25 76/144/25 85/145/25 86/146/25
f 76/144/25 78/147/25 87/148/25 85/145/25
f 78/147/25 80/149/25 88/150/25 87/148/25
f 80/149/25 82/132/25 89/151/25 88/150/25
f 82/132/25 84/131/25 90/152/25 89/151/25
f 84/131/25 74/143/25 86/146/25 90/152/25
f 80/149/31 78/147/31 93/120/31 94/119/31
f 76/144/29 74/143/29 92/116/29 91/115/29
f 74/143/28 84/131/28 96/117/28 92/116/28
f 82/132/26 80/149/26 94/119/26 95/118/26
f 78/147/30 76/144/30 91/115/30 93/120/30
o Cylinder.004
v 4.463110 -0.500000 3.733237
v 4.295014 0.500000 3.441906
v 2.463110 -0.500000 3.732706
v 2.631361 0.500000 3.441465
v 1.463570 -0.500000 2.000389
v 1.799918 0.500000 2.000479
v 2.464030 -0.500000 0.268604
v 2.632127 0.500000 0.559934
v 4.464030 -0.500000 0.269135
v 4.295779 0.500000 0.560376
v 5.463570 -0.500000 2.001451
v 5.127223 0.500000 2.001362
v 2.463110 0.500000 3.732706
v 4.463110 0.500000 3.733237
v 1.463570 0.500000 2.000389
v 2.464030 0.500000 0.268604
v 4.464030 0.500000 0.269135
v 5.463570 0.500000 2.001451
v 2.631361 0.093141 3.441465
v 4.295014 0.093141 3.441906
v 1.799918 0.093141 2.000479
v 2.632127 0.093141 0.559934
v 4.295779 0.093141 0.560376
v 5.127223 0.093141 2.001362
vt 0.422892 0.349819
vt 0.250000 0.449638
vt 0.077108 0.349819
vt 0.077108 0.150181
vt 0.250000 0.050362
vt 0.422892 0.150181
vt 1.000000 0.500000
vt 1.000000 1.000000
vt 0.833333 1.000000
vt 0.833333 0.500000
vt 0.666667 1.000000
vt 0.666667 0.500000
vt 0.500000 1.000000
vt 0.500000 0.500000
vt 0.333333 1.000000
vt 0.333333 0.500000
vt 0.077108 0.349819
vt 0.077108 0.150181
vt 0.166667 1.000000
vt 0.166667 0.500000
vt -0.000000 1.000000
vt -0.000000 0.500000
vt 0.750000 0.490000
vt 0.957846 0.370000
vt 0.957846 0.130000
vt 0.750000 0.010000
vt 0.542154 0.130000
vt 0.542154 0.370000
vt 0.250000 0.449638
vt 0.422892 0.349819
vt 0.457846 0.370000
vt 0.250000 0.490000
vt 0.422892 0.150181
vt 0.457846 0.130000
vt 0.250000 0.050362
vt 0.250000 0.010000
vt 0.042154 0.130000
vt 0.042154 0.370000
vn 0.0000 1.0000 0.0000
vn -0.0003 0.0000 1.0000
vn -0.8662 0.0000 0.4998
vn -0.8659 0.0000 -0.5002
vn 0.0003 0.0000 -1.0000
vn 0.8662 0.0000 -0.4998
vn 0.8659 0.0000 0.5002
vn 0.0000 -1.0000 0.0000
g Cylinder.004_Cylinder.004_Light
usemtl Light
s off
f 115/153/33 116/154/33 120/155/33 119/156/33 118/157/33 117/158/33
g Cylinder.004_Cylinder.004_Black
usemtl Black
f 97/159/34 110/160/34 109/161/34 99/162/34
f 99/162/35 109/161/35 111/163/35 101/164/35
f 101/164/36 111/163/36 112/165/36 103/166/36
f 103/166/37 112/165/37 113/167/37 105/168/37
f 108/169/35 106/170/35 119/156/35 120/155/35
f 105/168/38 113/167/38 114/171/38 107/172/38
f 107/172/39 114/171/39 110/173/39 97/174/39
f 97/175/40 99/176/40 101/177/40 103/178/40 105/179/40 107/180/40
f 98/181/33 100/182/33 109/183/33 110/184/33
f 100/182/33 102/185/33 111/186/33 109/183/33
f 102/185/33 104/187/33 112/188/33 111/186/33
f 104/187/33 106/170/33 113/189/33 112/188/33
f 106/170/33 108/169/33 114/190/33 113/189/33
f 108/169/33 98/181/33 110/184/33 114/190/33
f 104/187/39 102/185/39 117/158/39 118/157/39
f 100/182/37 98/181/37 116/154/37 115/153/37
f 98/181/36 108/169/36 120/155/36 116/154/36
f 106/170/34 104/187/34 118/157/34 119/156/34
f 102/185/38 100/182/38 115/153/38 117/158/38
o Cylinder.005
v -2.464030 -0.500000 -0.268604
v -2.632127 0.500000 -0.559934
v -4.464030 -0.500000 -0.269135
v -4.295779 0.500000 -0.560376
v -5.463570 -0.500000 -2.001451
v -5.127223 0.500000 -2.001362
v -4.463110 -0.500000 -3.733237
v -4.295014 0.500000 -3.441906
v -2.463110 -0.500000 -3.732706
v -2.631361 0.500000 -3.441465
v -1.463570 -0.500000 -2.000389
v -1.799918 0.500000 -2.000479
v -4.464030 0.500000 -0.269135
v -2.464030 0.500000 -0.268604
v -5.463570 0.500000 -2.001451
v -4.463110 0.500000 -3.733237
v -2.463110 0.500000 -3.732706
v -1.463570 0.500000 -2.000389
v -4.295779 0.093141 -0.560376
v -2.632127 0.093141 -0.559934
v -5.127223 0.093141 -2.001362
v -4.295014 0.093141 -3.441906
v -2.631361 0.093141 -3.441465
v -1.799918 0.093141 -2.000479
vt 0.422892 0.349819
vt 0.250000 0.449638
vt 0.077108 0.349819
vt 0.077108 0.150181
vt 0.250000 0.050362
vt 0.422892 0.150181
vt 1.000000 0.500000
vt 1.000000 1.000000
vt 0.833333 1.000000
vt 0.833333 0.500000
vt 0.666667 1.000000
vt 0.666667 0.500000
vt 0.500000 1.000000
vt 0.500000 0.500000
vt 0.333333 1.000000
vt 0.333333 0.500000
vt 0.077108 0.349819
vt 0.077108 0.150181
vt 0.166667 1.000000
vt 0.166667 0.500000
vt -0.000000 1.000000
vt -0.000000 0.500000
vt 0.750000 0.490000
vt 0.957846 0.370000
vt 0.957846 0.130000
vt 0.750000 0.010000
vt 0.542154 0.130000
vt 0.542154 0.370000
vt 0.250000 0.449638
vt 0.422892 0.349819
vt 0.457846 0.370000
vt 0.250000 0.490000
vt 0.422892 0.150181
vt 0.457846 0.130000
vt 0.250000 0.050362
vt 0.250000 0.010000
vt 0.042154 0.130000
vt 0.042154 0.370000
vn 0.0000 1.0000 0.0000
vn -0.0003 0.0000 1.0000
vn -0.8662 0.0000 0.4998
vn -0.8659 0.0000 -0.5002
vn 0.0003 0.0000 -1.0000
vn 0.8662 0.0000 -0.4998
vn 0.8659 0.0000 0.5002
vn 0.0000 -1.0000 0.0000
g Cylinder.005_Cylinder.005_Light
usemtl Light
s off
f 139/191/41 140/192/41 144/193/41 143/194/41 142/195/41 141/196/41
g Cylinder.005_Cylinder.005_Black
usemtl Black
f 121/197/42 134/198/42 133/199/42 123/200/42
f 123/200/43 133/199/43 135/201/43 125/202/43
f 125/202/44 135/201/44 136/203/44 127/204/44
f 127/204/45 136/203/45 137/205/45 129/206/45
f 132/207/43 130/208/43 143/194/43 144/193/43
f 129/206/46 137/205/46 138/209/46 131/210/46
f 131/210/47 138/209/47 134/211/47 121/212/47
f 121/213/48 123/214/48 125/215/48 127/216/48 129/217/48 131/218/48
f 122/219/41 124/220/41 133/221/41 134/222/41
f 124/220/41 126/223/41 135/224/41 133/221/41
f 126/223/41 128/225/41 136/226/41 135/224/41
f 128/225/41 130/208/41 137/227/41 136/226/41
f 130/208/41 132/207/41 138/228/41 137/227/41
f 132/207/41 122/219/41 134/222/41 138/228/41
f 128/225/47 126/223/47 141/196/47 142/195/47
f 124/220/45 122/219/45 140/192/45 139/191/45
f 122/219/44 132/207/44 144/193/44 140/192/44
f 130/208/42 128/225/42 142/195/42 143/194/42
f 126/223/46 124/220/46 139/191/46 141/196/46
