# Blender v3.6.1 OBJ File: 'generatorComponent1.blend'
# www.blender.org
mtllib generatorComponent1.mtl
o Cube
v -2.500000 -3.000000 2.500000
v -2.500000 -2.500000 3.000000
v -3.000000 -2.500000 2.500000
v -2.500000 -2.961940 2.691342
v -2.500000 -2.853553 2.853553
v -2.691342 -2.961940 2.500000
v -2.696137 -2.916006 2.696137
v -2.686185 -2.828127 2.828127
v -2.788675 -2.788675 2.788675
v -2.691342 -2.500000 2.961940
v -2.853553 -2.500000 2.853553
v -2.500000 -2.691342 2.961940
v -2.696137 -2.696137 2.916006
v -2.828127 -2.686185 2.828127
v -2.961940 -2.691342 2.500000
v -2.853553 -2.853553 2.500000
v -2.961940 -2.500000 2.691342
v -2.916006 -2.696137 2.696137
v -2.828127 -2.828127 2.686185
v -2.500000 2.500000 3.000000
v -2.500000 3.000000 2.500000
v -3.000000 2.500000 2.500000
v -2.500000 2.691342 2.961940
v -2.500000 2.853553 2.853553
v -2.691342 2.500000 2.961940
v -2.696137 2.696137 2.916006
v -2.686185 2.828127 2.828127
v -2.788675 2.788675 2.788675
v -2.691342 2.961940 2.500000
v -2.853553 2.853553 2.500000
v -2.500000 2.961940 2.691342
v -2.696137 2.916006 2.696137
v -2.828127 2.828127 2.686185
v -2.961940 2.500000 2.691342
v -2.853553 2.500000 2.853553
v -2.961940 2.691342 2.500000
v -2.916006 2.696137 2.696137
v -2.828127 2.686185 2.828127
v -2.500000 -3.000000 -2.500000
v -3.000000 -2.500000 -2.500000
v -2.500000 -2.500000 -3.000000
v -2.691342 -2.961940 -2.500000
v -2.853553 -2.853553 -2.500000
v -2.500000 -2.961940 -2.691342
v -2.696137 -2.916006 -2.696137
v -2.828127 -2.828127 -2.686185
v -2.788675 -2.788675 -2.788675
v -2.961940 -2.500000 -2.691342
v -2.853553 -2.500000 -2.853553
v -2.961940 -2.691342 -2.500000
v -2.916006 -2.696137 -2.696137
v -2.828127 -2.686185 -2.828127
v -2.500000 -2.691342 -2.961940
v -2.500000 -2.853553 -2.853553
v -2.691342 -2.500000 -2.961940
v -2.696137 -2.696137 -2.916006
v -2.686185 -2.828127 -2.828127
v -2.500000 3.000000 -2.500000
v -2.500000 2.500000 -3.000000
v -3.000000 2.500000 -2.500000
v -2.500000 2.961940 -2.691342
v -2.500000 2.853553 -2.853553
v -2.691342 2.961940 -2.500000
v -2.696137 2.916006 -2.696137
v -2.686185 2.828127 -2.828127
v -2.788675 2.788675 -2.788675
v -2.691342 2.500000 -2.961940
v -2.853553 2.500000 -2.853553
v -2.500000 2.691342 -2.961940
v -2.696137 2.696137 -2.916006
v -2.828127 2.686185 -2.828127
v -2.961940 2.691342 -2.500000
v -2.853553 2.853553 -2.500000
v -2.961940 2.500000 -2.691342
v -2.916006 2.696137 -2.696137
v -2.828127 2.828127 -2.686185
v 2.500000 -3.000000 2.500000
v 3.000000 -2.500000 2.500000
v 2.500000 -2.500000 3.000000
v 2.691342 -2.961940 2.500000
v 2.853553 -2.853553 2.500000
v 2.500000 -2.961940 2.691342
v 2.696137 -2.916006 2.696137
v 2.828127 -2.828127 2.686185
v 2.788675 -2.788675 2.788675
v 2.961940 -2.500000 2.691342
v 2.853553 -2.500000 2.853553
v 2.961940 -2.691342 2.500000
v 2.916006 -2.696137 2.696137
v 2.828127 -2.686185 2.828127
v 2.500000 -2.691342 2.961940
v 2.500000 -2.853553 2.853553
v 2.691342 -2.500000 2.961940
v 2.696137 -2.696137 2.916006
v 2.686185 -2.828127 2.828127
v 2.500000 3.000000 2.500000
v 2.500000 2.500000 3.000000
v 3.000000 2.500000 2.500000
v 2.500000 2.961940 2.691342
v 2.500000 2.853553 2.853553
v 2.691342 2.961940 2.500000
v 2.696137 2.916006 2.696137
v 2.686185 2.828127 2.828127
v 2.788675 2.788675 2.788675
v 2.691342 2.500000 2.961940
v 2.853553 2.500000 2.853553
v 2.500000 2.691342 2.961940
v 2.696137 2.696137 2.916006
v 2.828127 2.686185 2.828127
v 2.961940 2.691342 2.500000
v 2.853553 2.853553 2.500000
v 2.961940 2.500000 2.691342
v 2.916006 2.696137 2.696137
v 2.828127 2.828127 2.686185
v 2.500000 -3.000000 -2.500000
v 2.500000 -2.500000 -3.000000
v 3.000000 -2.500000 -2.500000
v 2.500000 -2.961940 -2.691342
v 2.500000 -2.853553 -2.853553
v 2.691342 -2.961940 -2.500000
v 2.696137 -2.916006 -2.696137
v 2.686185 -2.828127 -2.828127
v 2.788675 -2.788675 -2.788675
v 2.691342 -2.500000 -2.961940
v 2.853553 -2.500000 -2.853553
v 2.500000 -2.691342 -2.961940
v 2.696137 -2.696137 -2.916006
v 2.828127 -2.686185 -2.828127
v 2.961940 -2.691342 -2.500000
v 2.853553 -2.853553 -2.500000
v 2.961940 -2.500000 -2.691342
v 2.916006 -2.696137 -2.696137
v 2.828127 -2.828127 -2.686185
v 2.500000 3.000000 -2.500000
v 3.000000 2.500000 -2.500000
v 2.500000 2.500000 -3.000000
v 2.691342 2.961940 -2.500000
v 2.853553 2.853553 -2.500000
v 2.500000 2.961940 -2.691342
v 2.696137 2.916006 -2.696137
v 2.828127 2.828127 -2.686185
v 2.788675 2.788675 -2.788675
v 2.961940 2.500000 -2.691342
v 2.853553 2.500000 -2.853553
v 2.961940 2.691342 -2.500000
v 2.916006 2.696137 -2.696137
v 2.828127 2.686185 -2.828127
v 2.500000 2.691342 -2.961940
v 2.500000 2.853553 -2.853553
v 2.691342 2.500000 -2.961940
v 2.696137 2.696137 -2.916006
v 2.686185 2.828127 -2.828127
v -2.500000 -2.666097 -2.500000
v -2.500000 -2.666097 2.500000
v -2.666097 -2.500000 2.500000
v -2.666097 -2.500000 -2.500000
v -2.500000 -2.500000 2.666097
v -2.500000 2.500000 2.666097
v -2.666097 2.500000 2.500000
v -2.500000 2.666097 2.500000
v -2.500000 2.666097 -2.500000
v -2.666097 2.500000 -2.500000
v -2.500000 2.500000 -2.666097
v -2.500000 -2.500000 -2.666097
v 2.500000 -2.666097 -2.500000
v 2.500000 -2.500000 -2.666097
v 2.500000 2.666097 -2.500000
v 2.500000 2.500000 -2.666097
v 2.666097 2.500000 -2.500000
v 2.666097 -2.500000 -2.500000
v 2.500000 -2.666097 2.500000
v 2.666097 -2.500000 2.500000
v 2.500000 2.666097 2.500000
v 2.666097 2.500000 2.500000
v 2.500000 2.500000 2.666097
v 2.500000 -2.500000 2.666097
vt 0.395833 0.770833
vt 0.604167 0.770833
vt 0.604167 0.979167
vt 0.395833 0.979167
vt 0.395833 0.520833
vt 0.604167 0.520833
vt 0.604167 0.729167
vt 0.395833 0.729167
vt 0.645833 0.520833
vt 0.854167 0.520833
vt 0.854167 0.729167
vt 0.645833 0.729167
vt 0.395833 0.020833
vt 0.604167 0.020833
vt 0.604167 0.229167
vt 0.395833 0.229167
vt 0.395833 0.270833
vt 0.604167 0.270833
vt 0.604167 0.479167
vt 0.395833 0.479167
vt 0.145833 0.520833
vt 0.354167 0.520833
vt 0.354167 0.729167
vt 0.145833 0.729167
vt 0.854167 0.520833
vt 0.854167 0.729167
vt 0.395833 0.979167
vt 0.395833 0.770833
vt 0.395833 0.729167
vt 0.395833 0.520833
vt 0.395833 0.479167
vt 0.395833 0.270833
vt 0.395833 0.020833
vt 0.604167 0.020833
vt 0.145833 0.729167
vt 0.145833 0.737139
vt 0.137661 0.737339
vt 0.137861 0.729167
vt 0.145833 0.750000
vt 0.138076 0.750000
vt 0.125000 0.736924
vt 0.125000 0.729167
vt 0.133805 0.750000
vt 0.395833 0.987139
vt 0.387661 0.987339
vt 0.387861 0.979167
vt 0.395833 1.000000
vt 0.388076 1.000000
vt 0.375000 0.986924
vt 0.375000 0.979167
vt 0.383805 1.000000
vt 0.387861 0.020833
vt 0.387661 0.012661
vt 0.395833 0.012861
vt 0.375000 0.020833
vt 0.375000 0.013076
vt 0.388076 0.000000
vt 0.395833 0.000000
vt 0.375000 0.008805
vt 0.604167 0.979167
vt 0.612139 0.979167
vt 0.612339 0.987339
vt 0.604167 0.987139
vt 0.625000 0.979167
vt 0.625000 0.986924
vt 0.611924 1.000000
vt 0.604167 1.000000
vt 0.625000 0.991195
vt 0.862139 0.729167
vt 0.862339 0.737339
vt 0.854167 0.737139
vt 0.875000 0.729167
vt 0.875000 0.736924
vt 0.861924 0.750000
vt 0.854167 0.750000
vt 0.875000 0.741195
vt 0.604167 0.012861
vt 0.612339 0.012661
vt 0.612139 0.020833
vt 0.604167 0.000000
vt 0.611924 0.000000
vt 0.625000 0.013076
vt 0.625000 0.020833
vt 0.616195 0.000000
vt 0.145833 0.520833
vt 0.137861 0.520833
vt 0.137661 0.512661
vt 0.145833 0.512861
vt 0.125000 0.520833
vt 0.125000 0.513076
vt 0.138076 0.500000
vt 0.145833 0.500000
vt 0.125000 0.508805
vt 0.395833 0.229167
vt 0.395833 0.237139
vt 0.387661 0.237339
vt 0.387861 0.229167
vt 0.395833 0.250000
vt 0.388076 0.250000
vt 0.375000 0.236924
vt 0.375000 0.229167
vt 0.383805 0.250000
vt 0.387861 0.270833
vt 0.387661 0.262661
vt 0.395833 0.262861
vt 0.375000 0.270833
vt 0.375000 0.263076
vt 0.375000 0.258805
vt 0.854167 0.512861
vt 0.862339 0.512661
vt 0.862139 0.520833
vt 0.854167 0.500000
vt 0.861924 0.500000
vt 0.875000 0.513076
vt 0.875000 0.520833
vt 0.866195 0.500000
vt 0.604167 0.270833
vt 0.604167 0.262861
vt 0.612339 0.262661
vt 0.612139 0.270833
vt 0.604167 0.250000
vt 0.611924 0.250000
vt 0.625000 0.263076
vt 0.625000 0.270833
vt 0.616195 0.250000
vt 0.604167 0.229167
vt 0.612139 0.229167
vt 0.612339 0.237339
vt 0.604167 0.237139
vt 0.625000 0.229167
vt 0.625000 0.236924
vt 0.625000 0.241195
vt 0.354167 0.729167
vt 0.362139 0.729167
vt 0.362339 0.737339
vt 0.354167 0.737139
vt 0.375000 0.729167
vt 0.375000 0.736924
vt 0.361924 0.750000
vt 0.354167 0.750000
vt 0.377935 0.750000
vt 0.395833 0.737139
vt 0.387661 0.737339
vt 0.387861 0.729167
vt 0.395833 0.750000
vt 0.388076 0.750000
vt 0.387861 0.770833
vt 0.387661 0.762661
vt 0.395833 0.762861
vt 0.375000 0.770833
vt 0.375000 0.763076
vt 0.645833 0.729167
vt 0.645833 0.737139
vt 0.637661 0.737339
vt 0.637861 0.729167
vt 0.645833 0.750000
vt 0.638076 0.750000
vt 0.625000 0.736924
vt 0.625000 0.729167
vt 0.625000 0.747065
vt 0.604167 0.770833
vt 0.604167 0.762861
vt 0.612339 0.762661
vt 0.612139 0.770833
vt 0.604167 0.750000
vt 0.611924 0.750000
vt 0.625000 0.763076
vt 0.625000 0.770833
vt 0.604167 0.729167
vt 0.612139 0.729167
vt 0.612339 0.737339
vt 0.604167 0.737139
vt 0.354167 0.520833
vt 0.354167 0.512861
vt 0.362339 0.512661
vt 0.362139 0.520833
vt 0.354167 0.500000
vt 0.361924 0.500000
vt 0.375000 0.513076
vt 0.375000 0.520833
vt 0.375000 0.502935
vt 0.395833 0.487139
vt 0.387661 0.487339
vt 0.387861 0.479167
vt 0.395833 0.500000
vt 0.388076 0.500000
vt 0.375000 0.486924
vt 0.375000 0.479167
vt 0.387861 0.520833
vt 0.387661 0.512661
vt 0.395833 0.512861
vt 0.645833 0.520833
vt 0.637861 0.520833
vt 0.637661 0.512661
vt 0.645833 0.512861
vt 0.625000 0.520833
vt 0.625000 0.513076
vt 0.638076 0.500000
vt 0.645833 0.500000
vt 0.622065 0.500000
vt 0.604167 0.520833
vt 0.604167 0.512861
vt 0.612339 0.512661
vt 0.612139 0.520833
vt 0.604167 0.500000
vt 0.611924 0.500000
vt 0.604167 0.479167
vt 0.612139 0.479167
vt 0.612339 0.487339
vt 0.604167 0.487139
vt 0.625000 0.479167
vt 0.625000 0.486924
vn 0.0000 0.0000 1.0000
vn 1.0000 0.0000 0.0000
vn 0.0000 1.0000 0.0000
vn -1.0000 0.0000 0.0000
vn 0.0000 0.0000 -1.0000
vn 0.0000 -1.0000 0.0000
vn -0.2049 -0.9571 0.2049
vn -0.1818 -0.8152 0.5500
vn -0.5500 -0.8152 0.1818
vn -0.4931 -0.7167 0.4931
vn -0.2049 -0.2049 0.9571
vn -0.5500 -0.1818 0.8152
vn -0.1818 -0.5500 0.8152
vn -0.4931 -0.4931 0.7167
vn -0.9571 -0.2049 0.2049
vn -0.8152 -0.5500 0.1818
vn -0.8152 -0.1818 0.5500
vn -0.7167 -0.4931 0.4931
vn -0.2049 0.2049 0.9571
vn -0.1818 0.5500 0.8152
vn -0.5500 0.1818 0.8152
vn -0.4931 0.4931 0.7167
vn -0.2049 0.9571 0.2049
vn -0.5500 0.8152 0.1818
vn -0.1818 0.8152 0.5500
vn -0.4931 0.7167 0.4931
vn -0.9571 0.2049 0.2049
vn -0.8152 0.1818 0.5500
vn -0.8152 0.5500 0.1818
vn -0.7167 0.4931 0.4931
vn -0.2049 -0.9571 -0.2049
vn -0.5500 -0.8152 -0.1818
vn -0.1818 -0.8152 -0.5500
vn -0.4931 -0.7167 -0.4931
vn -0.9571 -0.2049 -0.2049
vn -0.8152 -0.1818 -0.5500
vn -0.8152 -0.5500 -0.1818
vn -0.7167 -0.4931 -0.4931
vn -0.2049 -0.2049 -0.9571
vn -0.1818 -0.5500 -0.8152
vn -0.5500 -0.1818 -0.8152
vn -0.4931 -0.4931 -0.7167
vn -0.2049 0.9571 -0.2049
vn -0.1818 0.8152 -0.5500
vn -0.5500 0.8152 -0.1818
vn -0.4931 0.7167 -0.4931
vn -0.2049 0.2049 -0.9571
vn -0.5500 0.1818 -0.8152
vn -0.1818 0.5500 -0.8152
vn -0.4931 0.4931 -0.7167
vn -0.9571 0.2049 -0.2049
vn -0.8152 0.5500 -0.1818
vn -0.8152 0.1818 -0.5500
vn -0.7167 0.4931 -0.4931
vn 0.2049 -0.9571 0.2049
vn 0.5500 -0.8152 0.1818
vn 0.1818 -0.8152 0.5500
vn 0.4931 -0.7167 0.4931
vn 0.9571 -0.2049 0.2049
vn 0.8152 -0.1818 0.5500
vn 0.8152 -0.5500 0.1818
vn 0.7167 -0.4931 0.4931
vn 0.2049 -0.2049 0.9571
vn 0.1818 -0.5500 0.8152
vn 0.5500 -0.1818 0.8152
vn 0.4931 -0.4931 0.7167
vn 0.2049 0.9571 0.2049
vn 0.1818 0.8152 0.5500
vn 0.5500 0.8152 0.1818
vn 0.4931 0.7167 0.4931
vn 0.2049 0.2049 0.9571
vn 0.5500 0.1818 0.8152
vn 0.1818 0.5500 0.8152
vn 0.4931 0.4931 0.7167
vn 0.9571 0.2049 0.2049
vn 0.8152 0.5500 0.1818
vn 0.8152 0.1818 0.5500
vn 0.7167 0.4931 0.4931
vn 0.2049 -0.9571 -0.2049
vn 0.1818 -0.8152 -0.5500
vn 0.5500 -0.8152 -0.1818
vn 0.4931 -0.7167 -0.4931
vn 0.2049 -0.2049 -0.9571
vn 0.5500 -0.1818 -0.8152
vn 0.1818 -0.5500 -0.8152
vn 0.4931 -0.4931 -0.7167
vn 0.9571 -0.2049 -0.2049
vn 0.8152 -0.5500 -0.1818
vn 0.8152 -0.1818 -0.5500
vn 0.7167 -0.4931 -0.4931
vn 0.2049 0.9571 -0.2049
vn 0.5500 0.8152 -0.1818
vn 0.1818 0.8152 -0.5500
vn 0.4931 0.7167 -0.4931
vn 0.9571 0.2049 -0.2049
vn 0.8152 0.1818 -0.5500
vn 0.8152 0.5500 -0.1818
vn 0.7167 0.4931 -0.4931
vn 0.2049 0.2049 -0.9571
vn 0.1818 0.5500 -0.8152
vn 0.5500 0.1818 -0.8152
vn 0.4931 0.4931 -0.7167
vn -0.1951 -0.9808 0.0000
vn -0.5556 -0.8315 0.0000
vn -0.8315 -0.5556 0.0000
vn -0.9808 -0.1951 0.0000
vn -0.1951 0.0000 0.9808
vn -0.5556 0.0000 0.8315
vn -0.8315 0.0000 0.5556
vn -0.9808 0.0000 0.1951
vn -0.1951 0.9808 0.0000
vn -0.5556 0.8315 0.0000
vn -0.8315 0.5556 0.0000
vn -0.9808 0.1951 0.0000
vn -0.1951 0.0000 -0.9808
vn -0.5556 0.0000 -0.8315
vn -0.8315 0.0000 -0.5556
vn -0.9808 0.0000 -0.1951
vn 0.0000 -0.9808 -0.1951
vn 0.0000 -0.8315 -0.5556
vn 0.0000 -0.5556 -0.8315
vn 0.0000 -0.1951 -0.9808
vn 0.0000 0.9808 -0.1951
vn 0.0000 0.8315 -0.5556
vn 0.0000 0.5556 -0.8315
vn 0.0000 0.1951 -0.9808
vn 0.9808 0.0000 -0.1951
vn 0.8315 0.0000 -0.5556
vn 0.5556 0.0000 -0.8315
vn 0.1951 0.0000 -0.9808
vn 0.1951 -0.9808 0.0000
vn 0.5556 -0.8315 0.0000
vn 0.8315 -0.5556 0.0000
vn 0.9808 -0.1951 0.0000
vn 0.1951 0.9808 0.0000
vn 0.5556 0.8315 0.0000
vn 0.8315 0.5556 0.0000
vn 0.9808 0.1951 0.0000
vn 0.1951 0.0000 0.9808
vn 0.5556 0.0000 0.8315
vn 0.8315 0.0000 0.5556
vn 0.9808 0.0000 0.1951
vn 0.0000 -0.9808 0.1951
vn 0.0000 -0.8315 0.5556
vn 0.0000 -0.5556 0.8315
vn 0.0000 -0.1951 0.9808
vn 0.0000 0.9808 0.1951
vn 0.0000 0.8315 0.5556
vn 0.0000 0.5556 0.8315
vn 0.0000 0.1951 0.9808
usemtl Glass
s off
f 176/1/1 175/2/1 158/3/1 157/4/1
f 170/5/2 169/6/2 174/7/2 172/8/2
f 167/9/3 161/10/3 160/11/3 173/12/3
f 155/13/4 159/14/4 162/15/4 156/16/4
f 164/17/5 163/18/5 168/19/5 166/20/5
f 153/21/6 165/22/6 171/23/6 154/24/6
usemtl Iron
f 58/25/2 21/26/2 160/11/2 161/10/2
f 2/27/3 79/28/3 176/1/3 157/4/3
f 78/29/3 117/30/3 170/5/3 172/8/3
f 116/31/3 41/32/3 164/17/3 166/20/3
f 3/33/5 22/34/5 159/14/5 155/13/5
f 1/35/7 4/36/7 7/37/7 6/38/7
f 4/36/8 5/39/8 8/40/8 7/37/8
f 6/38/9 7/37/9 19/41/9 16/42/9
f 7/37/10 8/40/10 9/43/10 19/41/10
f 2/27/11 10/44/11 13/45/11 12/46/11
f 10/44/12 11/47/12 14/48/12 13/45/12
f 12/46/13 13/45/13 8/49/13 5/50/13
f 13/45/14 14/48/14 9/51/14 8/49/14
f 3/33/15 15/52/15 18/53/15 17/54/15
f 15/52/16 16/55/16 19/56/16 18/53/16
f 17/54/17 18/53/17 14/57/17 11/58/17
f 18/53/18 19/56/18 9/59/18 14/57/18
f 20/60/19 23/61/19 26/62/19 25/63/19
f 23/61/20 24/64/20 27/65/20 26/62/20
f 25/63/21 26/62/21 38/66/21 35/67/21
f 26/62/22 27/65/22 28/68/22 38/66/22
f 21/26/23 29/69/23 32/70/23 31/71/23
f 29/69/24 30/72/24 33/73/24 32/70/24
f 31/71/25 32/70/25 27/74/25 24/75/25
f 32/70/26 33/73/26 28/76/26 27/74/26
f 22/34/27 34/77/27 37/78/27 36/79/27
f 34/77/28 35/80/28 38/81/28 37/78/28
f 36/79/29 37/78/29 33/82/29 30/83/29
f 37/78/30 38/81/30 28/84/30 33/82/30
f 39/85/31 42/86/31 45/87/31 44/88/31
f 42/86/32 43/89/32 46/90/32 45/87/32
f 44/88/33 45/87/33 57/91/33 54/92/33
f 45/87/34 46/90/34 47/93/34 57/91/34
f 40/94/35 48/95/35 51/96/35 50/97/35
f 48/95/36 49/98/36 52/99/36 51/96/36
f 50/97/37 51/96/37 46/100/37 43/101/37
f 51/96/38 52/99/38 47/102/38 46/100/38
f 41/32/39 53/103/39 56/104/39 55/105/39
f 53/103/40 54/106/40 57/107/40 56/104/40
f 55/105/41 56/104/41 52/99/41 49/98/41
f 56/104/42 57/107/42 47/108/42 52/99/42
f 58/25/43 61/109/43 64/110/43 63/111/43
f 61/109/44 62/112/44 65/113/44 64/110/44
f 63/111/45 64/110/45 76/114/45 73/115/45
f 64/110/46 65/113/46 66/116/46 76/114/46
f 59/117/47 67/118/47 70/119/47 69/120/47
f 67/118/48 68/121/48 71/122/48 70/119/48
f 69/120/49 70/119/49 65/123/49 62/124/49
f 70/119/50 71/122/50 66/125/50 65/123/50
f 60/126/51 72/127/51 75/128/51 74/129/51
f 72/127/52 73/130/52 76/131/52 75/128/52
f 74/129/53 75/128/53 71/122/53 68/121/53
f 75/128/54 76/131/54 66/132/54 71/122/54
f 77/133/55 80/134/55 83/135/55 82/136/55
f 80/134/56 81/137/56 84/138/56 83/135/56
f 82/136/57 83/135/57 95/139/57 92/140/57
f 83/135/58 84/138/58 85/141/58 95/139/58
f 78/29/59 86/142/59 89/143/59 88/144/59
f 86/142/60 87/145/60 90/146/60 89/143/60
f 88/144/61 89/143/61 84/138/61 81/137/61
f 89/143/62 90/146/62 85/141/62 84/138/62
f 79/28/63 91/147/63 94/148/63 93/149/63
f 91/147/64 92/150/64 95/151/64 94/148/64
f 93/149/65 94/148/65 90/146/65 87/145/65
f 94/148/66 95/151/66 85/141/66 90/146/66
f 96/152/67 99/153/67 102/154/67 101/155/67
f 99/153/68 100/156/68 103/157/68 102/154/68
f 101/155/69 102/154/69 114/158/69 111/159/69
f 102/154/70 103/157/70 104/160/70 114/158/70
f 97/161/71 105/162/71 108/163/71 107/164/71
f 105/162/72 106/165/72 109/166/72 108/163/72
f 107/164/73 108/163/73 103/167/73 100/168/73
f 108/163/74 109/166/74 104/160/74 103/167/74
f 98/169/75 110/170/75 113/171/75 112/172/75
f 110/170/76 111/159/76 114/158/76 113/171/76
f 112/172/77 113/171/77 109/166/77 106/165/77
f 113/171/78 114/158/78 104/160/78 109/166/78
f 115/173/79 118/174/79 121/175/79 120/176/79
f 118/174/80 119/177/80 122/178/80 121/175/80
f 120/176/81 121/175/81 133/179/81 130/180/81
f 121/175/82 122/178/82 123/181/82 133/179/82
f 116/31/83 124/182/83 127/183/83 126/184/83
f 124/182/84 125/185/84 128/186/84 127/183/84
f 126/184/85 127/183/85 122/187/85 119/188/85
f 127/183/86 128/186/86 123/181/86 122/187/86
f 117/30/87 129/189/87 132/190/87 131/191/87
f 129/189/88 130/180/88 133/179/88 132/190/88
f 131/191/89 132/190/89 128/186/89 125/185/89
f 132/190/90 133/179/90 123/181/90 128/186/90
f 134/192/91 137/193/91 140/194/91 139/195/91
f 137/193/92 138/196/92 141/197/92 140/194/92
f 139/195/93 140/194/93 152/198/93 149/199/93
f 140/194/94 141/197/94 142/200/94 152/198/94
f 135/201/95 143/202/95 146/203/95 145/204/95
f 143/202/96 144/205/96 147/206/96 146/203/96
f 145/204/97 146/203/97 141/197/97 138/196/97
f 146/203/98 147/206/98 142/200/98 141/197/98
f 136/207/99 148/208/99 151/209/99 150/210/99
f 148/208/100 149/211/100 152/212/100 151/209/100
f 150/210/101 151/209/101 147/206/101 144/205/101
f 151/209/102 152/212/102 142/200/102 147/206/102
f 39/85/103 1/35/103 6/38/103 42/86/103
f 42/86/104 6/38/104 16/42/104 43/89/104
f 43/101/105 16/55/105 15/52/105 50/97/105
f 50/97/106 15/52/106 3/33/106 40/94/106
f 2/27/107 20/60/107 25/63/107 10/44/107
f 10/44/108 25/63/108 35/67/108 11/47/108
f 11/58/109 35/80/109 34/77/109 17/54/109
f 17/54/110 34/77/110 22/34/110 3/33/110
f 21/26/111 58/25/111 63/111/111 29/69/111
f 29/69/112 63/111/112 73/115/112 30/72/112
f 30/83/113 73/130/113 72/127/113 36/79/113
f 36/79/114 72/127/114 60/126/114 22/34/114
f 59/117/115 41/32/115 55/105/115 67/118/115
f 67/118/116 55/105/116 49/98/116 68/121/116
f 68/121/117 49/98/117 48/95/117 74/129/117
f 74/129/118 48/95/118 40/94/118 60/126/118
f 115/173/119 39/85/119 44/88/119 118/174/119
f 118/174/120 44/88/120 54/92/120 119/177/120
f 119/188/121 54/106/121 53/103/121 126/184/121
f 126/184/122 53/103/122 41/32/122 116/31/122
f 58/25/123 134/192/123 139/195/123 61/109/123
f 61/109/124 139/195/124 149/199/124 62/112/124
f 62/124/125 149/211/125 148/208/125 69/120/125
f 69/120/126 148/208/126 136/207/126 59/117/126
f 135/201/127 117/30/127 131/191/127 143/202/127
f 143/202/128 131/191/128 125/185/128 144/205/128
f 144/205/129 125/185/129 124/182/129 150/210/129
f 150/210/130 124/182/130 116/31/130 136/207/130
f 77/133/131 115/173/131 120/176/131 80/134/131
f 80/134/132 120/176/132 130/180/132 81/137/132
f 81/137/133 130/180/133 129/189/133 88/144/133
f 88/144/134 129/189/134 117/30/134 78/29/134
f 134/192/135 96/152/135 101/155/135 137/193/135
f 137/193/136 101/155/136 111/159/136 138/196/136
f 138/196/137 111/159/137 110/170/137 145/204/137
f 145/204/138 110/170/138 98/169/138 135/201/138
f 97/161/139 79/28/139 93/149/139 105/162/139
f 105/162/140 93/149/140 87/145/140 106/165/140
f 106/165/141 87/145/141 86/142/141 112/172/141
f 112/172/142 86/142/142 78/29/142 98/169/142
f 1/35/143 77/133/143 82/136/143 4/36/143
f 4/36/144 82/136/144 92/140/144 5/39/144
f 5/50/145 92/150/145 91/147/145 12/46/145
f 12/46/146 91/147/146 79/28/146 2/27/146
f 96/152/147 21/26/147 31/71/147 99/153/147
f 99/153/148 31/71/148 24/75/148 100/156/148
f 100/168/149 24/64/149 23/61/149 107/164/149
f 107/164/150 23/61/150 20/60/150 97/161/150
f 79/28/4 97/161/4 175/2/4 176/1/4
f 134/192/1 58/25/1 161/10/1 167/9/1
f 96/152/4 134/192/4 167/9/4 173/12/4
f 21/26/5 96/152/5 173/12/5 160/11/5
f 40/94/3 3/33/3 155/13/3 156/16/3
f 60/126/1 40/94/1 156/16/1 162/15/1
f 136/207/4 116/31/4 166/20/4 168/19/4
f 98/169/5 78/29/5 172/8/5 174/7/5
f 20/60/2 2/27/2 157/4/2 158/3/2
f 39/85/1 115/173/1 165/22/1 153/21/1
f 115/173/4 77/133/4 171/23/4 165/22/4
f 77/133/5 1/35/5 154/24/5 171/23/5
f 22/34/6 60/126/6 162/15/6 159/14/6
f 59/117/6 136/207/6 168/19/6 163/18/6
f 135/201/6 98/169/6 174/7/6 169/6/6
f 97/161/6 20/60/6 158/3/6 175/2/6
f 1/35/2 39/85/2 153/21/2 154/24/2
f 41/32/2 59/117/2 163/18/2 164/17/2
f 117/30/1 135/201/1 169/6/1 170/5/1
o Cube.002_Cube.001
v -1.650000 -2.200000 1.650000
v -1.650000 -1.650000 2.200000
v -2.200000 -1.650000 1.650000
v -1.650000 -2.158134 1.860476
v -1.650000 -2.038909 2.038909
v -1.860476 -2.158134 1.650000
v -1.865751 -2.107606 1.865751
v -1.854804 -2.010940 2.010940
v -1.967543 -1.967543 1.967543
v -1.860476 -1.650000 2.158134
v -2.038909 -1.650000 2.038909
v -1.650000 -1.860476 2.158134
v -1.865751 -1.865751 2.107606
v -2.010940 -1.854804 2.010940
v -2.158134 -1.860476 1.650000
v -2.038909 -2.038909 1.650000
v -2.158134 -1.650000 1.860476
v -2.107606 -1.865751 1.865751
v -2.010940 -2.010940 1.854804
v -1.650000 1.650000 2.200000
v -1.650000 2.200000 1.650000
v -2.200000 1.650000 1.650000
v -1.650000 1.860476 2.158134
v -1.650000 2.038909 2.038909
v -1.860476 1.650000 2.158134
v -1.865751 1.865751 2.107606
v -1.854804 2.010940 2.010940
v -1.967543 1.967543 1.967543
v -1.860476 2.158134 1.650000
v -2.038909 2.038909 1.650000
v -1.650000 2.158134 1.860476
v -1.865751 2.107606 1.865751
v -2.010940 2.010940 1.854804
v -2.158134 1.650000 1.860476
v -2.038909 1.650000 2.038909
v -2.158134 1.860476 1.650000
v -2.107606 1.865751 1.865751
v -2.010940 1.854804 2.010940
v -1.650000 -2.200000 -1.650000
v -2.200000 -1.650000 -1.650000
v -1.650000 -1.650000 -2.200000
v -1.860476 -2.158134 -1.650000
v -2.038909 -2.038909 -1.650000
v -1.650000 -2.158134 -1.860476
v -1.865751 -2.107606 -1.865751
v -2.010940 -2.010940 -1.854804
v -1.967543 -1.967543 -1.967543
v -2.158134 -1.650000 -1.860476
v -2.038909 -1.650000 -2.038909
v -2.158134 -1.860476 -1.650000
v -2.107606 -1.865751 -1.865751
v -2.010940 -1.854804 -2.010940
v -1.650000 -1.860476 -2.158134
v -1.650000 -2.038909 -2.038909
v -1.860476 -1.650000 -2.158134
v -1.865751 -1.865751 -2.107606
v -1.854804 -2.010940 -2.010940
v -1.650000 2.200000 -1.650000
v -1.650000 1.650000 -2.200000
v -2.200000 1.650000 -1.650000
v -1.650000 2.158134 -1.860476
v -1.650000 2.038909 -2.038909
v -1.860476 2.158134 -1.650000
v -1.865751 2.107606 -1.865751
v -1.854804 2.010940 -2.010940
v -1.967543 1.967543 -1.967543
v -1.860476 1.650000 -2.158134
v -2.038909 1.650000 -2.038909
v -1.650000 1.860476 -2.158134
v -1.865751 1.865751 -2.107606
v -2.010940 1.854804 -2.010940
v -2.158134 1.860476 -1.650000
v -2.038909 2.038909 -1.650000
v -2.158134 1.650000 -1.860476
v -2.107606 1.865751 -1.865751
v -2.010940 2.010940 -1.854804
v 1.650000 -2.200000 1.650000
v 2.200000 -1.650000 1.650000
v 1.650000 -1.650000 2.200000
v 1.860476 -2.158134 1.650000
v 2.038909 -2.038909 1.650000
v 1.650000 -2.158134 1.860476
v 1.865751 -2.107606 1.865751
v 2.010940 -2.010940 1.854804
v 1.967543 -1.967543 1.967543
v 2.158134 -1.650000 1.860476
v 2.038909 -1.650000 2.038909
v 2.158134 -1.860476 1.650000
v 2.107606 -1.865751 1.865751
v 2.010940 -1.854804 2.010940
v 1.650000 -1.860476 2.158134
v 1.650000 -2.038909 2.038909
v 1.860476 -1.650000 2.158134
v 1.865751 -1.865751 2.107606
v 1.854804 -2.010940 2.010940
v 1.650000 2.200000 1.650000
v 1.650000 1.650000 2.200000
v 2.200000 1.650000 1.650000
v 1.650000 2.158134 1.860476
v 1.650000 2.038909 2.038909
v 1.860476 2.158134 1.650000
v 1.865751 2.107606 1.865751
v 1.854804 2.010940 2.010940
v 1.967543 1.967543 1.967543
v 1.860476 1.650000 2.158134
v 2.038909 1.650000 2.038909
v 1.650000 1.860476 2.158134
v 1.865751 1.865751 2.107606
v 2.010940 1.854804 2.010940
v 2.158134 1.860476 1.650000
v 2.038909 2.038909 1.650000
v 2.158134 1.650000 1.860476
v 2.107606 1.865751 1.865751
v 2.010940 2.010940 1.854804
v 1.650000 -2.200000 -1.650000
v 1.650000 -1.650000 -2.200000
v 2.200000 -1.650000 -1.650000
v 1.650000 -2.158134 -1.860476
v 1.650000 -2.038909 -2.038909
v 1.860476 -2.158134 -1.650000
v 1.865751 -2.107606 -1.865751
v 1.854804 -2.010940 -2.010940
v 1.967543 -1.967543 -1.967543
v 1.860476 -1.650000 -2.158134
v 2.038909 -1.650000 -2.038909
v 1.650000 -1.860476 -2.158134
v 1.865751 -1.865751 -2.107606
v 2.010940 -1.854804 -2.010940
v 2.158134 -1.860476 -1.650000
v 2.038909 -2.038909 -1.650000
v 2.158134 -1.650000 -1.860476
v 2.107606 -1.865751 -1.865751
v 2.010940 -2.010940 -1.854804
v 1.650000 2.200000 -1.650000
v 2.200000 1.650000 -1.650000
v 1.650000 1.650000 -2.200000
v 1.860476 2.158134 -1.650000
v 2.038909 2.038909 -1.650000
v 1.650000 2.158134 -1.860476
v 1.865751 2.107606 -1.865751
v 2.010940 2.010940 -1.854804
v 1.967543 1.967543 -1.967543
v 2.158134 1.650000 -1.860476
v 2.038909 1.650000 -2.038909
v 2.158134 1.860476 -1.650000
v 2.107606 1.865751 -1.865751
v 2.010940 1.854804 -2.010940
v 1.650000 1.860476 -2.158134
v 1.650000 2.038909 -2.038909
v 1.860476 1.650000 -2.158134
v 1.865751 1.865751 -2.107606
v 1.854804 2.010940 -2.010940
vt 0.406250 0.781250
vt 0.593750 0.781250
vt 0.593750 0.968750
vt 0.406250 0.968750
vt 0.406250 0.531250
vt 0.593750 0.531250
vt 0.593750 0.718750
vt 0.406250 0.718750
vt 0.656250 0.531250
vt 0.843750 0.531250
vt 0.843750 0.718750
vt 0.656250 0.718750
vt 0.406250 0.031250
vt 0.593750 0.031250
vt 0.593750 0.218750
vt 0.406250 0.218750
vt 0.406250 0.281250
vt 0.593750 0.281250
vt 0.593750 0.468750
vt 0.406250 0.468750
vt 0.156250 0.718750
vt 0.156250 0.730709
vt 0.143991 0.731009
vt 0.144291 0.718750
vt 0.156250 0.750000
vt 0.144613 0.750000
vt 0.125000 0.730387
vt 0.125000 0.718750
vt 0.138208 0.750000
vt 0.406250 0.980709
vt 0.393991 0.981009
vt 0.394291 0.968750
vt 0.406250 1.000000
vt 0.394613 1.000000
vt 0.375000 0.980387
vt 0.375000 0.968750
vt 0.388208 1.000000
vt 0.394291 0.031250
vt 0.393991 0.018991
vt 0.406250 0.019291
vt 0.375000 0.031250
vt 0.375000 0.019613
vt 0.394613 0.000000
vt 0.406250 0.000000
vt 0.375000 0.013208
vt 0.605709 0.968750
vt 0.606008 0.981009
vt 0.593750 0.980709
vt 0.625000 0.968750
vt 0.625000 0.980387
vt 0.605387 1.000000
vt 0.593750 1.000000
vt 0.625000 0.986792
vt 0.855709 0.718750
vt 0.856008 0.731009
vt 0.843750 0.730709
vt 0.875000 0.718750
vt 0.875000 0.730387
vt 0.855387 0.750000
vt 0.843750 0.750000
vt 0.875000 0.736792
vt 0.593750 0.019291
vt 0.606009 0.018991
vt 0.605709 0.031250
vt 0.593750 0.000000
vt 0.605387 0.000000
vt 0.625000 0.019613
vt 0.625000 0.031250
vt 0.611792 0.000000
vt 0.156250 0.531250
vt 0.144291 0.531250
vt 0.143991 0.518991
vt 0.156250 0.519291
vt 0.125000 0.531250
vt 0.125000 0.519613
vt 0.144613 0.500000
vt 0.156250 0.500000
vt 0.125000 0.513208
vt 0.406250 0.230709
vt 0.393991 0.231009
vt 0.394291 0.218750
vt 0.406250 0.250000
vt 0.394613 0.250000
vt 0.375000 0.230387
vt 0.375000 0.218750
vt 0.388208 0.250000
vt 0.394291 0.281250
vt 0.393991 0.268991
vt 0.406250 0.269291
vt 0.375000 0.281250
vt 0.375000 0.269613
vt 0.375000 0.263208
vt 0.843750 0.519291
vt 0.856009 0.518991
vt 0.855709 0.531250
vt 0.843750 0.500000
vt 0.855387 0.500000
vt 0.875000 0.519613
vt 0.875000 0.531250
vt 0.861792 0.500000
vt 0.593750 0.269291
vt 0.606009 0.268991
vt 0.605709 0.281250
vt 0.593750 0.250000
vt 0.605387 0.250000
vt 0.625000 0.269613
vt 0.625000 0.281250
vt 0.611792 0.250000
vt 0.605709 0.218750
vt 0.606008 0.231009
vt 0.593750 0.230709
vt 0.625000 0.218750
vt 0.625000 0.230387
vt 0.625000 0.236792
vt 0.343750 0.718750
vt 0.355709 0.718750
vt 0.356009 0.731009
vt 0.343750 0.730709
vt 0.375000 0.718750
vt 0.375000 0.730387
vt 0.355387 0.750000
vt 0.343750 0.750000
vt 0.379403 0.750000
vt 0.406250 0.730709
vt 0.393991 0.731009
vt 0.394291 0.718750
vt 0.406250 0.750000
vt 0.394613 0.750000
vt 0.394291 0.781250
vt 0.393991 0.768991
vt 0.406250 0.769291
vt 0.375000 0.781250
vt 0.375000 0.769613
vt 0.656250 0.730709
vt 0.643991 0.731009
vt 0.644291 0.718750
vt 0.656250 0.750000
vt 0.644613 0.750000
vt 0.625000 0.730387
vt 0.625000 0.718750
vt 0.625000 0.745597
vt 0.593750 0.769291
vt 0.606009 0.768991
vt 0.605709 0.781250
vt 0.593750 0.750000
vt 0.605387 0.750000
vt 0.625000 0.769613
vt 0.625000 0.781250
vt 0.605709 0.718750
vt 0.606008 0.731009
vt 0.593750 0.730709
vt 0.343750 0.531250
vt 0.343750 0.519291
vt 0.356009 0.518991
vt 0.355709 0.531250
vt 0.343750 0.500000
vt 0.355387 0.500000
vt 0.375000 0.519613
vt 0.375000 0.531250
vt 0.375000 0.504403
vt 0.406250 0.480709
vt 0.393991 0.481009
vt 0.394291 0.468750
vt 0.406250 0.500000
vt 0.394613 0.500000
vt 0.375000 0.480387
vt 0.375000 0.468750
vt 0.394291 0.531250
vt 0.393991 0.518991
vt 0.406250 0.519291
vt 0.644291 0.531250
vt 0.643991 0.518991
vt 0.656250 0.519291
vt 0.625000 0.531250
vt 0.625000 0.519613
vt 0.644613 0.500000
vt 0.656250 0.500000
vt 0.620597 0.500000
vt 0.593750 0.519291
vt 0.606009 0.518991
vt 0.605709 0.531250
vt 0.593750 0.500000
vt 0.605387 0.500000
vt 0.605709 0.468750
vt 0.606008 0.481009
vt 0.593750 0.480709
vt 0.625000 0.468750
vt 0.625000 0.480387
vn 0.0000 0.0000 1.0000
vn 1.0000 0.0000 0.0000
vn 0.0000 1.0000 0.0000
vn -1.0000 0.0000 0.0000
vn 0.0000 0.0000 -1.0000
vn -0.2049 -0.9571 0.2049
vn -0.1818 -0.8152 0.5500
vn -0.5500 -0.8152 0.1818
vn -0.4931 -0.7167 0.4931
vn -0.2049 -0.2049 0.9571
vn -0.5500 -0.1818 0.8152
vn -0.1818 -0.5500 0.8152
vn -0.4931 -0.4931 0.7167
vn -0.9571 -0.2049 0.2049
vn -0.8152 -0.5500 0.1818
vn -0.8152 -0.1818 0.5500
vn -0.7167 -0.4931 0.4931
vn -0.2049 0.2049 0.9571
vn -0.1818 0.5500 0.8152
vn -0.5500 0.1818 0.8152
vn -0.4931 0.4931 0.7167
vn -0.2049 0.9571 0.2049
vn -0.5500 0.8152 0.1818
vn -0.1818 0.8152 0.5500
vn -0.4931 0.7167 0.4931
vn -0.9571 0.2049 0.2049
vn -0.8152 0.1818 0.5500
vn -0.8152 0.5500 0.1818
vn -0.7167 0.4931 0.4931
vn -0.2049 -0.9571 -0.2049
vn -0.5500 -0.8152 -0.1818
vn -0.1818 -0.8152 -0.5500
vn -0.4931 -0.7167 -0.4931
vn -0.9571 -0.2049 -0.2049
vn -0.8152 -0.1818 -0.5500
vn -0.8152 -0.5500 -0.1818
vn -0.7167 -0.4931 -0.4931
vn -0.2049 -0.2049 -0.9571
vn -0.1818 -0.5500 -0.8152
vn -0.5500 -0.1818 -0.8152
vn -0.4931 -0.4931 -0.7167
vn -0.2049 0.9571 -0.2049
vn -0.1818 0.8152 -0.5500
vn -0.5500 0.8152 -0.1818
vn -0.4931 0.7167 -0.4931
vn -0.2049 0.2049 -0.9571
vn -0.5500 0.1818 -0.8152
vn -0.1818 0.5500 -0.8152
vn -0.4931 0.4931 -0.7167
vn -0.9571 0.2049 -0.2049
vn -0.8152 0.5500 -0.1818
vn -0.8152 0.1818 -0.5500
vn -0.7167 0.4931 -0.4931
vn 0.2049 -0.9571 0.2049
vn 0.5500 -0.8152 0.1818
vn 0.1818 -0.8152 0.5500
vn 0.4931 -0.7167 0.4931
vn 0.9571 -0.2049 0.2049
vn 0.8152 -0.1818 0.5500
vn 0.8152 -0.5500 0.1818
vn 0.7167 -0.4931 0.4931
vn 0.2049 -0.2049 0.9571
vn 0.1818 -0.5500 0.8152
vn 0.5500 -0.1818 0.8152
vn 0.4931 -0.4931 0.7167
vn 0.2049 0.9571 0.2049
vn 0.1818 0.8152 0.5500
vn 0.5500 0.8152 0.1818
vn 0.4931 0.7167 0.4931
vn 0.2049 0.2049 0.9571
vn 0.5500 0.1818 0.8152
vn 0.1818 0.5500 0.8152
vn 0.4931 0.4931 0.7167
vn 0.9571 0.2049 0.2049
vn 0.8152 0.5500 0.1818
vn 0.8152 0.1818 0.5500
vn 0.7167 0.4931 0.4931
vn 0.2049 -0.9571 -0.2049
vn 0.1818 -0.8152 -0.5500
vn 0.5500 -0.8152 -0.1818
vn 0.4931 -0.7167 -0.4931
vn 0.2049 -0.2049 -0.9571
vn 0.5500 -0.1818 -0.8152
vn 0.1818 -0.5500 -0.8152
vn 0.4931 -0.4931 -0.7167
vn 0.9571 -0.2049 -0.2049
vn 0.8152 -0.5500 -0.1818
vn 0.8152 -0.1818 -0.5500
vn 0.7167 -0.4931 -0.4931
vn 0.2049 0.9571 -0.2049
vn 0.5500 0.8152 -0.1818
vn 0.1818 0.8152 -0.5500
vn 0.4931 0.7167 -0.4931
vn 0.9571 0.2049 -0.2049
vn 0.8152 0.1818 -0.5500
vn 0.8152 0.5500 -0.1818
vn 0.7167 0.4931 -0.4931
vn 0.2049 0.2049 -0.9571
vn 0.1818 0.5500 -0.8152
vn 0.5500 0.1818 -0.8152
vn 0.4931 0.4931 -0.7167
vn -0.1951 -0.9808 0.0000
vn -0.5556 -0.8315 0.0000
vn -0.8315 -0.5556 0.0000
vn -0.9808 -0.1951 0.0000
vn -0.1951 0.0000 0.9808
vn -0.5556 0.0000 0.8315
vn -0.8315 0.0000 0.5556
vn -0.9808 0.0000 0.1951
vn -0.1951 0.9808 0.0000
vn -0.5556 0.8315 0.0000
vn -0.8315 0.5556 0.0000
vn -0.9808 0.1951 0.0000
vn -0.1951 0.0000 -0.9808
vn -0.5556 0.0000 -0.8315
vn -0.8315 0.0000 -0.5556
vn -0.9808 0.0000 -0.1951
vn 0.0000 -0.9808 -0.1951
vn 0.0000 -0.8315 -0.5556
vn 0.0000 -0.5556 -0.8315
vn 0.0000 -0.1951 -0.9808
vn 0.0000 0.9808 -0.1951
vn 0.0000 0.8315 -0.5556
vn 0.0000 0.5556 -0.8315
vn 0.0000 0.1951 -0.9808
vn 0.9808 0.0000 -0.1951
vn 0.8315 0.0000 -0.5556
vn 0.5556 0.0000 -0.8315
vn 0.1951 0.0000 -0.9808
vn 0.1951 -0.9808 0.0000
vn 0.5556 -0.8315 0.0000
vn 0.8315 -0.5556 0.0000
vn 0.9808 -0.1951 0.0000
vn 0.1951 0.9808 0.0000
vn 0.5556 0.8315 0.0000
vn 0.8315 0.5556 0.0000
vn 0.9808 0.1951 0.0000
vn 0.1951 0.0000 0.9808
vn 0.5556 0.0000 0.8315
vn 0.8315 0.0000 0.5556
vn 0.9808 0.0000 0.1951
vn 0.0000 -0.9808 0.1951
vn 0.0000 -0.8315 0.5556
vn 0.0000 -0.5556 0.8315
vn 0.0000 -0.1951 0.9808
vn 0.0000 0.9808 0.1951
vn 0.0000 0.8315 0.5556
vn 0.0000 0.5556 0.8315
vn 0.0000 0.1951 0.9808
vn 0.0000 -1.0000 0.0000
usemtl Light
s off
f 255/213/151 273/214/151 196/215/151 178/216/151
f 293/217/152 311/218/152 274/219/152 254/220/152
f 310/221/153 234/222/153 197/223/153 272/224/153
f 179/225/154 198/226/154 236/227/154 216/228/154
f 217/229/155 235/230/155 312/231/155 292/232/155
f 177/233/156 180/234/156 183/235/156 182/236/156
f 180/234/157 181/237/157 184/238/157 183/235/157
f 182/236/158 183/235/158 195/239/158 192/240/158
f 183/235/159 184/238/159 185/241/159 195/239/159
f 178/216/160 186/242/160 189/243/160 188/244/160
f 186/242/161 187/245/161 190/246/161 189/243/161
f 188/244/162 189/243/162 184/247/162 181/248/162
f 189/243/163 190/246/163 185/249/163 184/247/163
f 179/225/164 191/250/164 194/251/164 193/252/164
f 191/250/165 192/253/165 195/254/165 194/251/165
f 193/252/166 194/251/166 190/255/166 187/256/166
f 194/251/167 195/254/167 185/257/167 190/255/167
f 196/215/168 199/258/168 202/259/168 201/260/168
f 199/258/169 200/261/169 203/262/169 202/259/169
f 201/260/170 202/259/170 214/263/170 211/264/170
f 202/259/171 203/262/171 204/265/171 214/263/171
f 197/223/172 205/266/172 208/267/172 207/268/172
f 205/266/173 206/269/173 209/270/173 208/267/173
f 207/268/174 208/267/174 203/271/174 200/272/174
f 208/267/175 209/270/175 204/273/175 203/271/175
f 198/226/176 210/274/176 213/275/176 212/276/176
f 210/274/177 211/277/177 214/278/177 213/275/177
f 212/276/178 213/275/178 209/279/178 206/280/178
f 213/275/179 214/278/179 204/281/179 209/279/179
f 215/282/180 218/283/180 221/284/180 220/285/180
f 218/283/181 219/286/181 222/287/181 221/284/181
f 220/285/182 221/284/182 233/288/182 230/289/182
f 221/284/183 222/287/183 223/290/183 233/288/183
f 216/228/184 224/291/184 227/292/184 226/293/184
f 224/291/185 225/294/185 228/295/185 227/292/185
f 226/293/186 227/292/186 222/296/186 219/297/186
f 227/292/187 228/295/187 223/298/187 222/296/187
f 217/229/188 229/299/188 232/300/188 231/301/188
f 229/299/189 230/302/189 233/303/189 232/300/189
f 231/301/190 232/300/190 228/295/190 225/294/190
f 232/300/191 233/303/191 223/304/191 228/295/191
f 234/222/192 237/305/192 240/306/192 239/307/192
f 237/305/193 238/308/193 241/309/193 240/306/193
f 239/307/194 240/306/194 252/310/194 249/311/194
f 240/306/195 241/309/195 242/312/195 252/310/195
f 235/230/196 243/313/196 246/314/196 245/315/196
f 243/313/197 244/316/197 247/317/197 246/314/197
f 245/315/198 246/314/198 241/318/198 238/319/198
f 246/314/199 247/317/199 242/320/199 241/318/199
f 236/227/200 248/321/200 251/322/200 250/323/200
f 248/321/201 249/324/201 252/325/201 251/322/201
f 250/323/202 251/322/202 247/317/202 244/316/202
f 251/322/203 252/325/203 242/326/203 247/317/203
f 253/327/204 256/328/204 259/329/204 258/330/204
f 256/328/205 257/331/205 260/332/205 259/329/205
f 258/330/206 259/329/206 271/333/206 268/334/206
f 259/329/207 260/332/207 261/335/207 271/333/207
f 254/220/208 262/336/208 265/337/208 264/338/208
f 262/336/209 263/339/209 266/340/209 265/337/209
f 264/338/210 265/337/210 260/332/210 257/331/210
f 265/337/211 266/340/211 261/335/211 260/332/211
f 255/213/212 267/341/212 270/342/212 269/343/212
f 267/341/213 268/344/213 271/345/213 270/342/213
f 269/343/214 270/342/214 266/340/214 263/339/214
f 270/342/215 271/345/215 261/335/215 266/340/215
f 272/224/216 275/346/216 278/347/216 277/348/216
f 275/346/217 276/349/217 279/350/217 278/347/217
f 277/348/218 278/347/218 290/351/218 287/352/218
f 278/347/219 279/350/219 280/353/219 290/351/219
f 273/214/220 281/354/220 284/355/220 283/356/220
f 281/354/221 282/357/221 285/358/221 284/355/221
f 283/356/222 284/355/222 279/359/222 276/360/222
f 284/355/223 285/358/223 280/353/223 279/359/223
f 274/219/224 286/361/224 289/362/224 288/363/224
f 286/361/225 287/352/225 290/351/225 289/362/225
f 288/363/226 289/362/226 285/358/226 282/357/226
f 289/362/227 290/351/227 280/353/227 285/358/227
f 291/364/228 294/365/228 297/366/228 296/367/228
f 294/365/229 295/368/229 298/369/229 297/366/229
f 296/367/230 297/366/230 309/370/230 306/371/230
f 297/366/231 298/369/231 299/372/231 309/370/231
f 292/232/232 300/373/232 303/374/232 302/375/232
f 300/373/233 301/376/233 304/377/233 303/374/233
f 302/375/234 303/374/234 298/378/234 295/379/234
f 303/374/235 304/377/235 299/372/235 298/378/235
f 293/217/236 305/380/236 308/381/236 307/382/236
f 305/380/237 306/371/237 309/370/237 308/381/237
f 307/382/238 308/381/238 304/377/238 301/376/238
f 308/381/239 309/370/239 299/372/239 304/377/239
f 310/221/240 313/383/240 316/384/240 315/385/240
f 313/383/241 314/386/241 317/387/241 316/384/241
f 315/385/242 316/384/242 328/388/242 325/389/242
f 316/384/243 317/387/243 318/390/243 328/388/243
f 311/218/244 319/391/244 322/392/244 321/393/244
f 319/391/245 320/394/245 323/395/245 322/392/245
f 321/393/246 322/392/246 317/387/246 314/386/246
f 322/392/247 323/395/247 318/390/247 317/387/247
f 312/231/248 324/396/248 327/397/248 326/398/248
f 324/396/249 325/399/249 328/400/249 327/397/249
f 326/398/250 327/397/250 323/395/250 320/394/250
f 327/397/251 328/400/251 318/390/251 323/395/251
f 215/282/252 177/233/252 182/236/252 218/283/252
f 218/283/253 182/236/253 192/240/253 219/286/253
f 219/297/254 192/253/254 191/250/254 226/293/254
f 226/293/255 191/250/255 179/225/255 216/228/255
f 178/216/256 196/215/256 201/260/256 186/242/256
f 186/242/257 201/260/257 211/264/257 187/245/257
f 187/256/258 211/277/258 210/274/258 193/252/258
f 193/252/259 210/274/259 198/226/259 179/225/259
f 197/223/260 234/222/260 239/307/260 205/266/260
f 205/266/261 239/307/261 249/311/261 206/269/261
f 206/280/262 249/324/262 248/321/262 212/276/262
f 212/276/263 248/321/263 236/227/263 198/226/263
f 235/230/264 217/229/264 231/301/264 243/313/264
f 243/313/265 231/301/265 225/294/265 244/316/265
f 244/316/266 225/294/266 224/291/266 250/323/266
f 250/323/267 224/291/267 216/228/267 236/227/267
f 291/364/268 215/282/268 220/285/268 294/365/268
f 294/365/269 220/285/269 230/289/269 295/368/269
f 295/379/270 230/302/270 229/299/270 302/375/270
f 302/375/271 229/299/271 217/229/271 292/232/271
f 234/222/272 310/221/272 315/385/272 237/305/272
f 237/305/273 315/385/273 325/389/273 238/308/273
f 238/319/274 325/399/274 324/396/274 245/315/274
f 245/315/275 324/396/275 312/231/275 235/230/275
f 311/218/276 293/217/276 307/382/276 319/391/276
f 319/391/277 307/382/277 301/376/277 320/394/277
f 320/394/278 301/376/278 300/373/278 326/398/278
f 326/398/279 300/373/279 292/232/279 312/231/279
f 253/327/280 291/364/280 296/367/280 256/328/280
f 256/328/281 296/367/281 306/371/281 257/331/281
f 257/331/282 306/371/282 305/380/282 264/338/282
f 264/338/283 305/380/283 293/217/283 254/220/283
f 310/221/284 272/224/284 277/348/284 313/383/284
f 313/383/285 277/348/285 287/352/285 314/386/285
f 314/386/286 287/352/286 286/361/286 321/393/286
f 321/393/287 286/361/287 274/219/287 311/218/287
f 273/214/288 255/213/288 269/343/288 281/354/288
f 281/354/289 269/343/289 263/339/289 282/357/289
f 282/357/290 263/339/290 262/336/290 288/363/290
f 288/363/291 262/336/291 254/220/291 274/219/291
f 177/233/292 253/327/292 258/330/292 180/234/292
f 180/234/293 258/330/293 268/334/293 181/237/293
f 181/248/294 268/344/294 267/341/294 188/244/294
f 188/244/295 267/341/295 255/213/295 178/216/295
f 272/224/296 197/223/296 207/268/296 275/346/296
f 275/346/297 207/268/297 200/272/297 276/349/297
f 276/360/298 200/261/298 199/258/298 283/356/298
f 283/356/299 199/258/299 196/215/299 273/214/299
f 215/282/300 291/364/300 253/327/300 177/233/300
