# Blender v3.6.1 OBJ File: 'generatorComponent2.blend'
# www.blender.org
mtllib generatorComponent2.mtl
o Cube.006_Cube.008
v 2.250000 2.000000 0.750000
v -2.250000 2.000000 0.750000
v 2.250000 2.000000 -0.750000
v -2.250000 2.000000 -0.750000
v 2.250000 2.250000 0.750000
v -2.250000 2.250000 0.750000
v -2.250000 2.250000 -0.750000
v 2.250000 2.250000 -0.750000
v 0.750000 2.250000 0.750000
v -0.750000 2.250000 0.750000
v -0.750000 2.250000 -0.750000
v 0.750000 2.250000 -0.750000
v 2.500000 0.000000 0.700000
v 2.200000 0.000000 1.000000
v 2.477164 0.000000 0.814805
v 2.412132 0.000000 0.912132
v 2.314805 0.000000 0.977164
v -2.200000 0.000000 1.000000
v -2.500000 0.000000 0.700000
v -2.314805 0.000000 0.977164
v -2.412132 0.000000 0.912132
v -2.477164 0.000000 0.814805
v 2.200000 0.000000 -1.000000
v 2.500000 0.000000 -0.700000
v 2.314805 0.000000 -0.977164
v 2.412132 0.000000 -0.912132
v 2.477164 0.000000 -0.814805
v -2.500000 0.000000 -0.700000
v -2.200000 0.000000 -1.000000
v -2.477164 0.000000 -0.814805
v -2.412132 0.000000 -0.912132
v -2.314805 0.000000 -0.977164
v 2.200000 2.000000 1.000000
v 2.500000 2.000000 0.700000
v 2.287868 2.000000 0.787868
v 2.314805 2.000000 0.977164
v 2.412132 2.000000 0.912132
v 2.477164 2.000000 0.814805
v -2.500000 2.000000 0.700000
v -2.200000 2.000000 1.000000
v -2.287868 2.000000 0.787868
v -2.477164 2.000000 0.814805
v -2.412132 2.000000 0.912132
v -2.314805 2.000000 0.977164
v -2.200000 2.000000 -1.000000
v -2.500000 2.000000 -0.700000
v -2.287868 2.000000 -0.787868
v -2.314805 2.000000 -0.977164
v -2.412132 2.000000 -0.912132
v -2.477164 2.000000 -0.814805
v 2.500000 2.000000 -0.700000
v 2.200000 2.000000 -1.000000
v 2.287868 2.000000 -0.787868
v 2.477164 2.000000 -0.814805
v 2.412132 2.000000 -0.912132
v 2.314805 2.000000 -0.977164
v -0.900000 2.250000 0.600000
v -0.900000 2.250000 -0.600000
v -2.100000 2.250000 -0.600000
v -2.100000 2.250000 0.600000
v 0.600000 2.250000 0.600000
v 0.600000 2.250000 -0.600000
v -0.600000 2.250000 -0.600000
v -0.600000 2.250000 0.600000
v 0.900000 2.250000 -0.600000
v 0.900000 2.250000 0.600000
v 2.100000 2.250000 0.600000
v 2.100000 2.250000 -0.600000
v -0.900000 2.000000 0.600000
v -0.900000 2.000000 -0.600000
v -2.100000 2.000000 0.600000
v -2.100000 2.000000 -0.600000
v 0.600000 2.000000 0.600000
v 0.600000 2.000000 -0.600000
v -0.600000 2.000000 0.600000
v -0.600000 2.000000 -0.600000
v 0.900000 2.000000 0.600000
v 0.900000 2.000000 -0.600000
v 2.100000 2.000000 -0.600000
v 2.100000 2.000000 0.600000
vt 0.375000 0.787500
vt 0.625000 0.787500
vt 0.625000 0.962500
vt 0.375000 0.962500
vt 0.375000 0.515000
vt 0.625000 0.515000
vt 0.625000 0.735000
vt 0.375000 0.735000
vt 0.843750 0.737500
vt 0.843750 0.512500
vt 0.848483 0.510607
vt 0.875000 0.515000
vt 0.875000 0.735000
vt 0.848483 0.739393
vt 0.375000 0.287500
vt 0.625000 0.287500
vt 0.625000 0.462500
vt 0.375000 0.462500
vt 0.375000 0.015000
vt 0.625000 0.015000
vt 0.625000 0.235000
vt 0.375000 0.235000
vt 0.656250 0.737500
vt 0.656250 0.512500
vt 0.656250 0.512500
vt 0.656250 0.587500
vt 0.656250 0.662500
vt 0.656250 0.737500
vt 0.837500 0.750000
vt 0.662500 0.750000
vt 0.651516 0.739393
vt 0.651516 0.510607
vt 0.662500 0.500000
vt 0.837500 0.500000
vt 0.843750 0.737500
vt 0.843750 0.662500
vt 0.843750 0.587500
vt 0.843750 0.512500
vt 0.675000 0.580000
vt 0.675000 0.520000
vt 0.675000 0.520000
vt 0.675000 0.580000
vt 0.825000 0.730000
vt 0.675000 0.730000
vt 0.675000 0.730000
vt 0.825000 0.730000
vt 0.825000 0.655000
vt 0.675000 0.655000
vt 0.675000 0.655000
vt 0.825000 0.655000
vt 0.872145 0.740740
vt 0.864016 0.745607
vt 0.861998 0.744799
vt 0.856250 0.742500
vt 0.856250 0.507500
vt 0.851851 0.501142
vt 0.864016 0.504393
vt 0.875000 0.509260
vt 0.643750 0.507500
vt 0.627854 0.509260
vt 0.635983 0.504393
vt 0.648149 0.500000
vt 0.648149 0.748858
vt 0.635983 0.745607
vt 0.638002 0.744799
vt 0.643750 0.742500
vt 0.625000 0.976851
vt 0.375000 0.976851
vt 0.625000 1.000000
vt 0.375000 1.000000
vt 0.375000 0.000000
vt 0.625000 0.000000
vt 0.625000 0.009260
vt 0.375000 0.009260
vt 0.375000 0.273149
vt 0.625000 0.273149
vt 0.375000 0.250000
vt 0.625000 0.250000
vt 0.375000 0.240740
vt 0.625000 0.240740
vt 0.375000 0.509260
vt 0.625000 0.509260
vt 0.375000 0.500000
vt 0.625000 0.500000
vt 0.375000 0.476851
vt 0.625000 0.476851
vt 0.375000 0.773149
vt 0.625000 0.773149
vt 0.375000 0.750000
vt 0.625000 0.750000
vt 0.375000 0.740740
vt 0.625000 0.740740
vt 0.125000 0.515000
vt 0.127855 0.509260
vt 0.135983 0.504393
vt 0.148149 0.501142
vt 0.162500 0.500000
vt 0.337500 0.500000
vt 0.351851 0.501142
vt 0.364017 0.504393
vt 0.372145 0.509260
vt 0.372146 0.740740
vt 0.364017 0.745607
vt 0.351851 0.748858
vt 0.337500 0.750000
vt 0.162500 0.750000
vt 0.148149 0.748858
vt 0.135983 0.745607
vt 0.127855 0.740740
vt 0.125000 0.735000
vt 0.825000 0.580000
vt 0.825000 0.520000
vt 0.675000 0.595000
vt 0.825000 0.595000
vt 0.825000 0.670000
vt 0.675000 0.670000
vt 0.825000 0.595000
vt 0.825000 0.670000
vt 0.675000 0.670000
vt 0.825000 0.520000
vt 0.675000 0.595000
vt 0.825000 0.580000
vn 1.0000 0.0000 0.0000
vn -0.0000 0.0000 -1.0000
vn 0.0000 1.0000 0.0000
vn -1.0000 0.0000 0.0000
vn 0.0000 0.0000 1.0000
vn 0.9808 0.0000 0.1951
vn 0.8315 0.0000 0.5556
vn 0.5556 0.0000 0.8315
vn 0.1951 0.0000 0.9808
vn -0.9808 0.0000 0.1951
vn -0.8315 0.0000 0.5556
vn -0.5556 0.0000 0.8315
vn -0.1951 0.0000 0.9808
vn -0.1951 0.0000 -0.9808
vn -0.5556 0.0000 -0.8315
vn -0.8315 0.0000 -0.5556
vn -0.9808 0.0000 -0.1951
vn 0.9808 0.0000 -0.1951
vn 0.8315 0.0000 -0.5556
vn 0.5556 0.0000 -0.8315
vn 0.1951 0.0000 -0.9808
vn 0.0000 -1.0000 0.0000
usemtl Iron
s off
f 24/1/1 51/2/1 34/3/1 13/4/1
f 29/5/2 45/6/2 52/7/2 23/8/2
f 1/9/3 2/10/3 41/11/3 40/12/3 33/13/3 35/14/3
f 19/15/4 39/16/4 46/17/4 28/18/4
f 14/19/5 33/20/5 40/21/5 18/22/5
f 3/23/2 4/24/2 7/25/2 11/26/2 12/27/2 8/28/2
f 3/23/3 1/9/3 35/14/3 34/29/3 51/30/3 53/31/3
f 4/24/3 3/23/3 53/31/3 52/7/3 45/6/3 47/32/3
f 2/10/3 4/24/3 47/32/3 46/33/3 39/34/3 41/11/3
f 2/10/5 1/9/5 5/35/5 9/36/5 10/37/5 6/38/5
f 1/9/1 3/23/1 8/28/1 5/35/1
f 4/24/4 2/10/4 6/38/4 7/25/4
f 58/39/5 59/40/5 72/41/5 70/42/5
f 67/43/4 68/44/4 79/45/4 80/46/4
f 61/47/4 62/48/4 74/49/4 73/50/4
f 33/13/3 36/51/3 35/14/3
f 36/51/3 37/52/3 35/14/3
f 37/52/3 38/53/3 35/14/3
f 38/53/3 34/54/3 35/14/3
f 39/55/3 42/56/3 41/11/3
f 42/56/3 43/57/3 41/11/3
f 43/57/3 44/58/3 41/11/3
f 44/58/3 40/12/3 41/11/3
f 45/59/3 48/60/3 47/32/3
f 48/60/3 49/61/3 47/32/3
f 49/61/3 50/62/3 47/32/3
f 50/62/3 46/33/3 47/32/3
f 51/30/3 54/63/3 53/31/3
f 54/63/3 55/64/3 53/31/3
f 55/64/3 56/65/3 53/31/3
f 56/65/3 52/66/3 53/31/3
f 13/4/6 34/3/6 38/67/6 15/68/6
f 15/68/7 38/67/7 37/69/7 16/70/7
f 16/71/8 37/72/8 36/73/8 17/74/8
f 17/74/9 36/73/9 33/20/9 14/19/9
f 39/16/10 19/15/10 22/75/10 42/76/10
f 42/76/11 22/75/11 21/77/11 43/78/11
f 43/78/12 21/77/12 20/79/12 44/80/12
f 44/80/13 20/79/13 18/22/13 40/21/13
f 45/6/14 29/5/14 32/81/14 48/82/14
f 48/82/15 32/81/15 31/83/15 49/84/15
f 49/84/16 31/83/16 30/85/16 50/86/16
f 50/86/17 30/85/17 28/18/17 46/17/17
f 51/2/18 24/1/18 27/87/18 54/88/18
f 54/88/19 27/87/19 26/89/19 55/90/19
f 55/90/20 26/89/20 25/91/20 56/92/20
f 56/92/21 25/91/21 23/8/21 52/7/21
f 18/93/22 20/94/22 21/95/22 22/96/22 19/97/22 28/98/22 30/99/22 31/100/22 32/101/22 29/5/22 23/8/22 25/102/22 26/103/22 27/104/22 24/105/22 13/106/22 15/107/22 16/108/22 17/109/22 14/110/22
f 10/37/3 11/26/3 58/39/3 57/111/3
f 11/26/3 7/25/3 59/40/3 58/39/3
f 7/25/3 6/38/3 60/112/3 59/40/3
f 6/38/3 10/37/3 57/111/3 60/112/3
f 9/36/3 12/27/3 62/48/3 61/47/3
f 12/27/3 11/26/3 63/113/3 62/48/3
f 11/26/3 10/37/3 64/114/3 63/113/3
f 10/37/3 9/36/3 61/47/3 64/114/3
f 12/27/3 9/36/3 66/115/3 65/116/3
f 9/36/3 5/35/3 67/43/3 66/115/3
f 5/35/3 8/28/3 68/44/3 67/43/3
f 8/28/3 12/27/3 65/116/3 68/44/3
f 64/114/2 61/47/2 73/50/2 75/117/2
f 65/116/1 66/115/1 77/118/1 78/119/1
f 59/40/1 60/112/1 71/120/1 72/41/1
f 62/48/5 63/113/5 76/121/5 74/49/5
f 68/44/5 65/116/5 78/119/5 79/45/5
f 57/111/4 58/39/4 70/42/4 69/122/4
f 63/113/1 64/114/1 75/117/1 76/121/1
f 66/115/2 67/43/2 80/46/2 77/118/2
f 60/112/2 57/111/2 69/122/2 71/120/2
usemtl Light
f 69/122/3 70/42/3 72/41/3 71/120/3
f 73/50/3 74/49/3 76/121/3 75/117/3
f 78/119/3 77/118/3 80/46/3 79/45/3
