# Blender 3.6.1
# www.blender.org
mtllib outpostWalls.mtl
o Cylinder
v 0.000000 0.000000 -8.000000
v 0.000000 2.000000 -7.329115
v 0.392541 0.000000 -7.990364
v 0.359623 2.000000 -7.320287
v 0.784137 0.000000 -7.961478
v 0.718380 2.000000 -7.293823
v 1.173844 0.000000 -7.913413
v 1.075405 2.000000 -7.249790
v 1.560723 0.000000 -7.846282
v 1.429839 2.000000 -7.188289
v 1.943842 0.000000 -7.760250
v 1.780830 2.000000 -7.109471
v 2.322277 0.000000 -7.655523
v 2.127530 2.000000 -7.013526
v 2.695119 0.000000 -7.532352
v 2.469105 2.000000 -6.900685
v 3.061468 0.000000 -7.391037
v 2.804731 2.000000 -6.771220
v 3.420441 0.000000 -7.231915
v 3.133600 2.000000 -6.625443
v 3.771174 0.000000 -7.055370
v 3.454921 2.000000 -6.463703
v 4.112822 0.000000 -6.861829
v 3.767919 2.000000 -6.286392
v 4.444562 0.000000 -6.651757
v 4.071838 2.000000 -6.093937
v 4.765594 0.000000 -6.425660
v 4.365949 2.000000 -5.886800
v 5.075147 0.000000 -6.184083
v 4.649542 2.000000 -5.665483
v 5.372472 0.000000 -5.927609
v 4.921933 2.000000 -5.430516
v 5.656854 0.000000 -5.656854
v 5.182467 2.000000 -5.182467
v 5.927609 0.000000 -5.372472
v 5.430516 2.000000 -4.921933
v 6.184083 0.000000 -5.075147
v 5.665483 2.000000 -4.649542
v 6.425660 0.000000 -4.765594
v 5.886800 2.000000 -4.365949
v 6.651757 0.000000 -4.444562
v 6.093937 2.000000 -4.071838
v 6.861829 0.000000 -4.112822
v 6.286392 2.000000 -3.767919
v 7.055370 0.000000 -3.771174
v 6.463703 2.000000 -3.454921
v 7.231915 0.000000 -3.420441
v 6.625443 2.000000 -3.133600
v 7.391037 0.000000 -3.061468
v 6.771220 2.000000 -2.804731
v 7.532352 0.000000 -2.695119
v 6.900685 2.000000 -2.469105
v 7.655523 0.000000 -2.322277
v 7.013526 2.000000 -2.127530
v 7.760250 0.000000 -1.943842
v 7.109471 2.000000 -1.780830
v 7.846282 0.000000 -1.560723
v 7.188289 2.000000 -1.429839
v 7.913413 0.000000 -1.173844
v 7.249790 2.000000 -1.075405
v 7.961478 0.000000 -0.784137
v 7.293823 2.000000 -0.718380
v 7.990364 0.000000 -0.392541
v 7.320287 2.000000 -0.359623
v 8.000000 0.000000 -0.000000
v 7.329115 2.000000 -0.000000
v 7.990364 0.000000 0.392541
v 7.320287 2.000000 0.359623
v 7.961478 0.000000 0.784137
v 7.293823 2.000000 0.718380
v 7.913413 0.000000 1.173844
v 7.249790 2.000000 1.075405
v 7.846282 0.000000 1.560723
v 7.188289 2.000000 1.429839
v 7.760250 0.000000 1.943841
v 7.109471 2.000000 1.780830
v 7.655523 0.000000 2.322277
v 7.013526 2.000000 2.127530
v 7.532352 0.000000 2.695119
v 6.900685 2.000000 2.469105
v 7.391037 0.000000 3.061468
v 6.771220 2.000000 2.804731
v 7.231915 0.000000 3.420441
v 6.625443 2.000000 3.133600
v 7.055370 0.000000 3.771174
v 6.463703 2.000000 3.454921
v 6.861829 0.000000 4.112822
v 6.286392 2.000000 3.767919
v 6.651757 0.000000 4.444562
v 6.093937 2.000000 4.071838
v 6.425660 0.000000 4.765594
v 5.886800 2.000000 4.365949
v 6.184083 0.000000 5.075147
v 5.665483 2.000000 4.649542
v 5.927609 0.000000 5.372472
v 5.430516 2.000000 4.921933
v 5.656854 0.000000 5.656854
v 5.182467 2.000000 5.182467
v 5.372472 0.000000 5.927609
v 4.921933 2.000000 5.430516
v 5.075147 0.000000 6.184083
v 4.649542 2.000000 5.665483
v 4.765594 0.000000 6.425660
v 4.365949 2.000000 5.886800
v 4.444562 0.000000 6.651757
v 4.071838 2.000000 6.093937
v 4.112822 0.000000 6.861829
v 3.767919 2.000000 6.286392
v 3.771174 0.000000 7.055370
v 3.454921 2.000000 6.463703
v 3.420441 0.000000 7.231915
v 3.133600 2.000000 6.625443
v 3.061468 0.000000 7.391037
v 2.804731 2.000000 6.771220
v 2.695119 0.000000 7.532352
v 2.469105 2.000000 6.900685
v 2.322277 0.000000 7.655523
v 2.127530 2.000000 7.013526
v 1.943842 0.000000 7.760250
v 1.780830 2.000000 7.109471
v 1.560723 0.000000 7.846282
v 1.429839 2.000000 7.188289
v 1.173844 0.000000 7.913413
v 1.075405 2.000000 7.249790
v 0.784137 0.000000 7.961478
v 0.718380 2.000000 7.293823
v 0.392541 0.000000 7.990364
v 0.359623 2.000000 7.320287
v 0.000000 0.000000 8.000000
v 0.000000 2.000000 7.329115
v -0.392541 0.000000 7.990364
v -0.359623 2.000000 7.320287
v -0.784137 0.000000 7.961478
v -0.718380 2.000000 7.293823
v -1.173844 0.000000 7.913413
v -1.075405 2.000000 7.249790
v -1.560723 0.000000 7.846282
v -1.429839 2.000000 7.188289
v -1.943841 0.000000 7.760250
v -1.780830 2.000000 7.109471
v -2.322277 0.000000 7.655523
v -2.127530 2.000000 7.013526
v -2.695119 0.000000 7.532352
v -2.469105 2.000000 6.900685
v -3.061468 0.000000 7.391037
v -2.804731 2.000000 6.771220
v -3.420441 0.000000 7.231915
v -3.133600 2.000000 6.625443
v -3.771174 0.000000 7.055370
v -3.454921 2.000000 6.463703
v -4.112822 0.000000 6.861829
v -3.767919 2.000000 6.286392
v -4.444562 0.000000 6.651757
v -4.071838 2.000000 6.093937
v -4.765594 0.000000 6.425660
v -4.365949 2.000000 5.886800
v -5.075147 0.000000 6.184083
v -4.649542 2.000000 5.665483
v -5.372472 0.000000 5.927609
v -4.921933 2.000000 5.430516
v -5.656854 0.000000 5.656854
v -5.182467 2.000000 5.182467
v -5.927609 0.000000 5.372472
v -5.430516 2.000000 4.921933
v -6.184083 0.000000 5.075147
v -5.665483 2.000000 4.649542
v -6.425660 0.000000 4.765594
v -5.886800 2.000000 4.365949
v -6.651757 0.000000 4.444562
v -6.093937 2.000000 4.071838
v -6.861829 0.000000 4.112822
v -6.286392 2.000000 3.767919
v -7.055370 0.000000 3.771174
v -6.463703 2.000000 3.454921
v -7.231915 0.000000 3.420441
v -6.625443 2.000000 3.133600
v -7.391037 0.000000 3.061468
v -6.771220 2.000000 2.804731
v -7.532352 0.000000 2.695119
v -6.900685 2.000000 2.469105
v -7.655523 0.000000 2.322277
v -7.013526 2.000000 2.127530
v -7.760250 0.000000 1.943841
v -7.109471 2.000000 1.780830
v -7.846282 0.000000 1.560723
v -7.188289 2.000000 1.429839
v -7.913413 0.000000 1.173844
v -7.249790 2.000000 1.075405
v -7.961478 0.000000 0.784137
v -7.293823 2.000000 0.718380
v -7.990364 0.000000 0.392541
v -7.320287 2.000000 0.359623
v -8.000000 0.000000 -0.000000
v -7.329115 2.000000 -0.000000
v -7.990364 0.000000 -0.392541
v -7.320287 2.000000 -0.359623
v -7.961478 0.000000 -0.784137
v -7.293823 2.000000 -0.718380
v -7.913413 0.000000 -1.173844
v -7.249790 2.000000 -1.075405
v -7.846282 0.000000 -1.560723
v -7.188289 2.000000 -1.429839
v -7.760250 0.000000 -1.943842
v -7.109471 2.000000 -1.780830
v -7.655523 0.000000 -2.322277
v -7.013526 2.000000 -2.127530
v -7.532352 0.000000 -2.695119
v -6.900685 2.000000 -2.469105
v -7.391037 0.000000 -3.061468
v -6.771220 2.000000 -2.804731
v -7.231915 0.000000 -3.420441
v -6.625443 2.000000 -3.133600
v -7.055370 0.000000 -3.771174
v -6.463703 2.000000 -3.454921
v -6.861829 0.000000 -4.112822
v -6.286392 2.000000 -3.767919
v -6.651757 0.000000 -4.444562
v -6.093937 2.000000 -4.071838
v -6.425660 0.000000 -4.765594
v -5.886800 2.000000 -4.365949
v -6.184083 0.000000 -5.075147
v -5.665483 2.000000 -4.649542
v -5.927609 0.000000 -5.372472
v -5.430516 2.000000 -4.921933
v -5.656854 0.000000 -5.656854
v -5.182467 2.000000 -5.182467
v -5.372472 0.000000 -5.927609
v -4.921933 2.000000 -5.430516
v -5.075147 0.000000 -6.184083
v -4.649542 2.000000 -5.665483
v -4.765594 0.000000 -6.425660
v -4.365949 2.000000 -5.886800
v -4.444562 0.000000 -6.651757
v -4.071838 2.000000 -6.093937
v -4.112822 0.000000 -6.861829
v -3.767919 2.000000 -6.286392
v -3.771174 0.000000 -7.055370
v -3.454921 2.000000 -6.463703
v -3.420441 0.000000 -7.231915
v -3.133600 2.000000 -6.625443
v -3.061468 0.000000 -7.391037
v -2.804731 2.000000 -6.771220
v -2.695119 0.000000 -7.532352
v -2.469105 2.000000 -6.900685
v -2.322277 0.000000 -7.655523
v -2.127530 2.000000 -7.013526
v -1.943841 0.000000 -7.760250
v -1.780830 2.000000 -7.109471
v -1.560723 0.000000 -7.846282
v -1.429839 2.000000 -7.188289
v -1.173844 0.000000 -7.913413
v -1.075405 2.000000 -7.249790
v -0.784137 0.000000 -7.961478
v -0.718380 2.000000 -7.293823
v -0.392541 0.000000 -7.990364
v -0.359623 2.000000 -7.320287
v 0.392541 2.000000 -7.990364
v 0.000000 2.000000 -8.000000
v 0.784137 2.000000 -7.961478
v 1.173844 2.000000 -7.913413
v 1.560723 2.000000 -7.846282
v 1.943842 2.000000 -7.760250
v 2.322277 2.000000 -7.655523
v 2.695119 2.000000 -7.532352
v 3.061468 2.000000 -7.391037
v 3.420441 2.000000 -7.231915
v 3.771174 2.000000 -7.055370
v 4.112822 2.000000 -6.861829
v 4.444562 2.000000 -6.651757
v 4.765594 2.000000 -6.425660
v 5.075147 2.000000 -6.184083
v 5.372472 2.000000 -5.927609
v 5.656854 2.000000 -5.656854
v 5.927609 2.000000 -5.372472
v 6.184083 2.000000 -5.075147
v 6.425660 2.000000 -4.765594
v 6.651757 2.000000 -4.444562
v 6.861829 2.000000 -4.112822
v 7.055370 2.000000 -3.771174
v 7.231915 2.000000 -3.420441
v 7.391037 2.000000 -3.061468
v 7.532352 2.000000 -2.695119
v 7.655523 2.000000 -2.322277
v 7.760250 2.000000 -1.943842
v 7.846282 2.000000 -1.560723
v 7.913413 2.000000 -1.173844
v 7.961478 2.000000 -0.784137
v 7.990364 2.000000 -0.392541
v 8.000000 2.000000 -0.000000
v 7.990364 2.000000 0.392541
v 7.961478 2.000000 0.784137
v 7.913413 2.000000 1.173844
v 7.846282 2.000000 1.560723
v 7.760250 2.000000 1.943841
v 7.655523 2.000000 2.322277
v 7.532352 2.000000 2.695119
v 7.391037 2.000000 3.061468
v 7.231915 2.000000 3.420441
v 7.055370 2.000000 3.771174
v 6.861829 2.000000 4.112822
v 6.651757 2.000000 4.444562
v 6.425660 2.000000 4.765594
v 6.184083 2.000000 5.075147
v 5.927609 2.000000 5.372472
v 5.656854 2.000000 5.656854
v 5.372472 2.000000 5.927609
v 5.075147 2.000000 6.184083
v 4.765594 2.000000 6.425660
v 4.444562 2.000000 6.651757
v 4.112822 2.000000 6.861829
v 3.771174 2.000000 7.055370
v 3.420441 2.000000 7.231915
v 3.061468 2.000000 7.391037
v 2.695119 2.000000 7.532352
v 2.322277 2.000000 7.655523
v 1.943842 2.000000 7.760250
v 1.560723 2.000000 7.846282
v 1.173844 2.000000 7.913413
v 0.784137 2.000000 7.961478
v 0.392541 2.000000 7.990364
v 0.000000 2.000000 8.000000
v -0.392541 2.000000 7.990364
v -0.784137 2.000000 7.961478
v -1.173844 2.000000 7.913413
v -1.560723 2.000000 7.846282
v -1.943841 2.000000 7.760250
v -2.322277 2.000000 7.655523
v -2.695119 2.000000 7.532352
v -3.061468 2.000000 7.391037
v -3.420441 2.000000 7.231915
v -3.771174 2.000000 7.055370
v -4.112822 2.000000 6.861829
v -4.444562 2.000000 6.651757
v -4.765594 2.000000 6.425660
v -5.075147 2.000000 6.184083
v -5.372472 2.000000 5.927609
v -5.656854 2.000000 5.656854
v -5.927609 2.000000 5.372472
v -6.184083 2.000000 5.075147
v -6.425660 2.000000 4.765594
v -6.651757 2.000000 4.444562
v -6.861829 2.000000 4.112822
v -7.055370 2.000000 3.771174
v -7.231915 2.000000 3.420441
v -7.391037 2.000000 3.061468
v -7.532352 2.000000 2.695119
v -7.655523 2.000000 2.322277
v -7.760250 2.000000 1.943841
v -7.846282 2.000000 1.560723
v -7.913413 2.000000 1.173844
v -7.961478 2.000000 0.784137
v -7.990364 2.000000 0.392541
v -8.000000 2.000000 -0.000000
v -7.990364 2.000000 -0.392541
v -7.961478 2.000000 -0.784137
v -7.913413 2.000000 -1.173844
v -7.846282 2.000000 -1.560723
v -7.760250 2.000000 -1.943842
v -7.655523 2.000000 -2.322277
v -7.532352 2.000000 -2.695119
v -7.391037 2.000000 -3.061468
v -7.231915 2.000000 -3.420441
v -7.055370 2.000000 -3.771174
v -6.861829 2.000000 -4.112822
v -6.651757 2.000000 -4.444562
v -6.425660 2.000000 -4.765594
v -6.184083 2.000000 -5.075147
v -5.927609 2.000000 -5.372472
v -5.656854 2.000000 -5.656854
v -5.372472 2.000000 -5.927609
v -5.075147 2.000000 -6.184083
v -4.765594 2.000000 -6.425660
v -4.444562 2.000000 -6.651757
v -4.112822 2.000000 -6.861829
v -3.771174 2.000000 -7.055370
v -3.420441 2.000000 -7.231915
v -3.061468 2.000000 -7.391037
v -2.695119 2.000000 -7.532352
v -2.322277 2.000000 -7.655523
v -1.943841 2.000000 -7.760250
v -1.560723 2.000000 -7.846282
v -1.173844 2.000000 -7.913413
v -0.784137 2.000000 -7.961478
v -0.392541 2.000000 -7.990364
v 0.320792 0.250000 -6.529889
v 0.000000 0.250000 -6.537765
v 0.640815 0.250000 -6.506283
v 0.959290 0.250000 -6.467004
v 1.275454 0.250000 -6.412144
v 1.588547 0.250000 -6.341836
v 1.897813 0.250000 -6.256251
v 2.202506 0.250000 -6.155593
v 2.501895 0.250000 -6.040107
v 2.795254 0.250000 -5.910070
v 3.081881 0.250000 -5.765794
v 3.361083 0.250000 -5.607627
v 3.632187 0.250000 -5.435953
v 3.894542 0.250000 -5.251181
v 4.147514 0.250000 -5.053761
v 4.390494 0.250000 -4.844164
v 4.622898 0.250000 -4.622898
v 4.844164 0.250000 -4.390494
v 5.053761 0.250000 -4.147514
v 5.251181 0.250000 -3.894542
v 5.435953 0.250000 -3.632187
v 5.607627 0.250000 -3.361083
v 5.765794 0.250000 -3.081881
v 5.910070 0.250000 -2.795254
v 6.040107 0.250000 -2.501895
v 6.155594 0.250000 -2.202506
v 6.256251 0.250000 -1.897813
v 6.341836 0.250000 -1.588547
v 6.412144 0.250000 -1.275454
v 6.467004 0.250000 -0.959290
v 6.506283 0.250000 -0.640815
v 6.529889 0.250000 -0.320792
v 6.537765 0.250000 -0.000000
v 6.529889 0.250000 0.320792
v 6.506283 0.250000 0.640815
v 6.467004 0.250000 0.959290
v 6.412144 0.250000 1.275454
v 6.341836 0.250000 1.588547
v 6.256251 0.250000 1.897813
v 6.155593 0.250000 2.202506
v 6.040107 0.250000 2.501895
v 5.910070 0.250000 2.795254
v 5.765794 0.250000 3.081881
v 5.607627 0.250000 3.361083
v 5.435953 0.250000 3.632187
v 5.251181 0.250000 3.894542
v 5.053761 0.250000 4.147514
v 4.844164 0.250000 4.390494
v 4.622898 0.250000 4.622898
v 4.390494 0.250000 4.844164
v 4.147514 0.250000 5.053761
v 3.894542 0.250000 5.251181
v 3.632187 0.250000 5.435953
v 3.361083 0.250000 5.607627
v 3.081881 0.250000 5.765794
v 2.795254 0.250000 5.910070
v 2.501895 0.250000 6.040107
v 2.202506 0.250000 6.155594
v 1.897813 0.250000 6.256251
v 1.588547 0.250000 6.341836
v 1.275454 0.250000 6.412144
v 0.959290 0.250000 6.467004
v 0.640815 0.250000 6.506283
v 0.320792 0.250000 6.529889
v 0.000000 0.250000 6.537765
v -0.320792 0.250000 6.529889
v -0.640815 0.250000 6.506283
v -0.959290 0.250000 6.467004
v -1.275454 0.250000 6.412144
v -1.588547 0.250000 6.341836
v -1.897813 0.250000 6.256251
v -2.202506 0.250000 6.155593
v -2.501895 0.250000 6.040107
v -2.795254 0.250000 5.910070
v -3.081881 0.250000 5.765794
v -3.361083 0.250000 5.607627
v -3.632187 0.250000 5.435953
v -3.894542 0.250000 5.251181
v -4.147514 0.250000 5.053761
v -4.390494 0.250000 4.844164
v -4.622898 0.250000 4.622898
v -4.844164 0.250000 4.390494
v -5.053761 0.250000 4.147514
v -5.251181 0.250000 3.894542
v -5.435953 0.250000 3.632187
v -5.607627 0.250000 3.361083
v -5.765794 0.250000 3.081881
v -5.910070 0.250000 2.795254
v -6.040107 0.250000 2.501895
v -6.155594 0.250000 2.202506
v -6.256251 0.250000 1.897813
v -6.341836 0.250000 1.588547
v -6.412144 0.250000 1.275454
v -6.467004 0.250000 0.959290
v -6.506283 0.250000 0.640815
v -6.529889 0.250000 0.320792
v -6.537765 0.250000 -0.000000
v -6.529889 0.250000 -0.320792
v -6.506283 0.250000 -0.640815
v -6.467004 0.250000 -0.959290
v -6.412144 0.250000 -1.275454
v -6.341836 0.250000 -1.588547
v -6.256251 0.250000 -1.897813
v -6.155593 0.250000 -2.202506
v -6.040107 0.250000 -2.501895
v -5.910070 0.250000 -2.795254
v -5.765794 0.250000 -3.081881
v -5.607627 0.250000 -3.361083
v -5.435953 0.250000 -3.632187
v -5.251181 0.250000 -3.894542
v -5.053761 0.250000 -4.147514
v -4.844164 0.250000 -4.390494
v -4.622898 0.250000 -4.622898
v -4.390494 0.250000 -4.844164
v -4.147514 0.250000 -5.053761
v -3.894542 0.250000 -5.251181
v -3.632187 0.250000 -5.435953
v -3.361083 0.250000 -5.607627
v -3.081881 0.250000 -5.765794
v -2.795254 0.250000 -5.910070
v -2.501895 0.250000 -6.040107
v -2.202506 0.250000 -6.155594
v -1.897813 0.250000 -6.256251
v -1.588547 0.250000 -6.341836
v -1.275454 0.250000 -6.412144
v -0.959290 0.250000 -6.467004
v -0.640815 0.250000 -6.506283
v -0.320792 0.250000 -6.529889
v 6.751472 0.000000 -0.000000
v 6.751472 3.530330 -0.000000
v 7.600000 0.000000 -0.848528
v 7.600000 3.000000 -0.848528
v 7.600000 0.000000 0.848528
v 7.600000 3.000000 0.848528
v 8.448527 0.000000 -0.000000
v 8.448527 2.469670 -0.000000
v -7.600000 0.000000 0.848528
v -6.751472 0.000000 -0.000000
v -6.751472 3.530330 -0.000000
v -7.600000 3.000000 0.848528
v -8.448527 0.000000 0.000000
v -8.448527 2.469670 0.000000
v -7.600000 0.000000 -0.848528
v -7.600000 3.000000 -0.848528
v 3.062926 0.000000 -7.007031
v 3.373877 0.000000 -5.848020
v 3.373877 3.530330 -5.848020
v 3.062926 3.000000 -7.007031
v 4.221938 0.000000 -7.317983
v 4.221938 2.469670 -7.317983
v 4.532890 0.000000 -6.158971
v 4.532890 3.000000 -6.158971
v -3.062925 0.000000 7.007031
v -3.373877 0.000000 5.848020
v -3.373877 3.530330 5.848020
v -3.062925 3.000000 7.007031
v -4.221937 0.000000 7.317983
v -4.221937 2.469670 7.317983
v -4.532889 0.000000 6.158971
v -4.532889 3.000000 6.158971
v -4.536805 0.000000 -6.156087
v -3.377596 0.000000 -5.845873
v -3.377596 3.530330 -5.845873
v -4.536805 3.000000 -6.156087
v -4.226591 0.000000 -7.315296
v -4.226591 2.469670 -7.315296
v -3.067381 0.000000 -7.005083
v -3.067381 3.000000 -7.005083
v 4.536805 0.000000 6.156087
v 3.377596 0.000000 5.845873
v 3.377596 3.530330 5.845873
v 4.536805 3.000000 6.156087
v 4.226591 0.000000 7.315296
v 4.226591 2.469670 7.315296
v 3.067381 0.000000 7.005082
v 3.067381 3.000000 7.005082
v 0.359623 0.250000 -7.320287
v 0.000000 0.250000 -7.329115
v 0.718380 0.250000 -7.293823
v 1.075405 0.250000 -7.249790
v 1.429839 0.250000 -7.188289
v 1.780830 0.250000 -7.109471
v 2.127530 0.250000 -7.013526
v 2.469105 0.250000 -6.900685
v 2.804731 0.250000 -6.771220
v 3.133600 0.250000 -6.625443
v 3.454921 0.250000 -6.463703
v 3.767919 0.250000 -6.286392
v 4.071838 0.250000 -6.093937
v 4.365949 0.250000 -5.886800
v 4.649542 0.250000 -5.665483
v 4.921933 0.250000 -5.430516
v 5.182467 0.250000 -5.182467
v 5.430516 0.250000 -4.921933
v 5.665483 0.250000 -4.649542
v 5.886800 0.250000 -4.365949
v 6.093937 0.250000 -4.071838
v 6.286392 0.250000 -3.767919
v 6.463703 0.250000 -3.454921
v 6.625443 0.250000 -3.133600
v 6.771220 0.250000 -2.804731
v 6.900685 0.250000 -2.469105
v 7.013526 0.250000 -2.127530
v 7.109471 0.250000 -1.780830
v 7.188289 0.250000 -1.429839
v 7.249790 0.250000 -1.075405
v 7.293823 0.250000 -0.718380
v 7.320287 0.250000 -0.359623
v 7.329115 0.250000 -0.000000
v 7.320287 0.250000 0.359623
v 7.293823 0.250000 0.718380
v 7.249790 0.250000 1.075405
v 7.188289 0.250000 1.429839
v 7.109471 0.250000 1.780830
v 7.013526 0.250000 2.127530
v 6.900685 0.250000 2.469105
v 6.771220 0.250000 2.804731
v 6.625443 0.250000 3.133600
v 6.463703 0.250000 3.454921
v 6.286392 0.250000 3.767919
v 6.093937 0.250000 4.071838
v 5.886800 0.250000 4.365949
v 5.665483 0.250000 4.649542
v 5.430516 0.250000 4.921933
v 5.182467 0.250000 5.182467
v 4.921933 0.250000 5.430516
v 4.649542 0.250000 5.665483
v 4.365949 0.250000 5.886800
v 4.071838 0.250000 6.093937
v 3.767919 0.250000 6.286392
v 3.454921 0.250000 6.463703
v 3.133600 0.250000 6.625443
v 2.804731 0.250000 6.771220
v 2.469105 0.250000 6.900685
v 2.127530 0.250000 7.013526
v 1.780830 0.250000 7.109471
v 1.429839 0.250000 7.188289
v 1.075405 0.250000 7.249790
v 0.718380 0.250000 7.293823
v 0.359623 0.250000 7.320287
v 0.000000 0.250000 7.329115
v -0.359623 0.250000 7.320287
v -0.718380 0.250000 7.293823
v -1.075405 0.250000 7.249790
v -1.429839 0.250000 7.188289
v -1.780830 0.250000 7.109471
v -2.127530 0.250000 7.013526
v -2.469105 0.250000 6.900685
v -2.804731 0.250000 6.771220
v -3.133600 0.250000 6.625443
v -3.454921 0.250000 6.463703
v -3.767919 0.250000 6.286392
v -4.071838 0.250000 6.093937
v -4.365949 0.250000 5.886800
v -4.649542 0.250000 5.665483
v -4.921933 0.250000 5.430516
v -5.182467 0.250000 5.182467
v -5.430516 0.250000 4.921933
v -5.665483 0.250000 4.649542
v -5.886800 0.250000 4.365949
v -6.093937 0.250000 4.071838
v -6.286392 0.250000 3.767919
v -6.463703 0.250000 3.454921
v -6.625443 0.250000 3.133600
v -6.771220 0.250000 2.804731
v -6.900685 0.250000 2.469105
v -7.013526 0.250000 2.127530
v -7.109471 0.250000 1.780830
v -7.188289 0.250000 1.429839
v -7.249790 0.250000 1.075405
v -7.293823 0.250000 0.718380
v -7.320287 0.250000 0.359623
v -7.329115 0.250000 -0.000000
v -7.320287 0.250000 -0.359623
v -7.293823 0.250000 -0.718380
v -7.249790 0.250000 -1.075405
v -7.188289 0.250000 -1.429839
v -7.109471 0.250000 -1.780830
v -7.013526 0.250000 -2.127530
v -6.900685 0.250000 -2.469105
v -6.771220 0.250000 -2.804731
v -6.625443 0.250000 -3.133600
v -6.463703 0.250000 -3.454921
v -6.286392 0.250000 -3.767919
v -6.093937 0.250000 -4.071838
v -5.886800 0.250000 -4.365949
v -5.665483 0.250000 -4.649542
v -5.430516 0.250000 -4.921933
v -5.182467 0.250000 -5.182467
v -4.921933 0.250000 -5.430516
v -4.649542 0.250000 -5.665483
v -4.365949 0.250000 -5.886800
v -4.071838 0.250000 -6.093937
v -3.767919 0.250000 -6.286392
v -3.454921 0.250000 -6.463703
v -3.133600 0.250000 -6.625443
v -2.804731 0.250000 -6.771220
v -2.469105 0.250000 -6.900685
v -2.127530 0.250000 -7.013526
v -1.780830 0.250000 -7.109471
v -1.429839 0.250000 -7.188289
v -1.075405 0.250000 -7.249790
v -0.718380 0.250000 -7.293823
v -0.359623 0.250000 -7.320287
vn 0.0245 -0.0000 -0.9997
vn 0.0736 -0.0000 -0.9973
vn 0.1224 -0.0000 -0.9925
vn 0.1710 -0.0000 -0.9853
vn 0.2191 -0.0000 -0.9757
vn 0.2667 -0.0000 -0.9638
vn 0.3137 -0.0000 -0.9495
vn 0.3599 -0.0000 -0.9330
vn 0.4052 -0.0000 -0.9142
vn 0.4496 -0.0000 -0.8932
vn 0.4929 -0.0000 -0.8701
vn 0.5350 -0.0000 -0.8449
vn 0.5758 -0.0000 -0.8176
vn 0.6152 -0.0000 -0.7883
vn 0.6532 -0.0000 -0.7572
vn 0.6895 -0.0000 -0.7242
vn 0.7242 -0.0000 -0.6895
vn 0.7572 -0.0000 -0.6532
vn 0.7883 -0.0000 -0.6152
vn 0.8176 -0.0000 -0.5758
vn 0.8449 -0.0000 -0.5350
vn 0.8701 -0.0000 -0.4929
vn 0.8932 -0.0000 -0.4496
vn 0.9142 -0.0000 -0.4052
vn 0.9330 -0.0000 -0.3599
vn 0.9495 -0.0000 -0.3137
vn 0.9638 -0.0000 -0.2667
vn 0.9757 -0.0000 -0.2191
vn 0.9853 -0.0000 -0.1710
vn 0.9925 -0.0000 -0.1224
vn 0.9973 -0.0000 -0.0736
vn 0.9997 -0.0000 -0.0245
vn 0.9997 -0.0000 0.0245
vn 0.9973 -0.0000 0.0736
vn 0.9925 -0.0000 0.1224
vn 0.9853 -0.0000 0.1710
vn 0.9757 -0.0000 0.2191
vn 0.9638 -0.0000 0.2667
vn 0.9495 -0.0000 0.3137
vn 0.9330 -0.0000 0.3599
vn 0.9142 -0.0000 0.4052
vn 0.8932 -0.0000 0.4496
vn 0.8701 -0.0000 0.4929
vn 0.8449 -0.0000 0.5350
vn 0.8176 -0.0000 0.5758
vn 0.7883 -0.0000 0.6152
vn 0.7572 -0.0000 0.6532
vn 0.7242 -0.0000 0.6895
vn 0.6895 -0.0000 0.7242
vn 0.6532 -0.0000 0.7572
vn 0.6152 -0.0000 0.7883
vn 0.5758 -0.0000 0.8176
vn 0.5350 -0.0000 0.8449
vn 0.4929 -0.0000 0.8701
vn 0.4496 -0.0000 0.8932
vn 0.4052 -0.0000 0.9142
vn 0.3599 -0.0000 0.9330
vn 0.3137 -0.0000 0.9495
vn 0.2667 -0.0000 0.9638
vn 0.2191 -0.0000 0.9757
vn 0.1710 -0.0000 0.9853
vn 0.1224 -0.0000 0.9925
vn 0.0736 -0.0000 0.9973
vn 0.0245 -0.0000 0.9997
vn -0.0245 -0.0000 0.9997
vn -0.0736 -0.0000 0.9973
vn -0.1224 -0.0000 0.9925
vn -0.1710 -0.0000 0.9853
vn -0.2191 -0.0000 0.9757
vn -0.2667 -0.0000 0.9638
vn -0.3137 -0.0000 0.9495
vn -0.3599 -0.0000 0.9330
vn -0.4052 -0.0000 0.9142
vn -0.4496 -0.0000 0.8932
vn -0.4929 -0.0000 0.8701
vn -0.5350 -0.0000 0.8449
vn -0.5758 -0.0000 0.8176
vn -0.6152 -0.0000 0.7883
vn -0.6532 -0.0000 0.7572
vn -0.6895 -0.0000 0.7242
vn -0.7242 -0.0000 0.6895
vn -0.7572 -0.0000 0.6532
vn -0.7883 -0.0000 0.6152
vn -0.8176 -0.0000 0.5758
vn -0.8449 -0.0000 0.5350
vn -0.8701 -0.0000 0.4929
vn -0.8932 -0.0000 0.4496
vn -0.9142 -0.0000 0.4052
vn -0.9330 -0.0000 0.3599
vn -0.9495 -0.0000 0.3137
vn -0.9638 -0.0000 0.2667
vn -0.9757 -0.0000 0.2191
vn -0.9853 -0.0000 0.1710
vn -0.9925 -0.0000 0.1224
vn -0.9973 -0.0000 0.0736
vn -0.9997 -0.0000 0.0245
vn -0.9997 -0.0000 -0.0245
vn -0.9973 -0.0000 -0.0736
vn -0.9925 -0.0000 -0.1224
vn -0.9853 -0.0000 -0.1710
vn -0.9757 -0.0000 -0.2191
vn -0.9638 -0.0000 -0.2667
vn -0.9495 -0.0000 -0.3137
vn -0.9330 -0.0000 -0.3599
vn -0.9142 -0.0000 -0.4052
vn -0.8932 -0.0000 -0.4496
vn -0.8701 -0.0000 -0.4929
vn -0.8449 -0.0000 -0.5350
vn -0.8176 -0.0000 -0.5758
vn -0.7883 -0.0000 -0.6152
vn -0.7572 -0.0000 -0.6532
vn -0.7242 -0.0000 -0.6895
vn -0.6895 -0.0000 -0.7242
vn -0.6532 -0.0000 -0.7572
vn -0.6152 -0.0000 -0.7883
vn -0.5758 -0.0000 -0.8176
vn -0.5350 -0.0000 -0.8449
vn -0.4929 -0.0000 -0.8701
vn -0.4496 -0.0000 -0.8932
vn -0.4052 -0.0000 -0.9142
vn -0.3599 -0.0000 -0.9330
vn -0.3137 -0.0000 -0.9495
vn -0.2667 -0.0000 -0.9638
vn -0.2191 -0.0000 -0.9757
vn -0.1710 -0.0000 -0.9853
vn -0.1224 -0.0000 -0.9925
vn -0.0736 -0.0000 -0.9973
vn -0.0245 -0.0000 -0.9997
vn -0.0000 -1.0000 -0.0000
vn -0.0000 1.0000 -0.0000
vn -0.7071 -0.0000 -0.7071
vn 0.7071 -0.0000 -0.7071
vn 0.7071 -0.0000 0.7071
vn -0.7071 -0.0000 0.7071
vn 0.5300 0.8480 -0.0000
vn 0.5300 -0.8480 -0.0000
vn -0.9658 -0.0000 0.2591
vn -0.2591 -0.0000 -0.9658
vn 0.9658 -0.0000 -0.2591
vn 0.2591 -0.0000 0.9658
vn 0.2649 0.8480 -0.4591
vn 0.2649 -0.8480 -0.4591
vn 0.2585 -0.0000 -0.9660
vn 0.9660 -0.0000 0.2585
vn -0.2585 -0.0000 0.9660
vn -0.9660 -0.0000 -0.2585
vn 0.2651 -0.8480 0.4589
vn 0.2651 0.8480 0.4589
vt 1.000000 0.500000
vt 1.000000 1.000000
vt 0.992188 1.000000
vt 0.992188 0.500000
vt 0.984375 1.000000
vt 0.984375 0.500000
vt 0.976562 1.000000
vt 0.976562 0.500000
vt 0.968750 1.000000
vt 0.968750 0.500000
vt 0.960938 1.000000
vt 0.960938 0.500000
vt 0.953125 1.000000
vt 0.953125 0.500000
vt 0.945312 1.000000
vt 0.945312 0.500000
vt 0.937500 1.000000
vt 0.937500 0.500000
vt 0.929688 1.000000
vt 0.929688 0.500000
vt 0.921875 1.000000
vt 0.921875 0.500000
vt 0.914062 1.000000
vt 0.914062 0.500000
vt 0.906250 1.000000
vt 0.906250 0.500000
vt 0.898438 1.000000
vt 0.898438 0.500000
vt 0.890625 1.000000
vt 0.890625 0.500000
vt 0.882812 1.000000
vt 0.882812 0.500000
vt 0.875000 1.000000
vt 0.875000 0.500000
vt 0.867188 1.000000
vt 0.867188 0.500000
vt 0.859375 1.000000
vt 0.859375 0.500000
vt 0.851562 1.000000
vt 0.851562 0.500000
vt 0.843750 1.000000
vt 0.843750 0.500000
vt 0.835938 1.000000
vt 0.835938 0.500000
vt 0.828125 1.000000
vt 0.828125 0.500000
vt 0.820312 1.000000
vt 0.820312 0.500000
vt 0.812500 1.000000
vt 0.812500 0.500000
vt 0.804688 1.000000
vt 0.804688 0.500000
vt 0.796875 1.000000
vt 0.796875 0.500000
vt 0.789062 1.000000
vt 0.789062 0.500000
vt 0.781250 1.000000
vt 0.781250 0.500000
vt 0.773438 1.000000
vt 0.773438 0.500000
vt 0.765625 1.000000
vt 0.765625 0.500000
vt 0.757812 1.000000
vt 0.757812 0.500000
vt 0.750000 1.000000
vt 0.750000 0.500000
vt 0.742188 1.000000
vt 0.742188 0.500000
vt 0.734375 1.000000
vt 0.734375 0.500000
vt 0.726562 1.000000
vt 0.726562 0.500000
vt 0.718750 1.000000
vt 0.718750 0.500000
vt 0.710938 1.000000
vt 0.710938 0.500000
vt 0.703125 1.000000
vt 0.703125 0.500000
vt 0.695312 1.000000
vt 0.695312 0.500000
vt 0.687500 1.000000
vt 0.687500 0.500000
vt 0.679688 1.000000
vt 0.679688 0.500000
vt 0.671875 1.000000
vt 0.671875 0.500000
vt 0.664062 1.000000
vt 0.664062 0.500000
vt 0.656250 1.000000
vt 0.656250 0.500000
vt 0.648438 1.000000
vt 0.648438 0.500000
vt 0.640625 1.000000
vt 0.640625 0.500000
vt 0.632812 1.000000
vt 0.632812 0.500000
vt 0.625000 1.000000
vt 0.625000 0.500000
vt 0.617188 1.000000
vt 0.617188 0.500000
vt 0.609375 1.000000
vt 0.609375 0.500000
vt 0.601562 1.000000
vt 0.601562 0.500000
vt 0.593750 1.000000
vt 0.593750 0.500000
vt 0.585938 1.000000
vt 0.585938 0.500000
vt 0.578125 1.000000
vt 0.578125 0.500000
vt 0.570312 1.000000
vt 0.570312 0.500000
vt 0.562500 1.000000
vt 0.562500 0.500000
vt 0.554688 1.000000
vt 0.554688 0.500000
vt 0.546875 1.000000
vt 0.546875 0.500000
vt 0.539062 1.000000
vt 0.539062 0.500000
vt 0.531250 1.000000
vt 0.531250 0.500000
vt 0.523438 1.000000
vt 0.523438 0.500000
vt 0.515625 1.000000
vt 0.515625 0.500000
vt 0.507812 1.000000
vt 0.507812 0.500000
vt 0.500000 1.000000
vt 0.500000 0.500000
vt 0.492188 1.000000
vt 0.492188 0.500000
vt 0.484375 1.000000
vt 0.484375 0.500000
vt 0.476562 1.000000
vt 0.476562 0.500000
vt 0.468750 1.000000
vt 0.468750 0.500000
vt 0.460938 1.000000
vt 0.460938 0.500000
vt 0.453125 1.000000
vt 0.453125 0.500000
vt 0.445312 1.000000
vt 0.445312 0.500000
vt 0.437500 1.000000
vt 0.437500 0.500000
vt 0.429688 1.000000
vt 0.429688 0.500000
vt 0.421875 1.000000
vt 0.421875 0.500000
vt 0.414062 1.000000
vt 0.414062 0.500000
vt 0.406250 1.000000
vt 0.406250 0.500000
vt 0.398438 1.000000
vt 0.398438 0.500000
vt 0.390625 1.000000
vt 0.390625 0.500000
vt 0.382812 1.000000
vt 0.382812 0.500000
vt 0.375000 1.000000
vt 0.375000 0.500000
vt 0.367188 1.000000
vt 0.367188 0.500000
vt 0.359375 1.000000
vt 0.359375 0.500000
vt 0.351562 1.000000
vt 0.351562 0.500000
vt 0.343750 1.000000
vt 0.343750 0.500000
vt 0.335938 1.000000
vt 0.335938 0.500000
vt 0.328125 1.000000
vt 0.328125 0.500000
vt 0.320312 1.000000
vt 0.320312 0.500000
vt 0.312500 1.000000
vt 0.312500 0.500000
vt 0.304688 1.000000
vt 0.304688 0.500000
vt 0.296875 1.000000
vt 0.296875 0.500000
vt 0.289062 1.000000
vt 0.289062 0.500000
vt 0.281250 1.000000
vt 0.281250 0.500000
vt 0.273438 1.000000
vt 0.273438 0.500000
vt 0.265625 1.000000
vt 0.265625 0.500000
vt 0.257812 1.000000
vt 0.257812 0.500000
vt 0.250000 1.000000
vt 0.250000 0.500000
vt 0.242188 1.000000
vt 0.242188 0.500000
vt 0.234375 1.000000
vt 0.234375 0.500000
vt 0.226562 1.000000
vt 0.226562 0.500000
vt 0.218750 1.000000
vt 0.218750 0.500000
vt 0.210938 1.000000
vt 0.210938 0.500000
vt 0.203125 1.000000
vt 0.203125 0.500000
vt 0.195312 1.000000
vt 0.195312 0.500000
vt 0.187500 1.000000
vt 0.187500 0.500000
vt 0.179688 1.000000
vt 0.179688 0.500000
vt 0.171875 1.000000
vt 0.171875 0.500000
vt 0.164062 1.000000
vt 0.164062 0.500000
vt 0.156250 1.000000
vt 0.156250 0.500000
vt 0.148438 1.000000
vt 0.148438 0.500000
vt 0.140625 1.000000
vt 0.140625 0.500000
vt 0.132812 1.000000
vt 0.132812 0.500000
vt 0.125000 1.000000
vt 0.125000 0.500000
vt 0.117188 1.000000
vt 0.117188 0.500000
vt 0.109375 1.000000
vt 0.109375 0.500000
vt 0.101562 1.000000
vt 0.101562 0.500000
vt 0.093750 1.000000
vt 0.093750 0.500000
vt 0.085938 1.000000
vt 0.085938 0.500000
vt 0.078125 1.000000
vt 0.078125 0.500000
vt 0.070312 1.000000
vt 0.070312 0.500000
vt 0.062500 1.000000
vt 0.062500 0.500000
vt 0.054688 1.000000
vt 0.054688 0.500000
vt 0.046875 1.000000
vt 0.046875 0.500000
vt 0.039062 1.000000
vt 0.039062 0.500000
vt 0.031250 1.000000
vt 0.031250 0.500000
vt 0.023438 1.000000
vt 0.023438 0.500000
vt 0.015625 1.000000
vt 0.015625 0.500000
vt 0.073396 0.119022
vt 0.080036 0.110514
vt 0.007812 1.000000
vt 0.007812 0.500000
vt 0.000000 1.000000
vt 0.000000 0.500000
vt 0.750000 0.490000
vt 0.761776 0.489711
vt 0.773524 0.488844
vt 0.785215 0.487402
vt 0.796822 0.485388
vt 0.808315 0.482808
vt 0.819668 0.479666
vt 0.830854 0.475971
vt 0.841844 0.471731
vt 0.852613 0.466957
vt 0.863135 0.461661
vt 0.873385 0.455855
vt 0.883337 0.449553
vt 0.892968 0.442770
vt 0.902254 0.435522
vt 0.911174 0.427828
vt 0.919706 0.419706
vt 0.927828 0.411174
vt 0.935522 0.402254
vt 0.942770 0.392968
vt 0.949553 0.383337
vt 0.955855 0.373385
vt 0.961661 0.363135
vt 0.966957 0.352613
vt 0.971731 0.341844
vt 0.975971 0.330854
vt 0.979666 0.319668
vt 0.982808 0.308315
vt 0.985388 0.296822
vt 0.987402 0.285215
vt 0.988844 0.273524
vt 0.989711 0.261776
vt 0.990000 0.250000
vt 0.989711 0.238224
vt 0.988844 0.226476
vt 0.987402 0.214785
vt 0.985388 0.203178
vt 0.982808 0.191685
vt 0.979666 0.180332
vt 0.975971 0.169146
vt 0.971731 0.158156
vt 0.966957 0.147387
vt 0.961661 0.136865
vt 0.955855 0.126615
vt 0.949553 0.116663
vt 0.942770 0.107032
vt 0.935522 0.097746
vt 0.927828 0.088826
vt 0.919706 0.080294
vt 0.911174 0.072172
vt 0.902254 0.064477
vt 0.892968 0.057230
vt 0.883337 0.050447
vt 0.873385 0.044145
vt 0.863135 0.038339
vt 0.852613 0.033043
vt 0.841844 0.028269
vt 0.830854 0.024029
vt 0.819668 0.020334
vt 0.808315 0.017192
vt 0.796822 0.014612
vt 0.785215 0.012598
vt 0.773524 0.011156
vt 0.761776 0.010289
vt 0.750000 0.010000
vt 0.738224 0.010289
vt 0.726476 0.011156
vt 0.714785 0.012598
vt 0.703178 0.014612
vt 0.691685 0.017192
vt 0.680332 0.020334
vt 0.669146 0.024029
vt 0.658156 0.028269
vt 0.647387 0.033043
vt 0.636865 0.038339
vt 0.626615 0.044145
vt 0.616663 0.050447
vt 0.607032 0.057230
vt 0.597746 0.064477
vt 0.588826 0.072172
vt 0.580294 0.080294
vt 0.572172 0.088826
vt 0.564478 0.097746
vt 0.557230 0.107032
vt 0.550447 0.116663
vt 0.544145 0.126615
vt 0.538339 0.136865
vt 0.533043 0.147387
vt 0.528269 0.158156
vt 0.524029 0.169146
vt 0.520334 0.180332
vt 0.517192 0.191685
vt 0.514612 0.203178
vt 0.512598 0.214785
vt 0.511156 0.226476
vt 0.510289 0.238224
vt 0.510000 0.250000
vt 0.510289 0.261776
vt 0.511156 0.273524
vt 0.512598 0.285215
vt 0.514612 0.296822
vt 0.517192 0.308315
vt 0.520334 0.319668
vt 0.524029 0.330854
vt 0.528269 0.341844
vt 0.533043 0.352613
vt 0.538339 0.363135
vt 0.544145 0.373385
vt 0.550447 0.383337
vt 0.557230 0.392968
vt 0.564478 0.402254
vt 0.572172 0.411174
vt 0.580294 0.419706
vt 0.588826 0.427828
vt 0.597746 0.435522
vt 0.607032 0.442770
vt 0.616663 0.449553
vt 0.626615 0.455855
vt 0.636865 0.461661
vt 0.647387 0.466957
vt 0.658156 0.471731
vt 0.669146 0.475971
vt 0.680332 0.479666
vt 0.691685 0.482808
vt 0.703178 0.485388
vt 0.714785 0.487402
vt 0.726476 0.488844
vt 0.738224 0.489711
vt 0.250000 0.469874
vt 0.260789 0.469609
vt 0.261776 0.489711
vt 0.250000 0.490000
vt 0.271551 0.468815
vt 0.273524 0.488844
vt 0.282262 0.467494
vt 0.285215 0.487402
vt 0.292895 0.465649
vt 0.296822 0.485388
vt 0.303425 0.463284
vt 0.308315 0.482808
vt 0.313826 0.460406
vt 0.319668 0.479666
vt 0.324073 0.457021
vt 0.330854 0.475971
vt 0.334142 0.453137
vt 0.341844 0.471731
vt 0.344008 0.448763
vt 0.352613 0.466957
vt 0.353648 0.443911
vt 0.363135 0.461661
vt 0.363038 0.438592
vt 0.373385 0.455855
vt 0.372155 0.432818
vt 0.383337 0.449553
vt 0.380978 0.426604
vt 0.392968 0.442770
vt 0.389486 0.419965
vt 0.402254 0.435522
vt 0.397658 0.412915
vt 0.411174 0.427828
vt 0.405474 0.405474
vt 0.419706 0.419706
vt 0.412915 0.397658
vt 0.427828 0.411174
vt 0.419964 0.389486
vt 0.435522 0.402254
vt 0.426604 0.380978
vt 0.442770 0.392968
vt 0.432818 0.372155
vt 0.449553 0.383337
vt 0.438592 0.363038
vt 0.455855 0.373385
vt 0.443911 0.353648
vt 0.461661 0.363135
vt 0.448763 0.344008
vt 0.466957 0.352613
vt 0.453137 0.334142
vt 0.471731 0.341844
vt 0.457020 0.324073
vt 0.475971 0.330854
vt 0.460406 0.313826
vt 0.479666 0.319668
vt 0.463284 0.303425
vt 0.482808 0.308315
vt 0.465649 0.292895
vt 0.485388 0.296822
vt 0.467494 0.282262
vt 0.487402 0.285215
vt 0.468815 0.271551
vt 0.488844 0.273524
vt 0.469609 0.260789
vt 0.489711 0.261776
vt 0.469873 0.250000
vt 0.490000 0.250000
vt 0.469608 0.239211
vt 0.489711 0.238224
vt 0.468815 0.228449
vt 0.488844 0.226476
vt 0.467494 0.217738
vt 0.487402 0.214785
vt 0.465649 0.207105
vt 0.485388 0.203178
vt 0.463284 0.196575
vt 0.482808 0.191685
vt 0.460406 0.186174
vt 0.479666 0.180332
vt 0.457020 0.175927
vt 0.475971 0.169146
vt 0.453136 0.165858
vt 0.471731 0.158156
vt 0.448763 0.155992
vt 0.466957 0.147387
vt 0.443911 0.146352
vt 0.461661 0.136865
vt 0.438592 0.136962
vt 0.455855 0.126615
vt 0.432818 0.127845
vt 0.449553 0.116663
vt 0.426604 0.119022
vt 0.442770 0.107032
vt 0.419964 0.110514
vt 0.435522 0.097746
vt 0.412915 0.102342
vt 0.427828 0.088826
vt 0.405474 0.094526
vt 0.419706 0.080294
vt 0.397658 0.087085
vt 0.411174 0.072172
vt 0.389486 0.080036
vt 0.402254 0.064477
vt 0.380978 0.073396
vt 0.392968 0.057230
vt 0.372155 0.067182
vt 0.383337 0.050447
vt 0.363037 0.061408
vt 0.373385 0.044145
vt 0.353648 0.056089
vt 0.363135 0.038339
vt 0.344008 0.051237
vt 0.352613 0.033043
vt 0.334142 0.046863
vt 0.341844 0.028269
vt 0.324073 0.042979
vt 0.330854 0.024029
vt 0.313826 0.039594
vt 0.319668 0.020334
vt 0.303425 0.036716
vt 0.308315 0.017192
vt 0.292895 0.034351
vt 0.296822 0.014612
vt 0.282262 0.032506
vt 0.285215 0.012598
vt 0.271551 0.031185
vt 0.273524 0.011156
vt 0.260789 0.030391
vt 0.261776 0.010289
vt 0.250000 0.030127
vt 0.250000 0.010000
vt 0.239211 0.030391
vt 0.238224 0.010289
vt 0.228449 0.031185
vt 0.226476 0.011156
vt 0.217738 0.032506
vt 0.214785 0.012598
vt 0.207105 0.034351
vt 0.203178 0.014612
vt 0.196575 0.036716
vt 0.191685 0.017192
vt 0.186174 0.039594
vt 0.180332 0.020334
vt 0.175927 0.042979
vt 0.169146 0.024029
vt 0.165858 0.046863
vt 0.158156 0.028269
vt 0.155992 0.051237
vt 0.147387 0.033043
vt 0.146352 0.056089
vt 0.136865 0.038339
vt 0.136962 0.061408
vt 0.126615 0.044145
vt 0.127845 0.067182
vt 0.116663 0.050447
vt 0.119022 0.073396
vt 0.107032 0.057230
vt 0.110514 0.080036
vt 0.097746 0.064477
vt 0.102342 0.087085
vt 0.088826 0.072172
vt 0.094526 0.094526
vt 0.080294 0.080294
vt 0.087085 0.102342
vt 0.072172 0.088826
vt 0.064477 0.097746
vt 0.057230 0.107032
vt 0.067182 0.127845
vt 0.050447 0.116663
vt 0.061408 0.136962
vt 0.044145 0.126615
vt 0.056089 0.146352
vt 0.038339 0.136865
vt 0.051237 0.155992
vt 0.033043 0.147387
vt 0.046863 0.165858
vt 0.028269 0.158156
vt 0.042979 0.175927
vt 0.024029 0.169146
vt 0.039594 0.186174
vt 0.020334 0.180332
vt 0.036716 0.196575
vt 0.017192 0.191685
vt 0.034351 0.207105
vt 0.014612 0.203178
vt 0.032506 0.217738
vt 0.012598 0.214785
vt 0.031185 0.228449
vt 0.011156 0.226476
vt 0.030391 0.239211
vt 0.010289 0.238224
vt 0.030127 0.250000
vt 0.010000 0.250000
vt 0.030391 0.260789
vt 0.010289 0.261776
vt 0.031185 0.271551
vt 0.011156 0.273524
vt 0.032506 0.282262
vt 0.012598 0.285215
vt 0.034351 0.292895
vt 0.014612 0.296822
vt 0.036716 0.303425
vt 0.017192 0.308315
vt 0.039594 0.313826
vt 0.020334 0.319668
vt 0.042979 0.324073
vt 0.024029 0.330854
vt 0.046863 0.334142
vt 0.028269 0.341844
vt 0.051237 0.344008
vt 0.033043 0.352613
vt 0.056089 0.353648
vt 0.038339 0.363135
vt 0.061408 0.363038
vt 0.044145 0.373385
vt 0.067182 0.372155
vt 0.050447 0.383337
vt 0.073396 0.380978
vt 0.057230 0.392968
vt 0.080036 0.389486
vt 0.064477 0.402254
vt 0.087085 0.397658
vt 0.072172 0.411174
vt 0.094526 0.405474
vt 0.080294 0.419706
vt 0.102342 0.412916
vt 0.088826 0.427828
vt 0.110514 0.419964
vt 0.097746 0.435522
vt 0.119022 0.426604
vt 0.107032 0.442770
vt 0.127845 0.432818
vt 0.116663 0.449553
vt 0.136962 0.438592
vt 0.126615 0.455855
vt 0.146352 0.443911
vt 0.136865 0.461661
vt 0.155992 0.448763
vt 0.147387 0.466957
vt 0.165858 0.453137
vt 0.158156 0.471731
vt 0.175927 0.457021
vt 0.169146 0.475971
vt 0.186174 0.460406
vt 0.180332 0.479666
vt 0.196575 0.463284
vt 0.191685 0.482808
vt 0.207105 0.465649
vt 0.203178 0.485388
vt 0.217738 0.467494
vt 0.214785 0.487402
vt 0.228449 0.468815
vt 0.226476 0.488844
vt 0.239211 0.469609
vt 0.238224 0.489711
vt 0.259624 0.445897
vt 0.250000 0.446133
vt 0.240376 0.445897
vt 0.230776 0.445189
vt 0.221221 0.444010
vt 0.211736 0.442364
vt 0.202344 0.440255
vt 0.193066 0.437688
vt 0.183925 0.434668
vt 0.174943 0.431203
vt 0.166142 0.427302
vt 0.157544 0.422974
vt 0.149168 0.418229
vt 0.141034 0.413079
vt 0.133164 0.407536
vt 0.125575 0.401613
vt 0.118285 0.395325
vt 0.111313 0.388687
vt 0.104675 0.381715
vt 0.098387 0.374425
vt 0.092465 0.366837
vt 0.086921 0.358966
vt 0.081771 0.350833
vt 0.077026 0.342457
vt 0.072698 0.333858
vt 0.068797 0.325057
vt 0.065332 0.316075
vt 0.062313 0.306935
vt 0.059745 0.297657
vt 0.057636 0.288264
vt 0.055990 0.278779
vt 0.054812 0.269224
vt 0.054103 0.259624
vt 0.053867 0.250000
vt 0.054103 0.240376
vt 0.054812 0.230776
vt 0.055990 0.221221
vt 0.057636 0.211737
vt 0.059745 0.202344
vt 0.062313 0.193066
vt 0.065332 0.183925
vt 0.068797 0.174943
vt 0.072698 0.166142
vt 0.077026 0.157544
vt 0.081771 0.149168
vt 0.086921 0.141034
vt 0.092465 0.133164
vt 0.098387 0.125575
vt 0.104675 0.118285
vt 0.111313 0.111313
vt 0.118285 0.104675
vt 0.125575 0.098387
vt 0.133164 0.092465
vt 0.141034 0.086921
vt 0.149167 0.081771
vt 0.157544 0.077026
vt 0.166142 0.072698
vt 0.174943 0.068797
vt 0.183925 0.065332
vt 0.193066 0.062312
vt 0.202344 0.059745
vt 0.211736 0.057636
vt 0.221221 0.055990
vt 0.230776 0.054812
vt 0.240376 0.054103
vt 0.250000 0.053867
vt 0.259624 0.054103
vt 0.269224 0.054812
vt 0.278779 0.055990
vt 0.288264 0.057636
vt 0.297656 0.059745
vt 0.306934 0.062312
vt 0.316075 0.065332
vt 0.325057 0.068797
vt 0.333858 0.072698
vt 0.342456 0.077026
vt 0.350833 0.081771
vt 0.358965 0.086921
vt 0.366836 0.092465
vt 0.374425 0.098387
vt 0.381715 0.104675
vt 0.388687 0.111313
vt 0.395325 0.118285
vt 0.401613 0.125575
vt 0.407535 0.133164
vt 0.413079 0.141034
vt 0.418229 0.149167
vt 0.422974 0.157544
vt 0.427302 0.166142
vt 0.431203 0.174943
vt 0.434668 0.183925
vt 0.437688 0.193066
vt 0.440255 0.202344
vt 0.442364 0.211736
vt 0.444010 0.221221
vt 0.445188 0.230776
vt 0.445897 0.240376
vt 0.446133 0.250000
vt 0.445897 0.259624
vt 0.445189 0.269224
vt 0.444010 0.278779
vt 0.442364 0.288264
vt 0.440255 0.297656
vt 0.437688 0.306934
vt 0.434668 0.316075
vt 0.431203 0.325057
vt 0.427302 0.333858
vt 0.422974 0.342456
vt 0.418229 0.350833
vt 0.413079 0.358966
vt 0.407536 0.366836
vt 0.401613 0.374425
vt 0.395325 0.381715
vt 0.388687 0.388687
vt 0.381715 0.395325
vt 0.374425 0.401613
vt 0.366836 0.407535
vt 0.358966 0.413079
vt 0.350832 0.418229
vt 0.342456 0.422974
vt 0.333858 0.427302
vt 0.325057 0.431203
vt 0.316075 0.434668
vt 0.306934 0.437688
vt 0.297656 0.440255
vt 0.288264 0.442364
vt 0.278779 0.444010
vt 0.269225 0.445189
vt 0.375000 0.000000
vt 0.625000 0.000000
vt 0.625000 0.250000
vt 0.375000 0.250000
vt 0.625000 0.750000
vt 0.375000 0.750000
vt 0.125000 0.750000
vt 0.875000 0.750000
s 0
usemtl Iron
f 1/1/1 258/2/1 257/3/1 3/4/1
f 3/4/2 257/3/2 259/5/2 5/6/2
f 5/6/3 259/5/3 260/7/3 7/8/3
f 7/8/4 260/7/4 261/9/4 9/10/4
f 9/10/5 261/9/5 262/11/5 11/12/5
f 11/12/6 262/11/6 263/13/6 13/14/6
f 13/14/7 263/13/7 264/15/7 15/16/7
f 15/16/8 264/15/8 265/17/8 17/18/8
f 17/18/9 265/17/9 266/19/9 19/20/9
f 19/20/10 266/19/10 267/21/10 21/22/10
f 21/22/11 267/21/11 268/23/11 23/24/11
f 23/24/12 268/23/12 269/25/12 25/26/12
f 25/26/13 269/25/13 270/27/13 27/28/13
f 27/28/14 270/27/14 271/29/14 29/30/14
f 29/30/15 271/29/15 272/31/15 31/32/15
f 31/32/16 272/31/16 273/33/16 33/34/16
f 33/34/17 273/33/17 274/35/17 35/36/17
f 35/36/18 274/35/18 275/37/18 37/38/18
f 37/38/19 275/37/19 276/39/19 39/40/19
f 39/40/20 276/39/20 277/41/20 41/42/20
f 41/42/21 277/41/21 278/43/21 43/44/21
f 43/44/22 278/43/22 279/45/22 45/46/22
f 45/46/23 279/45/23 280/47/23 47/48/23
f 47/48/24 280/47/24 281/49/24 49/50/24
f 49/50/25 281/49/25 282/51/25 51/52/25
f 51/52/26 282/51/26 283/53/26 53/54/26
f 53/54/27 283/53/27 284/55/27 55/56/27
f 55/56/28 284/55/28 285/57/28 57/58/28
f 57/58/29 285/57/29 286/59/29 59/60/29
f 59/60/30 286/59/30 287/61/30 61/62/30
f 61/62/31 287/61/31 288/63/31 63/64/31
f 63/64/32 288/63/32 289/65/32 65/66/32
f 65/66/33 289/65/33 290/67/33 67/68/33
f 67/68/34 290/67/34 291/69/34 69/70/34
f 69/70/35 291/69/35 292/71/35 71/72/35
f 71/72/36 292/71/36 293/73/36 73/74/36
f 73/74/37 293/73/37 294/75/37 75/76/37
f 75/76/38 294/75/38 295/77/38 77/78/38
f 77/78/39 295/77/39 296/79/39 79/80/39
f 79/80/40 296/79/40 297/81/40 81/82/40
f 81/82/41 297/81/41 298/83/41 83/84/41
f 83/84/42 298/83/42 299/85/42 85/86/42
f 85/86/43 299/85/43 300/87/43 87/88/43
f 87/88/44 300/87/44 301/89/44 89/90/44
f 89/90/45 301/89/45 302/91/45 91/92/45
f 91/92/46 302/91/46 303/93/46 93/94/46
f 93/94/47 303/93/47 304/95/47 95/96/47
f 95/96/48 304/95/48 305/97/48 97/98/48
f 97/98/49 305/97/49 306/99/49 99/100/49
f 99/100/50 306/99/50 307/101/50 101/102/50
f 101/102/51 307/101/51 308/103/51 103/104/51
f 103/104/52 308/103/52 309/105/52 105/106/52
f 105/106/53 309/105/53 310/107/53 107/108/53
f 107/108/54 310/107/54 311/109/54 109/110/54
f 109/110/55 311/109/55 312/111/55 111/112/55
f 111/112/56 312/111/56 313/113/56 113/114/56
f 113/114/57 313/113/57 314/115/57 115/116/57
f 115/116/58 314/115/58 315/117/58 117/118/58
f 117/118/59 315/117/59 316/119/59 119/120/59
f 119/120/60 316/119/60 317/121/60 121/122/60
f 121/122/61 317/121/61 318/123/61 123/124/61
f 123/124/62 318/123/62 319/125/62 125/126/62
f 125/126/63 319/125/63 320/127/63 127/128/63
f 127/128/64 320/127/64 321/129/64 129/130/64
f 129/130/65 321/129/65 322/131/65 131/132/65
f 131/132/66 322/131/66 323/133/66 133/134/66
f 133/134/67 323/133/67 324/135/67 135/136/67
f 135/136/68 324/135/68 325/137/68 137/138/68
f 137/138/69 325/137/69 326/139/69 139/140/69
f 139/140/70 326/139/70 327/141/70 141/142/70
f 141/142/71 327/141/71 328/143/71 143/144/71
f 143/144/72 328/143/72 329/145/72 145/146/72
f 145/146/73 329/145/73 330/147/73 147/148/73
f 147/148/74 330/147/74 331/149/74 149/150/74
f 149/150/75 331/149/75 332/151/75 151/152/75
f 151/152/76 332/151/76 333/153/76 153/154/76
f 153/154/77 333/153/77 334/155/77 155/156/77
f 155/156/78 334/155/78 335/157/78 157/158/78
f 157/158/79 335/157/79 336/159/79 159/160/79
f 159/160/80 336/159/80 337/161/80 161/162/80
f 161/162/81 337/161/81 338/163/81 163/164/81
f 163/164/82 338/163/82 339/165/82 165/166/82
f 165/166/83 339/165/83 340/167/83 167/168/83
f 167/168/84 340/167/84 341/169/84 169/170/84
f 169/170/85 341/169/85 342/171/85 171/172/85
f 171/172/86 342/171/86 343/173/86 173/174/86
f 173/174/87 343/173/87 344/175/87 175/176/87
f 175/176/88 344/175/88 345/177/88 177/178/88
f 177/178/89 345/177/89 346/179/89 179/180/89
f 179/180/90 346/179/90 347/181/90 181/182/90
f 181/182/91 347/181/91 348/183/91 183/184/91
f 183/184/92 348/183/92 349/185/92 185/186/92
f 185/186/93 349/185/93 350/187/93 187/188/93
f 187/188/94 350/187/94 351/189/94 189/190/94
f 189/190/95 351/189/95 352/191/95 191/192/95
f 191/192/96 352/191/96 353/193/96 193/194/96
f 193/194/97 353/193/97 354/195/97 195/196/97
f 195/196/98 354/195/98 355/197/98 197/198/98
f 197/198/99 355/197/99 356/199/99 199/200/99
f 199/200/100 356/199/100 357/201/100 201/202/100
f 201/202/101 357/201/101 358/203/101 203/204/101
f 203/204/102 358/203/102 359/205/102 205/206/102
f 205/206/103 359/205/103 360/207/103 207/208/103
f 207/208/104 360/207/104 361/209/104 209/210/104
f 209/210/105 361/209/105 362/211/105 211/212/105
f 211/212/106 362/211/106 363/213/106 213/214/106
f 213/214/107 363/213/107 364/215/107 215/216/107
f 215/216/108 364/215/108 365/217/108 217/218/108
f 217/218/109 365/217/109 366/219/109 219/220/109
f 219/220/110 366/219/110 367/221/110 221/222/110
f 221/222/111 367/221/111 368/223/111 223/224/111
f 223/224/112 368/223/112 369/225/112 225/226/112
f 225/226/113 369/225/113 370/227/113 227/228/113
f 227/228/114 370/227/114 371/229/114 229/230/114
f 229/230/115 371/229/115 372/231/115 231/232/115
f 231/232/116 372/231/116 373/233/116 233/234/116
f 233/234/117 373/233/117 374/235/117 235/236/117
f 235/236/118 374/235/118 375/237/118 237/238/118
f 237/238/119 375/237/119 376/239/119 239/240/119
f 239/240/120 376/239/120 377/241/120 241/242/120
f 241/242/121 377/241/121 378/243/121 243/244/121
f 243/244/122 378/243/122 379/245/122 245/246/122
f 245/246/123 379/245/123 380/247/123 247/248/123
f 247/248/124 380/247/124 381/249/124 249/250/124
f 249/250/125 381/249/125 382/251/125 251/252/125
f 251/252/126 382/251/126 383/253/126 253/254/126
f 168/255/19 166/256/19 643/256/19 644/255/19
f 253/254/127 383/253/127 384/257/127 255/258/127
f 255/258/128 384/257/128 258/259/128 1/260/128
f 1/261/129 3/262/129 5/263/129 7/264/129 9/265/129 11/266/129 13/267/129 15/268/129 17/269/129 19/270/129 21/271/129 23/272/129 25/273/129 27/274/129 29/275/129 31/276/129 33/277/129 35/278/129 37/279/129 39/280/129 41/281/129 43/282/129 45/283/129 47/284/129 49/285/129 51/286/129 53/287/129 55/288/129 57/289/129 59/290/129 61/291/129 63/292/129 65/293/129 67/294/129 69/295/129 71/296/129 73/297/129 75/298/129 77/299/129 79/300/129 81/301/129 83/302/129 85/303/129 87/304/129 89/305/129 91/306/129 93/307/129 95/308/129 97/309/129 99/310/129 101/311/129 103/312/129 105/313/129 107/314/129 109/315/129 111/316/129 113/317/129 115/318/129 117/319/129 119/320/129 121/321/129 123/322/129 125/323/129 127/324/129 129/325/129 131/326/129 133/327/129 135/328/129 137/329/129 139/330/129 141/331/129 143/332/129 145/333/129 147/334/129 149/335/129 151/336/129 153/337/129 155/338/129 157/339/129 159/340/129 161/341/129 163/342/129 165/343/129 167/344/129 169/345/129 171/346/129 173/347/129 175/348/129 177/349/129 179/350/129 181/351/129 183/352/129 185/353/129 187/354/129 189/355/129 191/356/129 193/357/129 195/358/129 197/359/129 199/360/129 201/361/129 203/362/129 205/363/129 207/364/129 209/365/129 211/366/129 213/367/129 215/368/129 217/369/129 219/370/129 221/371/129 223/372/129 225/373/129 227/374/129 229/375/129 231/376/129 233/377/129 235/378/129 237/379/129 239/380/129 241/381/129 243/382/129 245/383/129 247/384/129 249/385/129 251/386/129 253/387/129 255/388/129
f 2/389/130 4/390/130 257/391/130 258/392/130
f 4/390/130 6/393/130 259/394/130 257/391/130
f 6/393/130 8/395/130 260/396/130 259/394/130
f 8/395/130 10/397/130 261/398/130 260/396/130
f 10/397/130 12/399/130 262/400/130 261/398/130
f 12/399/130 14/401/130 263/402/130 262/400/130
f 14/401/130 16/403/130 264/404/130 263/402/130
f 16/403/130 18/405/130 265/406/130 264/404/130
f 18/405/130 20/407/130 266/408/130 265/406/130
f 20/407/130 22/409/130 267/410/130 266/408/130
f 22/409/130 24/411/130 268/412/130 267/410/130
f 24/411/130 26/413/130 269/414/130 268/412/130
f 26/413/130 28/415/130 270/416/130 269/414/130
f 28/415/130 30/417/130 271/418/130 270/416/130
f 30/417/130 32/419/130 272/420/130 271/418/130
f 32/419/130 34/421/130 273/422/130 272/420/130
f 34/421/130 36/423/130 274/424/130 273/422/130
f 36/423/130 38/425/130 275/426/130 274/424/130
f 38/425/130 40/427/130 276/428/130 275/426/130
f 40/427/130 42/429/130 277/430/130 276/428/130
f 42/429/130 44/431/130 278/432/130 277/430/130
f 44/431/130 46/433/130 279/434/130 278/432/130
f 46/433/130 48/435/130 280/436/130 279/434/130
f 48/435/130 50/437/130 281/438/130 280/436/130
f 50/437/130 52/439/130 282/440/130 281/438/130
f 52/439/130 54/441/130 283/442/130 282/440/130
f 54/441/130 56/443/130 284/444/130 283/442/130
f 56/443/130 58/445/130 285/446/130 284/444/130
f 58/445/130 60/447/130 286/448/130 285/446/130
f 60/447/130 62/449/130 287/450/130 286/448/130
f 62/449/130 64/451/130 288/452/130 287/450/130
f 64/451/130 66/453/130 289/454/130 288/452/130
f 66/453/130 68/455/130 290/456/130 289/454/130
f 68/455/130 70/457/130 291/458/130 290/456/130
f 70/457/130 72/459/130 292/460/130 291/458/130
f 72/459/130 74/461/130 293/462/130 292/460/130
f 74/461/130 76/463/130 294/464/130 293/462/130
f 76/463/130 78/465/130 295/466/130 294/464/130
f 78/465/130 80/467/130 296/468/130 295/466/130
f 80/467/130 82/469/130 297/470/130 296/468/130
f 82/469/130 84/471/130 298/472/130 297/470/130
f 84/471/130 86/473/130 299/474/130 298/472/130
f 86/473/130 88/475/130 300/476/130 299/474/130
f 88/475/130 90/477/130 301/478/130 300/476/130
f 90/477/130 92/479/130 302/480/130 301/478/130
f 92/479/130 94/481/130 303/482/130 302/480/130
f 94/481/130 96/483/130 304/484/130 303/482/130
f 96/483/130 98/485/130 305/486/130 304/484/130
f 98/485/130 100/487/130 306/488/130 305/486/130
f 100/487/130 102/489/130 307/490/130 306/488/130
f 102/489/130 104/491/130 308/492/130 307/490/130
f 104/491/130 106/493/130 309/494/130 308/492/130
f 106/493/130 108/495/130 310/496/130 309/494/130
f 108/495/130 110/497/130 311/498/130 310/496/130
f 110/497/130 112/499/130 312/500/130 311/498/130
f 112/499/130 114/501/130 313/502/130 312/500/130
f 114/501/130 116/503/130 314/504/130 313/502/130
f 116/503/130 118/505/130 315/506/130 314/504/130
f 118/505/130 120/507/130 316/508/130 315/506/130
f 120/507/130 122/509/130 317/510/130 316/508/130
f 122/509/130 124/511/130 318/512/130 317/510/130
f 124/511/130 126/513/130 319/514/130 318/512/130
f 126/513/130 128/515/130 320/516/130 319/514/130
f 128/515/130 130/517/130 321/518/130 320/516/130
f 130/517/130 132/519/130 322/520/130 321/518/130
f 132/519/130 134/521/130 323/522/130 322/520/130
f 134/521/130 136/523/130 324/524/130 323/522/130
f 136/523/130 138/525/130 325/526/130 324/524/130
f 138/525/130 140/527/130 326/528/130 325/526/130
f 140/527/130 142/529/130 327/530/130 326/528/130
f 142/529/130 144/531/130 328/532/130 327/530/130
f 144/531/130 146/533/130 329/534/130 328/532/130
f 146/533/130 148/535/130 330/536/130 329/534/130
f 148/535/130 150/537/130 331/538/130 330/536/130
f 150/537/130 152/539/130 332/540/130 331/538/130
f 152/539/130 154/541/130 333/542/130 332/540/130
f 154/541/130 156/543/130 334/544/130 333/542/130
f 156/543/130 158/545/130 335/546/130 334/544/130
f 158/545/130 160/547/130 336/548/130 335/546/130
f 160/547/130 162/549/130 337/550/130 336/548/130
f 162/549/130 164/551/130 338/552/130 337/550/130
f 164/551/130 166/256/130 339/553/130 338/552/130
f 166/256/130 168/255/130 340/554/130 339/553/130
f 168/255/130 170/555/130 341/556/130 340/554/130
f 170/555/130 172/557/130 342/558/130 341/556/130
f 172/557/130 174/559/130 343/560/130 342/558/130
f 174/559/130 176/561/130 344/562/130 343/560/130
f 176/561/130 178/563/130 345/564/130 344/562/130
f 178/563/130 180/565/130 346/566/130 345/564/130
f 180/565/130 182/567/130 347/568/130 346/566/130
f 182/567/130 184/569/130 348/570/130 347/568/130
f 184/569/130 186/571/130 349/572/130 348/570/130
f 186/571/130 188/573/130 350/574/130 349/572/130
f 188/573/130 190/575/130 351/576/130 350/574/130
f 190/575/130 192/577/130 352/578/130 351/576/130
f 192/577/130 194/579/130 353/580/130 352/578/130
f 194/579/130 196/581/130 354/582/130 353/580/130
f 196/581/130 198/583/130 355/584/130 354/582/130
f 198/583/130 200/585/130 356/586/130 355/584/130
f 200/585/130 202/587/130 357/588/130 356/586/130
f 202/587/130 204/589/130 358/590/130 357/588/130
f 204/589/130 206/591/130 359/592/130 358/590/130
f 206/591/130 208/593/130 360/594/130 359/592/130
f 208/593/130 210/595/130 361/596/130 360/594/130
f 210/595/130 212/597/130 362/598/130 361/596/130
f 212/597/130 214/599/130 363/600/130 362/598/130
f 214/599/130 216/601/130 364/602/130 363/600/130
f 216/601/130 218/603/130 365/604/130 364/602/130
f 218/603/130 220/605/130 366/606/130 365/604/130
f 220/605/130 222/607/130 367/608/130 366/606/130
f 222/607/130 224/609/130 368/610/130 367/608/130
f 224/609/130 226/611/130 369/612/130 368/610/130
f 226/611/130 228/613/130 370/614/130 369/612/130
f 228/613/130 230/615/130 371/616/130 370/614/130
f 230/615/130 232/617/130 372/618/130 371/616/130
f 232/617/130 234/619/130 373/620/130 372/618/130
f 234/619/130 236/621/130 374/622/130 373/620/130
f 236/621/130 238/623/130 375/624/130 374/622/130
f 238/623/130 240/625/130 376/626/130 375/624/130
f 240/625/130 242/627/130 377/628/130 376/626/130
f 242/627/130 244/629/130 378/630/130 377/628/130
f 244/629/130 246/631/130 379/632/130 378/630/130
f 246/631/130 248/633/130 380/634/130 379/632/130
f 248/633/130 250/635/130 381/636/130 380/634/130
f 250/635/130 252/637/130 382/638/130 381/636/130
f 252/637/130 254/639/130 383/640/130 382/638/130
f 254/639/130 256/641/130 384/642/130 383/640/130
f 256/641/130 2/389/130 258/392/130 384/642/130
f 66/453/96 64/451/96 592/451/96 593/453/96
f 170/555/20 168/255/20 644/255/20 645/555/20
f 68/455/97 66/453/97 593/453/97 594/455/97
f 172/557/21 170/555/21 645/555/21 646/557/21
f 70/457/98 68/455/98 594/455/98 595/457/98
f 174/559/22 172/557/22 646/557/22 647/559/22
f 72/459/99 70/457/99 595/457/99 596/459/99
f 176/561/23 174/559/23 647/559/23 648/561/23
f 74/461/100 72/459/100 596/459/100 597/461/100
f 178/563/24 176/561/24 648/561/24 649/563/24
f 76/463/101 74/461/101 597/461/101 598/463/101
f 180/565/25 178/563/25 649/563/25 650/565/25
f 78/465/102 76/463/102 598/463/102 599/465/102
f 182/567/26 180/565/26 650/565/26 651/567/26
f 80/467/103 78/465/103 599/465/103 600/467/103
f 184/569/27 182/567/27 651/567/27 652/569/27
f 82/469/104 80/467/104 600/467/104 601/469/104
f 186/571/28 184/569/28 652/569/28 653/571/28
f 84/471/105 82/469/105 601/469/105 602/471/105
f 188/573/29 186/571/29 653/571/29 654/573/29
f 86/473/106 84/471/106 602/471/106 603/473/106
f 190/575/30 188/573/30 654/573/30 655/575/30
f 88/475/107 86/473/107 603/473/107 604/475/107
f 192/577/31 190/575/31 655/575/31 656/577/31
f 90/477/108 88/475/108 604/475/108 605/477/108
f 194/579/32 192/577/32 656/577/32 657/579/32
f 92/479/109 90/477/109 605/477/109 606/479/109
f 196/581/33 194/579/33 657/579/33 658/581/33
f 94/481/110 92/479/110 606/479/110 607/481/110
f 198/583/34 196/581/34 658/581/34 659/583/34
f 96/483/111 94/481/111 607/481/111 608/483/111
f 200/585/35 198/583/35 659/583/35 660/585/35
f 98/485/112 96/483/112 608/483/112 609/485/112
f 202/587/36 200/585/36 660/585/36 661/587/36
f 100/487/113 98/485/113 609/485/113 610/487/113
f 204/589/37 202/587/37 661/587/37 662/589/37
f 102/489/114 100/487/114 610/487/114 611/489/114
f 206/591/38 204/589/38 662/589/38 663/591/38
f 104/491/115 102/489/115 611/489/115 612/491/115
f 208/593/39 206/591/39 663/591/39 664/593/39
f 106/493/116 104/491/116 612/491/116 613/493/116
f 4/390/65 2/389/65 562/389/65 561/390/65
f 210/595/40 208/593/40 664/593/40 665/595/40
f 108/495/117 106/493/117 613/493/117 614/495/117
f 6/393/66 4/390/66 561/390/66 563/393/66
f 212/597/41 210/595/41 665/595/41 666/597/41
f 110/497/118 108/495/118 614/495/118 615/497/118
f 8/395/67 6/393/67 563/393/67 564/395/67
f 214/599/42 212/597/42 666/597/42 667/599/42
f 112/499/119 110/497/119 615/497/119 616/499/119
f 10/397/68 8/395/68 564/395/68 565/397/68
f 216/601/43 214/599/43 667/599/43 668/601/43
f 114/501/120 112/499/120 616/499/120 617/501/120
f 12/399/69 10/397/69 565/397/69 566/399/69
f 218/603/44 216/601/44 668/601/44 669/603/44
f 116/503/121 114/501/121 617/501/121 618/503/121
f 14/401/70 12/399/70 566/399/70 567/401/70
f 220/605/45 218/603/45 669/603/45 670/605/45
f 118/505/122 116/503/122 618/503/122 619/505/122
f 16/403/71 14/401/71 567/401/71 568/403/71
f 222/607/46 220/605/46 670/605/46 671/607/46
f 120/507/123 118/505/123 619/505/123 620/507/123
f 18/405/72 16/403/72 568/403/72 569/405/72
f 224/609/47 222/607/47 671/607/47 672/609/47
f 122/509/124 120/507/124 620/507/124 621/509/124
f 20/407/73 18/405/73 569/405/73 570/407/73
f 226/611/48 224/609/48 672/609/48 673/611/48
f 124/511/125 122/509/125 621/509/125 622/511/125
f 22/409/74 20/407/74 570/407/74 571/409/74
f 228/613/49 226/611/49 673/611/49 674/613/49
f 126/513/126 124/511/126 622/511/126 623/513/126
f 24/411/75 22/409/75 571/409/75 572/411/75
f 230/615/50 228/613/50 674/613/50 675/615/50
f 128/515/127 126/513/127 623/513/127 624/515/127
f 26/413/76 24/411/76 572/411/76 573/413/76
f 232/617/51 230/615/51 675/615/51 676/617/51
f 130/517/128 128/515/128 624/515/128 625/517/128
f 28/415/77 26/413/77 573/413/77 574/415/77
f 234/619/52 232/617/52 676/617/52 677/619/52
f 132/519/1 130/517/1 625/517/1 626/519/1
f 30/417/78 28/415/78 574/415/78 575/417/78
f 236/621/53 234/619/53 677/619/53 678/621/53
f 134/521/2 132/519/2 626/519/2 627/521/2
f 32/419/79 30/417/79 575/417/79 576/419/79
f 238/623/54 236/621/54 678/621/54 679/623/54
f 136/523/3 134/521/3 627/521/3 628/523/3
f 34/421/80 32/419/80 576/419/80 577/421/80
f 240/625/55 238/623/55 679/623/55 680/625/55
f 138/525/4 136/523/4 628/523/4 629/525/4
f 36/423/81 34/421/81 577/421/81 578/423/81
f 242/627/56 240/625/56 680/625/56 681/627/56
f 140/527/5 138/525/5 629/525/5 630/527/5
f 38/425/82 36/423/82 578/423/82 579/425/82
f 244/629/57 242/627/57 681/627/57 682/629/57
f 142/529/6 140/527/6 630/527/6 631/529/6
f 40/427/83 38/425/83 579/425/83 580/427/83
f 246/631/58 244/629/58 682/629/58 683/631/58
f 144/531/7 142/529/7 631/529/7 632/531/7
f 42/429/84 40/427/84 580/427/84 581/429/84
f 248/633/59 246/631/59 683/631/59 684/633/59
f 146/533/8 144/531/8 632/531/8 633/533/8
f 44/431/85 42/429/85 581/429/85 582/431/85
f 250/635/60 248/633/60 684/633/60 685/635/60
f 148/535/9 146/533/9 633/533/9 634/535/9
f 46/433/86 44/431/86 582/431/86 583/433/86
f 252/637/61 250/635/61 685/635/61 686/637/61
f 150/537/10 148/535/10 634/535/10 635/537/10
f 48/435/87 46/433/87 583/433/87 584/435/87
f 254/639/62 252/637/62 686/637/62 687/639/62
f 152/539/11 150/537/11 635/537/11 636/539/11
f 50/437/88 48/435/88 584/435/88 585/437/88
f 256/641/63 254/639/63 687/639/63 688/641/63
f 154/541/12 152/539/12 636/539/12 637/541/12
f 52/439/89 50/437/89 585/437/89 586/439/89
f 2/389/64 256/641/64 688/641/64 562/389/64
f 156/543/13 154/541/13 637/541/13 638/543/13
f 54/441/90 52/439/90 586/439/90 587/441/90
f 158/545/14 156/543/14 638/543/14 639/545/14
f 56/443/91 54/441/91 587/441/91 588/443/91
f 160/547/15 158/545/15 639/545/15 640/547/15
f 58/445/92 56/443/92 588/443/92 589/445/92
f 162/549/16 160/547/16 640/547/16 641/549/16
f 60/447/93 58/445/93 589/445/93 590/447/93
f 164/551/17 162/549/17 641/549/17 642/551/17
f 62/449/94 60/447/94 590/447/94 591/449/94
f 166/256/18 164/551/18 642/551/18 643/256/18
f 64/451/95 62/449/95 591/449/95 592/451/95
f 513/771/131 514/772/131 516/773/131 515/774/131
f 515/774/132 516/773/132 520/98/132 519/162/132
f 519/162/133 520/98/133 518/775/133 517/776/133
f 517/776/134 518/775/134 514/97/134 513/161/134
f 515/226/129 519/162/129 517/776/129 513/777/129
f 520/98/135 516/34/135 514/778/135 518/775/135
f 522/771/131 521/774/131 524/773/131 523/772/131
f 521/774/132 525/162/132 526/98/132 524/773/132
f 525/162/133 527/776/133 528/775/133 526/98/133
f 527/776/134 522/161/134 523/97/134 528/775/134
f 521/226/130 522/777/130 527/776/130 525/162/130
f 526/98/136 528/775/136 523/778/136 524/34/136
f 530/771/137 531/772/137 532/773/137 529/774/137
f 529/774/138 532/773/138 534/98/138 533/162/138
f 533/162/139 534/98/139 536/775/139 535/776/139
f 535/776/140 536/775/140 531/97/140 530/161/140
f 529/226/129 533/162/129 535/776/129 530/777/129
f 534/98/141 532/34/141 531/778/141 536/775/141
f 538/771/137 537/774/137 540/773/137 539/772/137
f 537/774/138 541/162/138 542/98/138 540/773/138
f 541/162/139 543/776/139 544/775/139 542/98/139
f 543/776/140 538/161/140 539/97/140 544/775/140
f 537/226/130 538/777/130 543/776/130 541/162/130
f 542/98/142 544/775/142 539/778/142 540/34/142
f 546/771/143 545/774/143 548/773/143 547/772/143
f 545/774/144 549/162/144 550/98/144 548/773/144
f 549/162/145 551/776/145 552/775/145 550/98/145
f 551/776/146 546/161/146 547/97/146 552/775/146
f 545/226/130 546/777/130 551/776/130 549/162/130
f 550/98/147 552/775/147 547/778/147 548/34/147
f 554/771/143 555/772/143 556/773/143 553/774/143
f 553/774/144 556/773/144 558/98/144 557/162/144
f 557/162/145 558/98/145 560/775/145 559/776/145
f 559/776/146 560/775/146 555/97/146 554/161/146
f 553/226/129 557/162/129 559/776/129 554/777/129
f 558/98/148 556/34/148 555/778/148 560/775/148
usemtl Floor
f 386/644/130 385/643/130 561/390/130 562/389/130
f 385/643/130 387/770/130 563/393/130 561/390/130
f 387/770/130 388/769/130 564/395/130 563/393/130
f 388/769/130 389/768/130 565/397/130 564/395/130
f 389/768/130 390/767/130 566/399/130 565/397/130
f 390/767/130 391/766/130 567/401/130 566/399/130
f 391/766/130 392/765/130 568/403/130 567/401/130
f 392/765/130 393/764/130 569/405/130 568/403/130
f 393/764/130 394/763/130 570/407/130 569/405/130
f 394/763/130 395/762/130 571/409/130 570/407/130
f 395/762/130 396/761/130 572/411/130 571/409/130
f 396/761/130 397/760/130 573/413/130 572/411/130
f 397/760/130 398/759/130 574/415/130 573/413/130
f 398/759/130 399/758/130 575/417/130 574/415/130
f 399/758/130 400/757/130 576/419/130 575/417/130
f 400/757/130 401/756/130 577/421/130 576/419/130
f 401/756/130 402/755/130 578/423/130 577/421/130
f 402/755/130 403/754/130 579/425/130 578/423/130
f 403/754/130 404/753/130 580/427/130 579/425/130
f 404/753/130 405/752/130 581/429/130 580/427/130
f 405/752/130 406/751/130 582/431/130 581/429/130
f 406/751/130 407/750/130 583/433/130 582/431/130
f 407/750/130 408/749/130 584/435/130 583/433/130
f 408/749/130 409/748/130 585/437/130 584/435/130
f 409/748/130 410/747/130 586/439/130 585/437/130
f 410/747/130 411/746/130 587/441/130 586/439/130
f 411/746/130 412/745/130 588/443/130 587/441/130
f 412/745/130 413/744/130 589/445/130 588/443/130
f 413/744/130 414/743/130 590/447/130 589/445/130
f 414/743/130 415/742/130 591/449/130 590/447/130
f 415/742/130 416/741/130 592/451/130 591/449/130
f 416/741/130 417/740/130 593/453/130 592/451/130
f 417/740/130 418/739/130 594/455/130 593/453/130
f 418/739/130 419/738/130 595/457/130 594/455/130
f 419/738/130 420/737/130 596/459/130 595/457/130
f 420/737/130 421/736/130 597/461/130 596/459/130
f 421/736/130 422/735/130 598/463/130 597/461/130
f 422/735/130 423/734/130 599/465/130 598/463/130
f 423/734/130 424/733/130 600/467/130 599/465/130
f 424/733/130 425/732/130 601/469/130 600/467/130
f 425/732/130 426/731/130 602/471/130 601/469/130
f 426/731/130 427/730/130 603/473/130 602/471/130
f 427/730/130 428/729/130 604/475/130 603/473/130
f 428/729/130 429/728/130 605/477/130 604/475/130
f 429/728/130 430/727/130 606/479/130 605/477/130
f 430/727/130 431/726/130 607/481/130 606/479/130
f 431/726/130 432/725/130 608/483/130 607/481/130
f 432/725/130 433/724/130 609/485/130 608/483/130
f 433/724/130 434/723/130 610/487/130 609/485/130
f 434/723/130 435/722/130 611/489/130 610/487/130
f 435/722/130 436/721/130 612/491/130 611/489/130
f 436/721/130 437/720/130 613/493/130 612/491/130
f 437/720/130 438/719/130 614/495/130 613/493/130
f 438/719/130 439/718/130 615/497/130 614/495/130
f 439/718/130 440/717/130 616/499/130 615/497/130
f 440/717/130 441/716/130 617/501/130 616/499/130
f 441/716/130 442/715/130 618/503/130 617/501/130
f 442/715/130 443/714/130 619/505/130 618/503/130
f 443/714/130 444/713/130 620/507/130 619/505/130
f 444/713/130 445/712/130 621/509/130 620/507/130
f 445/712/130 446/711/130 622/511/130 621/509/130
f 446/711/130 447/710/130 623/513/130 622/511/130
f 447/710/130 448/709/130 624/515/130 623/513/130
f 448/709/130 449/708/130 625/517/130 624/515/130
f 449/708/130 450/707/130 626/519/130 625/517/130
f 450/707/130 451/706/130 627/521/130 626/519/130
f 451/706/130 452/705/130 628/523/130 627/521/130
f 452/705/130 453/704/130 629/525/130 628/523/130
f 453/704/130 454/703/130 630/527/130 629/525/130
f 454/703/130 455/702/130 631/529/130 630/527/130
f 455/702/130 456/701/130 632/531/130 631/529/130
f 456/701/130 457/700/130 633/533/130 632/531/130
f 457/700/130 458/699/130 634/535/130 633/533/130
f 458/699/130 459/698/130 635/537/130 634/535/130
f 459/698/130 460/697/130 636/539/130 635/537/130
f 460/697/130 461/696/130 637/541/130 636/539/130
f 461/696/130 462/695/130 638/543/130 637/541/130
f 462/695/130 463/694/130 639/545/130 638/543/130
f 463/694/130 464/693/130 640/547/130 639/545/130
f 464/693/130 465/692/130 641/549/130 640/547/130
f 465/692/130 466/691/130 642/551/130 641/549/130
f 466/691/130 467/690/130 643/256/130 642/551/130
f 467/690/130 468/689/130 644/255/130 643/256/130
f 468/689/130 469/688/130 645/555/130 644/255/130
f 469/688/130 470/687/130 646/557/130 645/555/130
f 470/687/130 471/686/130 647/559/130 646/557/130
f 471/686/130 472/685/130 648/561/130 647/559/130
f 472/685/130 473/684/130 649/563/130 648/561/130
f 473/684/130 474/683/130 650/565/130 649/563/130
f 474/683/130 475/682/130 651/567/130 650/565/130
f 475/682/130 476/681/130 652/569/130 651/567/130
f 476/681/130 477/680/130 653/571/130 652/569/130
f 477/680/130 478/679/130 654/573/130 653/571/130
f 478/679/130 479/678/130 655/575/130 654/573/130
f 479/678/130 480/677/130 656/577/130 655/575/130
f 480/677/130 481/676/130 657/579/130 656/577/130
f 481/676/130 482/675/130 658/581/130 657/579/130
f 482/675/130 483/674/130 659/583/130 658/581/130
f 483/674/130 484/673/130 660/585/130 659/583/130
f 484/673/130 485/672/130 661/587/130 660/585/130
f 485/672/130 486/671/130 662/589/130 661/587/130
f 486/671/130 487/670/130 663/591/130 662/589/130
f 487/670/130 488/669/130 664/593/130 663/591/130
f 488/669/130 489/668/130 665/595/130 664/593/130
f 489/668/130 490/667/130 666/597/130 665/595/130
f 490/667/130 491/666/130 667/599/130 666/597/130
f 491/666/130 492/665/130 668/601/130 667/599/130
f 492/665/130 493/664/130 669/603/130 668/601/130
f 493/664/130 494/663/130 670/605/130 669/603/130
f 494/663/130 495/662/130 671/607/130 670/605/130
f 495/662/130 496/661/130 672/609/130 671/607/130
f 496/661/130 497/660/130 673/611/130 672/609/130
f 497/660/130 498/659/130 674/613/130 673/611/130
f 498/659/130 499/658/130 675/615/130 674/613/130
f 499/658/130 500/657/130 676/617/130 675/615/130
f 500/657/130 501/656/130 677/619/130 676/617/130
f 501/656/130 502/655/130 678/621/130 677/619/130
f 502/655/130 503/654/130 679/623/130 678/621/130
f 503/654/130 504/653/130 680/625/130 679/623/130
f 504/653/130 505/652/130 681/627/130 680/625/130
f 505/652/130 506/651/130 682/629/130 681/627/130
f 506/651/130 507/650/130 683/631/130 682/629/130
f 507/650/130 508/649/130 684/633/130 683/631/130
f 508/649/130 509/648/130 685/635/130 684/633/130
f 509/648/130 510/647/130 686/637/130 685/635/130
f 510/647/130 511/646/130 687/639/130 686/637/130
f 511/646/130 512/645/130 688/641/130 687/639/130
f 512/645/130 386/644/130 562/389/130 688/641/130
usemtl Floor2
f 385/643/130 386/644/130 512/645/130 511/646/130 510/647/130 509/648/130 508/649/130 507/650/130 506/651/130 505/652/130 504/653/130 503/654/130 502/655/130 501/656/130 500/657/130 499/658/130 498/659/130 497/660/130 496/661/130 495/662/130 494/663/130 493/664/130 492/665/130 491/666/130 490/667/130 489/668/130 488/669/130 487/670/130 486/671/130 485/672/130 484/673/130 483/674/130 482/675/130 481/676/130 480/677/130 479/678/130 478/679/130 477/680/130 476/681/130 475/682/130 474/683/130 473/684/130 472/685/130 471/686/130 470/687/130 469/688/130 468/689/130 467/690/130 466/691/130 465/692/130 464/693/130 463/694/130 462/695/130 461/696/130 460/697/130 459/698/130 458/699/130 457/700/130 456/701/130 455/702/130 454/703/130 453/704/130 452/705/130 451/706/130 450/707/130 449/708/130 448/709/130 447/710/130 446/711/130 445/712/130 444/713/130 443/714/130 442/715/130 441/716/130 440/717/130 439/718/130 438/719/130 437/720/130 436/721/130 435/722/130 434/723/130 433/724/130 432/725/130 431/726/130 430/727/130 429/728/130 428/729/130 427/730/130 426/731/130 425/732/130 424/733/130 423/734/130 422/735/130 421/736/130 420/737/130 419/738/130 418/739/130 417/740/130 416/741/130 415/742/130 414/743/130 413/744/130 412/745/130 411/746/130 410/747/130 409/748/130 408/749/130 407/750/130 406/751/130 405/752/130 404/753/130 403/754/130 402/755/130 401/756/130 400/757/130 399/758/130 398/759/130 397/760/130 396/761/130 395/762/130 394/763/130 393/764/130 392/765/130 391/766/130 390/767/130 389/768/130 388/769/130 387/770/130
